CoelacanthDisplay.sfdir
StartChar: exclam
Encoding: 33 33 75
Width: 277
VWidth: 1159
Flags: W
HStem: -17.5 133<116.816 149.483>
VStem: 67.5254 133.95<30.4466 64.8792> 122 34<209 408.18>
LayerCount: 2
Fore
SplineSet
122 209 m 17xa0
 122 339 118 437 111 533 c 0
 107 580 83 604 85 654 c 1
 166 664 197 689 202 658 c 1
 186 622 188 599 182 530 c 0
 171 405 156 342 156 208 c 9
 122 209 l 17xa0
EndSplineSet
Refer: 48 46 N 1 0 0 1 33 0 2
Validated: 33
Substitution2: "pcap-1" exclam.pcap
Substitution2: "smcp-1" exclam.smcp
Position2: "cpsp-1" dx=0 dy=0 dh=50 dv=100
EndChar
StartChar: ampersand
Encoding: 38 38 78
Width: 676
VWidth: 1159
Flags: W
HStem: -11 54<156.653 298.893> -5 39<526.931 601.526> 474 18<596.913 638>
VStem: 17 69<117.949 262.636> 81 35<482.539 566.363>
LayerCount: 2
Fore
SplineSet
188 368 m 1xb0
 122 338 81 299 81 219 c 3
 81 106 145 43 242 43 c 3
 312 43 358 103 391 142 c 1
 321 299 284 322 188 368 c 1xb0
192 608 m 0
 161 608 114 579 114 530 c 0x28
 114 471 163 434 227 414 c 1
 270 441 296 463 296 488 c 0
 296 548 254 608 192 608 c 0
638 474 m 1
 597 474 583 467 566 426 c 0
 530.644 340.73 492 255 445 175 c 1
 486 69 526 29 571 29 c 0
 608 29 642 90 656 121 c 1
 672 112 l 1
 640 43 609 -5 530 -5 c 0x68
 477 -5 430 53 403 116 c 1
 379 84 316 -11 199 -11 c 0
 80 -11 17 85 17 172 c 0xb0
 17 274 88 345 169 378 c 1
 121 404 81 448 81 506 c 0
 81 593 160 616 231 653 c 1
 316 623 357 575 351 498 c 1
 339 468 293 436 249 406 c 1
 350 367 398 288 434 206 c 1
 472 269 528 394 531 453 c 0
 532.355 479.649 505 494 485 501 c 1
 488 514 l 1
 530 498 588 487 638 488 c 1
 638 474 l 1
EndSplineSet
Validated: 33
Substitution2: "pcap-1" ampersand.pcap
Substitution2: "smcp-1" ampersand.smcp
Position2: "cpsp-1" dx=0 dy=0 dh=50 dv=100
EndChar
StartChar: quotesingle
Encoding: 39 39 79
Width: 201
Flags: HW
HStem: 445.7 254<91 107>
VStem: 57 84<560.903 699.7> 91 16<445.7 531.412>
LayerCount: 2
Fore
SplineSet
57 699.700195312 m 1xc0
 141 699.700195312 l 1xc0
 139.744428571 630.734195312 110.237285714 557.03422607 107 445.700195312 c 1
 91 445.700195312 l 1xa0
 87.6128714286 556.91122607 58.4442714286 630.890195312 57 699.700195312 c 1xc0
EndSplineSet
Position2: "Extra space for context kern-1" dx=35 dy=0 dh=70 dv=0
Position2: "cpsp-1" dx=0 dy=0 dh=7 dv=14
EndChar
StartChar: parenleft
Encoding: 40 40 59
Width: 380
VWidth: 1515
Flags: W
VStem: 37 42<50.0709 372.703>
LayerCount: 2
Fore
SplineSet
337 724 m 9
 349 704 l 1
 173 612 79 432 79 214 c 27
 79 -5 161 -169 349 -278 c 9
 339 -301 l 1
 145 -194 37 -20 37 212 c 27
 37 443 149 627 337 724 c 9
EndSplineSet
Validated: 1
Position2: "cpsp-1" dx=0 dy=0 dh=50 dv=100
Position2: "'case' vertical ajustments for all-caps-1" dx=0 dy=125 dh=0 dv=0
EndChar
StartChar: asterisk
Encoding: 42 42 87
Width: 362
VWidth: 1159
Flags: W
HStem: 403.953 21G<240.417 271.479>
VStem: 136 75<624.196 692.944>
LayerCount: 2
Fore
SplineSet
186.306 531.294 m 1
 149.52 472.409 168.195 434.138 138.283 389.258 c 1
 124.17 383.443 92.6943 401.367 77.6064 433.342 c 1
 102.692 469.937 130.519 470.524 177.814 537.019 c 1
 110.444 553.81 79.8174 524.22 27.8906 538.8 c 1
 17.999 550.426 25.3193 585.899 51.0674 610.129 c 1
 93.6221 597.58 102.78 571.296 180.635 546.863 c 1
 175.785 616.125 138.18 636.109 136 690 c 1
 144 703 180 707 211 690 c 1
 212.215 645.649 190.048 628.818 190.87 547.223 c 1
 255.242 573.238 262.629 615.18 313.208 633.905 c 1
 328.044 630.314 342.973 597.312 336.384 562.576 c 1
 294.58 547.716 271.722 563.597 194.374 537.601 c 1
 239.009 484.418 281.179 490.354 314.618 448.037 c 1
 315.788 432.817 289.015 408.421 253.942 403.953 c 1
 226.891 439.119 234.931 465.765 186.306 531.294 c 1
EndSplineSet
Validated: 33
EndChar
StartChar: comma
Encoding: 44 44 46
Width: 201
VWidth: 1159
Flags: W
HStem: -115.7 231.4
VStem: 34.4502 133.95<31.7132 65.0793>
LayerCount: 2
Fore
SplineSet
42.7998 -115.7 m 1
 34.5996 -102.95 l 1
 66.9004 -83 107.6 -37.25 94.2998 -7.7998 c 0
 84.7998 13.0996 63.9004 27.3496 43.9502 37.7998 c 0
 39.2002 39.7002 34.4502 43.5 34.4502 49.2002 c 3
 34.4502 54.9004 39.2002 56.7998 43.9502 58.7002 c 0
 63.9004 69.1504 79.0996 84.3496 89.5498 104.3 c 0
 91.4502 109.05 94.2998 115.7 100 115.7 c 3
 105.7 115.7 108.55 109.05 110.45 104.3 c 0
 120.9 84.3496 138 69.1504 157.95 58.7002 c 0
 162.7 56.7998 168.4 54.9004 168.4 49.2002 c 3
 168.4 43.5 154.9 -53.9502 42.7998 -115.7 c 1
EndSplineSet
Validated: 33
Position2: "cpsp-1" dx=0 dy=0 dh=7 dv=14 [ddx={} ddy={} ddh={} ddv={}]
EndChar
StartChar: period
Encoding: 46 46 48
Width: 201
VWidth: 1159
Flags: W
HStem: -17.5 133<83.8157 116.483>
VStem: 34.5254 133.95<30.4466 64.8792>
LayerCount: 2
Fore
SplineSet
158.025 36.6504 m 0
 138.075 26.2002 120.975 12.9004 110.525 -7.0498 c 0
 108.625 -11.7998 106.091 -17.5 100.391 -17.5 c 3
 94.6904 -17.5 91.5254 -11.7998 89.625 -7.0498 c 0
 79.1748 12.9004 63.9746 26.2002 44.0254 36.6504 c 0
 39.2754 38.5498 34.5254 42.0361 34.5254 47.7363 c 3
 34.5254 53.4365 39.2754 56.5996 44.0254 58.5 c 0
 63.9746 68.9502 79.1748 84.1504 89.625 104.1 c 0
 91.5254 108.85 94.6904 115.5 100.391 115.5 c 3
 106.091 115.5 108.625 108.85 110.525 104.1 c 0
 120.975 84.1504 138.075 68.9502 158.025 58.5 c 0
 162.775 56.5996 168.475 53.4365 168.475 47.7363 c 3
 168.475 42.0361 162.775 38.5498 158.025 36.6504 c 0
EndSplineSet
Validated: 1
Position2: "Extra space for context kern-1" dx=78 dy=0 dh=156 dv=0
Position2: "cpsp-1" dx=0 dy=0 dh=7 dv=14
EndChar
StartChar: zero
Encoding: 48 48 63
Width: 474
Flags: HW
HStem: -5.88965 22.9296<206.822 297.851> 369.96 22.94<182.797 275.301>
VStem: 35.1602 65.2008<118.057 273.999> 373.968 65.032<109.211 280.086>
LayerCount: 2
Fore
SplineSet
222 370 m 3
 146 370 100 295 100 220 c 3
 100 115 162 17 262 17 c 3
 350 17 374 103 374 171 c 3
 374 276 322 370 222 370 c 3
249 393 m 3
 358 393 439 310 439 198 c 3
 439 87 348 -6 229 -6 c 3
 116 -6 35 82 35 191 c 3
 35 301 139 393 249 393 c 3
EndSplineSet
Substitution2: "'zero' Slashed Zero lookup 22-1" zero.alt
Substitution2: "dnom-1" zero.denom
Substitution2: "numr-1" zero.numerator
Substitution2: "lnum-1" zero.proportionallining
Substitution2: "tnum-1" zero.tabulartext
EndChar
StartChar: one
Encoding: 49 49 64
Width: 299
VWidth: 1159
Flags: W
HStem: -1 18.7998<47 93.9453 196.564 252.5> 375 17<55.5 110.592> 390.8 20G<206.5 243>
VStem: 124.5 54<32.7806 370.921>
LayerCount: 2
Fore
SplineSet
55.5 392 m 1xd0
 107 389.799804688 175 384.799804688 238 410.799804688 c 9xb0
 243 392.799804688 l 1
 202 379.799804688 192 383.799804688 186 345.799804688 c 0
 184.587890625 336.85546875 178.5 325.848632812 178.5 200 c 3
 178.5 144.454101562 179.321289062 59.9755859375 180 49.7998046875 c 0
 182 19.7998046875 217 19.7998046875 253 17.7998046875 c 9
 252.5 -2 l 1
 157 15.7998046875 114 13.7998046875 47 -1 c 9
 46 17.7998046875 l 1
 79 21.7998046875 103 20.7998046875 115 50.7998046875 c 0
 119 59.7998046875 124.5 104 124.5 210 c 3
 124.5 326.80078125 124 337.799804688 114 361.799804688 c 0
 110.559570312 370.056640625 98 377.799804688 54.5 375 c 9
 55.5 392 l 1xd0
EndSplineSet
Validated: 33
Substitution2: "dnom-1" one.denom
Substitution2: "numr-1" one.numerator
Substitution2: "tnum-1" one.tabulartext
Substitution2: "lnum-1" one.proportionallining
EndChar
StartChar: two
Encoding: 50 50 65
Width: 400
Flags: HW
HStem: 0.5 52.5<108.609 333.221> 387.5 30<128.552 222.553>
VStem: 252 68<247.597 364.809>
LayerCount: 2
Fore
SplineSet
56 340.5 m 1
 82.6142578125 383.813476562 136.978515625 417.5 192 417.5 c 0
 268 417.5 320 383.5 320 313.5 c 3
 320 250.986328125 258 180.5 103 55 c 1
 224 44.5 258 47.5 323 53 c 1
 354.98828125 53.8720703125 366 77.5 392 117.5 c 1
 404 109.5 l 1
 404 109.5 352 27.5 334 -20.5 c 1
 317 -18 325.052734375 0.5 286 0.5 c 3
 31.982421875 0.5 34 -0.6484375 18 -5 c 1
 13 10 l 1
 60 45.5 252 168.5 252 303.5 c 3
 252 360.5 218 387.5 174 387.5 c 0
 121 387.5 94 357.5 71 329.5 c 1
 56 340.5 l 1
EndSplineSet
Substitution2: "case-1" two.proportionallining
Substitution2: "lnum-1" two.proportionallining
Substitution2: "tnum-1" two.tabulartext
Substitution2: "numr-1" two.numerator
Substitution2: "dnom-1" two.denom
EndChar
StartChar: three
Encoding: 51 51 66
Width: 319
Flags: HW
HStem: -223.8 15<44.0667 65.501> 385.2 33<112.572 181.786>
VStem: 219 57<252.996 354.411> 227 61<-76.1465 56.3863>
LayerCount: 2
Fore
SplineSet
43 -208.799804688 m 1xd0
 167 -178.799804688 227 -107.799804688 227 -20.7998046875 c 3xd0
 227 71.2001953125 156 108.200195312 109 129.200195312 c 1
 105 129.200195312 77 114.200195312 63 111 c 1
 57 127 l 1
 116 150 219 197.200195312 219 297.200195312 c 3
 219 355.200195312 164 385.200195312 147 385.200195312 c 3
 106 385.200195312 85 366.200195312 64 349.200195312 c 1
 54 360.200195312 l 1
 77 394.200195312 146 418.200195312 179 418.200195312 c 3
 238 418.200195312 276 364.200195312 276 311.200195312 c 3xe0
 276 263.204592551 238.107804233 211.315877275 170 165 c 1
 233.758064516 142.61726491 288 89.9243164062 288 4 c 3
 288 -144 89 -216.799804688 45 -223.799804688 c 1
 43 -208.799804688 l 1xd0
EndSplineSet
Substitution2: "case-1" three.proportionallining
Substitution2: "lnum-1" three.proportionallining
Substitution2: "tnum-1" three.tabulartext
Substitution2: "numr-1" three.numerator
Substitution2: "dnom-1" three.denom
EndChar
StartChar: four
Encoding: 52 52 67
Width: 469
Flags: HW
HStem: -11 21G<7 21 419.519 439.775> 0 41.5<68.2021 275 332 429.905> 401.5 20G<326.434 353>
VStem: 275 57<-182.283 0 41.5 263.192>
LayerCount: 2
Fore
SplineSet
276 41.5 m 17x70
 276 125 278.81640625 230.055664062 270 286.5 c 9
 270 286.5 141.0703125 126.26953125 58 41.5 c 9
 276 41.5 l 17x70
353 412.5 m 25
 347.9296875 396.120117188 340.603515625 387.635742188 340 370.5 c 0
 336 257 335.509765625 170.200195312 332 41.5 c 1x70
 409 40 440 39 460 97.5 c 9
 460 97.5 467.3203125 93.83984375 472 91.5 c 9
 472 91.5 448.549804688 28.974609375 431 -11 c 1xb0
 408.038085938 1.591796875 359.772460938 1.060546875 332 1 c 1
 331.793945312 -73.654296875 334.56640625 -158.471679688 339 -183.5 c 1
 300 -207 273 -225 259 -250.5 c 9
 259 -250.5 249.509765625 -246.349609375 246 -240.5 c 1
 278 -181 274.592773438 -116.307617188 275 0 c 1
 91 0 35 -1 7 -9 c 9
 7 -9 5.0703125 -1.2900390625 0 3 c 1
 15 19 315.8671875 367 337 421.5 c 9
 353 412.5 l 25
EndSplineSet
Substitution2: "dnom-1" four.denom
Substitution2: "numr-1" four.numerator
Substitution2: "tnum-1" four.tabulartext
Substitution2: "lnum-1" four.proportionallining
EndChar
StartChar: five
Encoding: 53 53 68
Width: 355
Flags: HW
HStem: -215 15<32 67.9461> 335.5 63<95 276.596>
VStem: 233 58<-41.5478 96.89>
LayerCount: 2
Fore
SplineSet
83 393.5 m 13
 150.860351562 395.450195312 241.5 396 257 398.5 c 4
 283.412109375 402.759765625 292.110351562 420.610351562 312 440.5 c 13
 312 440.5 319.3203125 436.83984375 324 434.5 c 13
 296.700195312 395.889648438 271.5 335 254 335.5 c 4
 223.475585938 336.372070312 157.009765625 332.5 95 332.5 c 13
 95 332.5 90.509765625 259.299804688 87 212.5 c 5
 169.5 219 291 176.166015625 291 48.5 c 7
 291 -95.595703125 137 -206 32 -215 c 13
 32 -215 32.33984375 -205.849609375 30 -200 c 5
 120 -197 233 -92.1005859375 233 28 c 7
 233 87.0654296875 189.5 164 58 152 c 5
 67.5 208 79.359375 305.161132812 83 393.5 c 13
EndSplineSet
Substitution2: "dnom-1" five.denom
Substitution2: "numr-1" five.numerator
Substitution2: "tnum-1" five.tabulartext
Substitution2: "lnum-1" five.proportionallining
EndChar
StartChar: six
Encoding: 54 54 69
Width: 446
VWidth: 1159
Flags: W
HStem: -10 28<205.382 291.277> 326 38<198.088 284.145>
VStem: 43 62<125.59 348.209> 363 48<96.5611 235.991>
LayerCount: 2
Fore
SplineSet
341 630 m 9
 341 630 347.099609375 621.459960938 351 616 c 1
 191 530 105 417.932617188 105 244 c 27
 105 136.456054688 155.456054688 18 263 18 c 27
 322.728515625 18 363 74.2705078125 363 134 c 27
 363 227.599609375 312.599609375 326 219 326 c 3
 191.620117188 326 171 310 151 288 c 1
 141 296 l 1
 145 314 207.845703125 364 263 364 c 3
 338 364 411 276.702148438 411 178 c 3
 411 75.951171875 317.0234375 -10 229 -10 c 3
 103.85546875 -10 43 121.913085938 43 214 c 3
 43 413.572265625 167 572 341 630 c 9
EndSplineSet
Validated: 1
Substitution2: "dnom-1" six.denom
Substitution2: "numr-1" six.numerator
Substitution2: "tnum-1" six.tabulartext
Substitution2: "lnum-1" six.proportionallining
EndChar
StartChar: seven
Encoding: 55 55 70
Width: 452
Flags: HW
HStem: 344 62<81.5133 354.044> 402 20G<69 86.5>
LayerCount: 2
Fore
SplineSet
81 422 m 17x40
 92 406 99.7080078125 406.55078125 114 406 c 24
 242.606445312 401.040039062 430 404 444 408 c 9
 444 408 448.879882812 397.900390625 452 394 c 1
 416 364 156 -132 160 -170 c 9
 160 -170 120.1796875 -167.219726562 96 -168 c 1
 196 0 269.813476562 127.745117188 368 322 c 0
 371.623046875 329.166992188 365.994140625 339.235351562 358 340 c 24
 272.576171875 348.170898438 254 354 138 344 c 0x80
 92.2822265625 340.05859375 59 350 42 288 c 9
 42 288 33.240234375 290.440429688 27 292 c 9
 27 292 63 390 69 421 c 9
 81 422 l 17x40
EndSplineSet
Substitution2: "case-1" seven.proportionallining
Substitution2: "lnum-1" seven.proportionallining
Substitution2: "tnum-1" seven.tabulartext
Substitution2: "numr-1" seven.numerator
Substitution2: "dnom-1" seven.denom
EndChar
StartChar: eight
Encoding: 56 56 71
Width: 432
VWidth: 1159
UnlinkRmOvrlpSave: 1
Flags: W
HStem: -7 16<200.474 265.626> 615 16<158.063 228.474>
VStem: 42 62<92.0718 214.135> 73 35<472.352 563.894> 308 49<426.723 546.993> 336 56<78.9086 205.98>
LayerCount: 2
Fore
SplineSet
192 615 m 3xe8
 146.759765625 615 108 585.240234375 108 540 c 3
 108 362.983398438 392 350.016601562 392 155 c 3xd4
 392 61.1337890625 307.866210938 -7 214 -7 c 27
 127.5078125 -7 42 46.5078125 42 133 c 3
 42 317.173828125 308 326.985351562 308 461 c 3
 308 525.192382812 269.192382812 615 192 615 c 3xe8
202 631 m 7
 300.356445312 631 357 580.138671875 357 497 c 7
 357 337.97265625 104 333.3203125 104 173 c 3xe8
 104 100.75 164.142578125 9 234 9 c 3
 330.083007812 9 336 83.1669921875 336 115 c 3
 336 198.573242188 296.577148438 250.362304688 220.071289062 308 c 0
 148.931640625 361.594726562 73 411.180664062 73 484 c 3
 73 587.750976562 139.249023438 631 202 631 c 7
EndSplineSet
Substitution2: "dnom-1" eight.denom
Substitution2: "numr-1" eight.numerator
Substitution2: "lnum-1" eight.proportionallining
Substitution2: "tnum-1" eight.tabulartext
EndChar
StartChar: greater
Encoding: 62 62 333
Width: 463
Flags: HW
HStem: -7 21G<72 113.429> 392 20G<91.641 135.282>
LayerCount: 2
Fore
SplineSet
78 373 m 1
 106 412 l 1
 412 203 l 1
 82 -7 l 1
 72 8 l 1
 351 187 l 1
 78 373 l 1
EndSplineSet
Position2: "'case' vertical ajustments for all-caps-1" dx=0 dy=90 dh=0 dv=0
EndChar
StartChar: question
Encoding: 63 63 74
Width: 393
VWidth: 1159
Flags: W
HStem: -17.5 133<112.816 145.483> 605.616 63.3844<71.6187 198.931>
VStem: 39.4463 18.5537<700.259 720.391> 63.5254 133.95<30.4466 64.8792> 122 14<185 216.452> 319 17<414.65 493.902>
LayerCount: 2
Fore
SplineSet
49 603 m 1xec
 51.0546875 619.569335938 51.873046875 633.829101562 51.873046875 646.122070312 c 3
 51.873046875 688.89298904 39.4462890625 704.994623065 39.4462890625 712.575195312 c 3
 39.4462890625 718.8671875 43.5869140625 719.920898438 58 724 c 1
 79 669 79 669 109 669 c 3
 226.251953125 669 336 559.415458937 336 457 c 3
 336 317.691011236 230.497636217 287.357994464 187 276 c 0
 146.231304283 265.531023115 145.125 221 136 185 c 1
 122 185 l 1
 120.273632722 213.357953924 119.188717595 237.723233197 119.188717595 258.138824443 c 3
 119.188717595 310.435627097 126.307768789 336.815166204 148 338 c 0
 219.749023438 342.028822284 319 376.037383178 319 448 c 3
 319 538.275086818 236.317309581 605.615626499 97.7918368556 605.615626499 c 3
 82.2207625405 605.615626499 65.9441104033 604.764773634 49 603 c 1xec
EndSplineSet
Refer: 48 46 N 1 0 0 1 29 0 2
Validated: 1
Position2: "cpsp-1" dx=0 dy=0 dh=50 dv=100
Substitution2: "smcp-1" question.smcp
Substitution2: "pcap-1" question.pcap
EndChar
StartChar: at
Encoding: 64 64 874
Width: 802
VWidth: 1159
Flags: W
HStem: -184 44<296.563 519.568> 1.09961 43.7002<458.768 562.23> 6.5 50.5<278.488 363.509> 378.9 20G<549.455 590.859> 528 33<329.811 539.453>
VStem: 37 69<48.4325 283.455> 222.851 64.098<75.2219 195.446> 716 44<194.717 389.017>
LayerCount: 2
Fore
SplineSet
564.755 335 m 1xbf
 539.555 278.3 520.372362361 211.266684402 510.755 150.5 c 0
 505.821809736 119.329955177 501.639648438 84.2056038461 501.639648438 71.1396484375 c 3
 501.639648438 52.5948176349 506.696735491 44.7998046875 515.254882812 44.7998046875 c 3
 536.666908353 44.7998046875 581.557614943 51.0835550872 613.5 78.5 c 0
 672.523517588 129.160431762 716 196.866004963 716 285 c 3
 716 442.115211207 594.815360825 528 422 528 c 3
 248.443 528 106 373.426972222 106 157 c 3
 106 -21.2955743945 253.56 -140 409 -140 c 3
 533.221 -140 638.753 -85.8397231405 714 -11 c 1
 718.29 -15.29 720.71 -17.71 725 -22 c 1
 654.297297297 -105.076923077 533.194369369 -184 398 -184 c 3
 215.848 -184 37 -52.6006 37 157 c 3
 37 379.824 218.625 561 442 561 c 3
 602.303 561 760 456.039 760 288 c 3
 760 186.984026966 682.302769811 103.346231101 629.5 64.5 c 0
 593.739322696 38.1913889204 536.574 1.09961 478.355 1.09961 c 3xdf
 439.181 1.09961 436.86 44.567 439.655 89.2998 c 1
 395.555 42.4999 337.055 6.5 301.955 6.5 c 3
 255.02 6.5 222.851 50.7988 222.851 103.97 c 3
 222.851 201.658 298.408901615 288.679294356 360.455 322.4 c 0
 401.855 344.9 452.254792639 353.000914856 519.755 368.3 c 0
 531.919 371.057 544.824 385.269 549.455 394.4 c 1
 596.255 398.9 l 1
 585.463 377.317 575.358 356.207 564.755 335 c 1xbf
479.155 314.8 m 1
 470.154974524 320.600195313 445.85490574 326.400390625 437.754882812 326.400390625 c 3
 409.854805752 326.400390625 377.100648133 311.58237118 358.555664062 297.599609375 c 0
 323.188829983 270.933314337 286.949 216.991673386 286.949 145.586 c 3
 286.949 98.751481225 305.132692416 57 350.455078125 57 c 3xbf
 378.35519802 57 416.155360458 83.3378994991 441.35546875 108.700195312 c 1
 450.649448529 148.637982125 462.418285122 193.292367526 472.955 237.8 c 0
 478.177 259.858 483.105 283.587 483.105 298.967 c 3
 483.105 306.389 481.962 311.994 479.155 314.8 c 1
EndSplineSet
Validated: 33
Position2: "'case' vertical ajustments for all-caps-1" dx=0 dy=160 dh=0 dv=0
Position2: "cpsp-1" dx=0 dy=0 dh=50 dv=100
EndChar
StartChar: A
Encoding: 65 65 26
Width: 719
VWidth: 1159
Flags: HMW
HStem: -7 18<33 46.5502 203.436 236.667 487.333 524.463 679.953 704> 247 38<236 462>
AnchorPoint: "Bottom" 365 -15 basechar 0
AnchorPoint: "Top" 380 699 basechar 0
AnchorPoint: "Ogonek" 540 19 basechar 0
LayerCount: 2
Fore
SplineSet
236 285 m 1
 289 279 413 280 462 280 c 1
 424 380 391 463 349 565 c 9
 349 565 273 376 236 285 c 1
488 -7 m 1
 485 11 l 1
 531 13 547 32 540 60 c 0
 525 123 499 179 476 242 c 1
 416 246 272 249 220 247 c 1
 192 181 171 137 151 77 c 0
 137 36 175 26 239 11 c 1
 236 -10 l 1
 198.327148438 -5.205078125 142.825195312 -0.8798828125 93.9189453125 -0.8798828125 c 3
 71.42578125 -0.8798828125 50.3271484375 -1.794921875 33 -4 c 9
 30 16 l 1
 76 22 88 47 99 70 c 0
 149 170 292 513 358 679 c 0
 362 690 365 695 367 710 c 9
 387 708 l 1
 389 699 392 693 396 683 c 0
 473 462 600 130 639 54 c 0
 655 23 672 20 706 14 c 9
 704 -4 l 1
 675.715820312 -3.0576171875 639.431640625 -2.1142578125 602.689453125 -2.1142578125 c 3
 561.490234375 -2.1142578125 519.715820312 -3.2998046875 488 -7 c 1
EndSplineSet
Position2: "cpsp-1" dx=0 dy=0 dh=50 dv=100
Substitution2: "c2pc-1" a.pcap
Substitution2: "c2sc-1" a.smcp
EndChar
StartChar: B
Encoding: 66 66 27
Width: 574
VWidth: 1159
Flags: HMW
HStem: -5 30<174.927 364.508> 363 21<187 291.543> 678 24<32.4444 86.375 206.52 302.893>
VStem: 114 73<41.2395 363 384 621.552> 395 88<461.318 607.313> 464 88<99.5601 269.208>
AnchorPoint: "Bottom" 286 -15 basechar 0
AnchorPoint: "Top" 278 682 basechar 0
LayerCount: 2
Fore
SplineSet
30 15 m 1xf4
 68 16 104 27 108 87 c 0
 113 152 114 307 114 430 c 3
 114 499 113 559 112 586 c 0
 110 650 97 670 63 679 c 0
 56 681 42 684 31 685 c 1
 33 705 l 1
 59 701 112 695 145 695 c 3
 198 695 229 703 283 703 c 3
 379 703 483 643 483 536 c 3xf8
 483 462 428 401 326 385 c 1
 438 371 552 305 552 188 c 3
 552 38 413 -4 294 -4 c 3
 226 -4 197 0 149 0 c 3
 102 0 70 0 31 -5 c 1
 30 15 l 1xf4
274 391 m 0
 337 402 395 440 395 527 c 3
 395 612 336 679 240 679 c 3
 225 679 216 678 209 674 c 0
 202 669 196 661 194 647 c 0
 189 625 185 438 187 385 c 1
 213 385 242 386 274 391 c 0
325 355 m 0
 288 364 257 364 187 364 c 1
 186 248 186 135 187 85 c 0
 188 59 190 47 197 42 c 0
 214 30 239 26 276 26 c 3
 383 26 464 77 464 179 c 3xf4
 464 264 416 335 325 355 c 0
EndSplineSet
Position2: "cpsp-1" dx=0 dy=0 dh=50 dv=100
Substitution2: "c2pc-1" b.pcap
Substitution2: "c2sc-1" b.smcp
EndChar
StartChar: D
Encoding: 68 68 29
Width: 797
VWidth: 1159
Flags: HW
HStem: -6 23<31 93.0026 263.448 453.367> 692 21<39 81.9453 193.386 427.753>
VStem: 109 87<40.7566 309.036> 683 91<231.612 474.643>
AnchorPoint: "Bottom" 352 -15 basechar 0
AnchorPoint: "Top" 361 690 basechar 0
LayerCount: 2
Fore
SplineSet
354 17 m 3
 562 17 683 143 683 363 c 3
 683 581 499 692 354 692 c 3
 283 692 236 680 214 670 c 0
 205 666 205 663 204 648 c 0
 196.729960407 573.977778692 192.517559903 377.649993828 192.517559903 228.477883042 c 3
 192.517559903 151.943765174 193.626388832 87.8224213289 196 59 c 0
 197 48 201 45 210 43 c 0
 242 33 297 17 354 17 c 3
39 708 m 1
 57 706 81 706 134 706 c 3
 167 706 283 713 351 713 c 3
 579 713 774 592 774 353 c 3
 774 87 532 -6 376 -6 c 3
 286 -6 245 0 172 0 c 3
 130 0 65 -2 31 -4 c 1
 31 15 l 1
 83 14 104 20 109 75 c 0
 112.945484083 118.400324917 118.188205221 303.199488759 118.188205221 453.956004373 c 3
 118.188205221 532.458833003 116.766612514 601.730810098 113 637 c 0
 108 681 87 684 38 688 c 1
 39 708 l 1
EndSplineSet
Position2: "cpsp-1" dx=0 dy=0 dh=50 dv=100
Substitution2: "c2pc-1" d.pcap
Substitution2: "c2sc-1" d.smcp
EndChar
StartChar: E
Encoding: 69 69 30
Width: 639
VWidth: 1159
Flags: HW
HStem: -9 19<29.8947 69.7483> 0.0184778 25.0965<228.8 463.902> 346 28<193 384.216> 680.284 22.96<218.85 467.751> 690 14<41 73.102>
VStem: 117.19 75.8105<136.594 346 374 613.965> 498 16.3665<247.172 300.747 414.044 451.383> 535 19<563 640.939> 608 17<149.154 163.471>
AnchorPoint: "Bottom" 309 -15 basechar 0
AnchorPoint: "Top" 330 682 basechar 0
AnchorPoint: "Ogonek" 560 1 basechar 0
LayerCount: 2
Fore
SplineSet
41 704 m 1xaf80
 90 704 170 703 254 703 c 3
 392 703 538 704 565 708 c 1
 570 706 571 704 571 698 c 3
 571 686 563 656 554 562 c 1
 535 563 l 1
 539 609 540 640 515 653 c 0
 478 672 412 680 347 680 c 3
 297 680 248 676 214 668 c 0
 209 667 205 666 204 661 c 0
 197 602 193 440 193 374 c 1
 243 372 406 374 460 381 c 0
 486 385 496 430 502 453 c 1
 519 451 l 1
 516 426 514 386 514 345 c 3
 514 308 516 271 518 246 c 1
 498 245 l 1
 497 294 486 331 456 336 c 0
 370 350 266 348 193 346 c 1
 193 267 191 113 202 54 c 0
 203 48 205 44 209 43 c 0
 226 35 285 25 351 25 c 3
 420 25 496 36 541 71 c 0
 568 92 592 126 608 167 c 1
 625 161 l 1
 614 125 579 19 568 -6 c 1
 559 -3 437 0 310 0 c 3x7780
 195 0 75 -2 31 -9 c 1
 28 10 l 1
 62 16 96 19 101 53 c 0
 112 138 117 257 117 376 c 3
 117 468 114 560 109 636 c 0
 107 674 82 685 41 690 c 1
 41 704 l 1xaf80
EndSplineSet
Position2: "cpsp-1" dx=0 dy=0 dh=50 dv=100
Substitution2: "c2pc-1" e.pcap
Substitution2: "c2sc-1" e.smcp
EndChar
StartChar: F
Encoding: 70 70 31
Width: 589
VWidth: 1159
Flags: HW
HStem: -4 22<38 81.6241> 351 29<200 392.516> 683 19<30 80.4241>
VStem: 477 25<258 325.072 385.783 445> 529 23<565 628.106>
AnchorPoint: "Bottom" 206 -15 basechar 0
AnchorPoint: "Top" 320.146 675.227 basechar 0
LayerCount: 2
Fore
SplineSet
316 -12 m 1
 277 -4 226 -1 173 -1 c 3
 128 -1 83 -3 42 -6 c 1
 38 16 l 1
 97 23 107 29 112 87 c 0
 118 156 122 262 122 364 c 3
 122 458 120 569 111 628 c 0
 106 664 99 682 28 681 c 1
 28 700 l 1
 145 699 250 697 336 697 c 3
 415 697 536 702 555 710 c 1
 558 708 559 708 559 706 c 0
 559 700 551 677 551 564 c 1
 528 567 l 1
 528 614 520 638 499 647 c 0
 437 674 329 665 212 664 c 0
 207 664 205 661 205 655 c 0
 200 587 200 459 200 379 c 1
 329 366 441 380 446 381 c 0
 467 383 479 387 482 450 c 1
 504 447 l 1
 503 441 503 416 503 387 c 3
 503 350 504 276 504 260 c 1
 479 260 l 1
 482 318 472 330 446 334 c 0
 384 344 286 347 201 350 c 1
 198 281 198 181 199 91 c 0
 200 22 262 18 320 17 c 1
 316 -12 l 1
EndSplineSet
Position2: "cpsp-1" dx=0 dy=0 dh=50 dv=100
Substitution2: "c2pc-1" f.pcap
Substitution2: "c2sc-1" f.smcp
EndChar
StartChar: H
Encoding: 72 72 33
Width: 872
VWidth: 1159
Flags: HW
HStem: -7 22<31 84.7222 609.238 655.154 797.033 843> 344 35<193 689> 688 20<34 89.4782 276.975 282 791.941 839> 695 18<606 642.508>
VStem: 109 85<393.875 627.104> 685 86<30.0585 342 380 676.577>
AnchorPoint: "Bottom" 442 -15 basechar 0
AnchorPoint: "Top" 438 665 basechar 0
LayerCount: 2
Fore
SplineSet
34 706 m 1xec
 91 706 136 700 193 700 c 3
 219 700 248 701 282 705 c 1
 284 687 l 1
 248 683 204 677 202 656 c 0
 191 577 195 469 193 377 c 1
 689 378 l 1
 688 442 694 520 685 625 c 0
 681 675 653 683 603 690 c 1
 606 708 l 1
 659 703 699 700 736 700 c 3
 771 700 802 703 839 708 c 1xdc
 841 689 l 1
 802 685 773 674 772 628 c 0
 769 517 766 393 766 278 c 3
 766 201 767 130 771 75 c 0
 775 22 797 21 844 15 c 1
 843 -7 l 1
 808 -1 774 1 738 1 c 3
 696 1 654 -2 610 -10 c 1
 606 9 l 1
 660 18 683 28 685 80 c 0
 689 159 691 270 689 340 c 1
 192 342 l 1
 190 276 194 82 194 68 c 0
 194 29 230 16 277 10 c 1
 274 -11 l 1
 238 -3 203 0 165 0 c 3
 123 0 79 -4 31 -9 c 1
 28 10 l 1
 83 17 101 23 105 69 c 0
 113 170 115 289 115 394 c 3
 115 499 113 589 109 635 c 0
 105 679 88 685 34 686 c 1
 34 706 l 1xec
EndSplineSet
Position2: "cpsp-1" dx=0 dy=0 dh=50 dv=100
Substitution2: "c2pc-1" h.pcap
Substitution2: "c2sc-1" h.smcp
EndChar
StartChar: I
Encoding: 73 73 34
Width: 373
Flags: HW
HStem: -4 19<31 106.272 256.5 339> 692 19<36 102.034 276.677 346>
VStem: 31 315
AnchorPoint: "Bottom" 194 -15 basechar 0
AnchorPoint: "Top" 195 689 basechar 0
AnchorPoint: "Ogonek" 269 5 basechar 0
LayerCount: 2
Fore
SplineSet
36 711 m 1
 82 706 133 702 184 702 c 3
 241 702 297 705 346 710 c 1
 347 689 l 1
 293 688 249 691 240 622 c 0
 233 566 230 437 230 308 c 3
 230 224 232 140 234 80 c 0
 236 18 257 15 339 15 c 1
 339 -4 l 1
 294 -2 230 0 167 0 c 3
 117 0 68 -1 31 -5 c 1
 30 17 l 1
 101 19 144 17 149 90 c 0
 154 159 156 258 156 354 c 3
 156 465 153 569 148 617 c 0
 141 685 108 683 34 690 c 1
 36 711 l 1
EndSplineSet
Position2: "cpsp-1" dx=0 dy=0 dh=50 dv=100
Substitution2: "c2pc-1" i.pcap
Substitution2: "c2sc-1" i.smcp
EndChar
StartChar: J
Encoding: 74 74 35
Width: 386
VWidth: 1159
Flags: HMW
AnchorPoint: "Top" 209 693 basechar 0
LayerCount: 2
Fore
SplineSet
167 621 m 0
 158 687 122 684 49 689 c 1
 50 709 l 1
 105 706 167 703 228 703 c 3
 273 703 318 704 359 707 c 1
 359 685 l 1
 312 686 263 690 257 622 c 0
 251 551 252 391 251 200 c 0
 251 114 249 22 247 -69 c 1
 193 -142 153 -187 121 -213 c 0
 101 -229 59 -245 37 -245 c 3
 17 -245 3 -224 1 -213 c 1
 0 -202 66 -174 71 -176 c 1
 77 -180 85 -187 100 -187 c 3
 107 -187 157 -185 167 0 c 0
 178 200 181 520 167 621 c 0
EndSplineSet
Position2: "cpsp-1" dx=0 dy=0 dh=50 dv=100
Substitution2: "c2pc-1" j.pcap
Substitution2: "c2sc-1" j.smcp
EndChar
StartChar: K
Encoding: 75 75 36
Width: 713
Flags: HW
HStem: -1 19<31 35.8607 227.666 278 486 527.34> 680 19<36 81.4409 219.508 280.571 415 452.693 593.354 621.6>
AnchorPoint: "Bottom" 349 -15 basechar 0
AnchorPoint: "Top" 346 675 basechar 0
LayerCount: 2
Fore
SplineSet
413 702 m 1
 443 700 474 699 504 699 c 3
 557 699 604 702 621 705 c 1
 624 685 l 1
 604 686 567 665 545 648 c 0
 448 575 338 465 245 380 c 1
 604 70 l 2
 632 47 677 14 695 9 c 1
 691 -10 l 1
 680 -8 665 0 622 0 c 3
 547 0 493 -7 486 -7 c 1
 485 12 l 1
 538 17 545 24 518 49 c 0
 388 165 281 254 185 334 c 1
 185 239 187 137 191 71 c 0
 193 33 212 28 278 14 c 1
 278 -5 l 1
 260 -5 160 3 90 3 c 3
 65 3 44 2 31 -1 c 1
 30 18 l 1
 78 22 97 29 101 79 c 0
 109 188 113 311 113 414 c 3
 113 494 111 565 107 620 c 0
 103 675 98 677 34 686 c 1
 36 705 l 1
 77 703 115 700 156 700 c 3
 193 700 233 702 280 708 c 1
 282 691 l 1
 236 687 201 685 196 628 c 0
 192 578 186 466 185 350 c 1
 294 457 394 550 446 607 c 0
 464 628 475 645 475 655 c 0
 475 671 447 683 415 683 c 1
 413 702 l 1
EndSplineSet
Position2: "cpsp-1" dx=0 dy=0 dh=50 dv=100
Substitution2: "c2pc-1" k.pcap
Substitution2: "c2sc-1" k.smcp
EndChar
StartChar: L
Encoding: 76 76 37
Width: 621
Flags: HW
HStem: 0 34<201.715 484.694> 0 22<28 77.3713> 680 20<39 87.9227 235.574 290.286>
VStem: 108 83<42.703 331.175> 112 90<374.826 665.166> 584 21<117.717 142.667>
AnchorPoint: "Bottom" 303 -15 basechar 0
AnchorPoint: "Top" 170 676 basechar 0
AnchorPoint: "TopRight" 367 531 basechar 0
LayerCount: 2
Fore
SplineSet
287 710 m 1x6c
 289 685 l 1
 223 678 204 675 200 633 c 0x6c
 189 469 187 263 193 86 c 0
 194 49 208 37 263 35 c 0
 322 34 354 32 393 36 c 0xb4
 542 51 573 92 586 151 c 1
 607 144 l 1
 595 94 579 20 558 -13 c 1
 521 -1 464 -3 438 -2 c 0
 380 -2 289 0 208 0 c 3
 161 0 34 -2 31 -2 c 1
 31 20 l 1
 101 31 109 40 110 92 c 0x74
 111 182 114 303 114 403 c 3
 114 478 113 560 110 621 c 0
 107 685 87 683 34 687 c 1
 36 707 l 1
 80 704 116 702 147 702 c 3
 201 702 243 704 287 710 c 1x6c
EndSplineSet
Position2: "cpsp-1" dx=0 dy=0 dh=50 dv=100
Substitution2: "c2pc-1" l.pcap
Substitution2: "c2sc-1" l.smcp
EndChar
StartChar: M
Encoding: 77 77 38
Width: 1012
VWidth: 1159
Flags: HW
HStem: -7 19<36 85.6652 238.157 296 689.5 722.257> -1 22<927.234 984> 675 20<39 117.171 904.146 978>
VStem: 799 78<350.25 578> 804 81<57.3892 366.812>
AnchorPoint: "Top" 528 695 basechar 0
AnchorPoint: "Bottom" 502 -15 basechar 0
LayerCount: 2
Fore
SplineSet
984 -3 m 1x68
 948 -1 913 0 878 0 c 3
 815 0 754 -1 690 -7 c 1
 688 13 l 1
 769 27 804 53 804 137 c 0xa8
 803 301 801 496 799 586 c 1
 707 433 616 246 560 126 c 0
 534 71 515 24 508 0 c 1
 496 0 l 1
 483 40 461 93 436 146 c 0
 371 284 275 461 211 591 c 1
 200 504 190 259 188 126 c 0
 186 41 211 16 297 16 c 1
 296 -7 l 1
 240 -2 196 0 158 0 c 3
 115 0 77 -2 36 -5 c 1
 34 14 l 1
 112 16 141 51 147 127 c 0
 148 142 173 537 172 563 c 0
 171 611 161 638 144 655 c 0
 122 677 88 680 38 686 c 1
 39 707 l 1
 102 704 192 700 240 703 c 1
 255 704 253 692 258 676 c 0
 282 596 427 323 526 141 c 1
 638 354 803 663 813 694 c 0
 814 699 817 703 823 703 c 0
 875 701 931 703 978 706 c 1
 978 686 l 1
 905 683 884 676 877 601 c 0xb0
 871 529 877 359 885 125 c 0
 889 35 915 24 984 19 c 1
 984 -3 l 1x68
EndSplineSet
Position2: "cpsp-1" dx=0 dy=0 dh=50 dv=100
Substitution2: "c2pc-1" m.pcap
Substitution2: "c2sc-1" m.smcp
EndChar
StartChar: N
Encoding: 78 78 39
Width: 897
VWidth: 1159
Flags: HW
HStem: -11 20<250.349 299.7> 685 17.2427<825.699 869> 690.5 20.5<36 74.9982 639 702.908>
VStem: 133.655 39.3449<44.7657 588.27> 745 38<153 299.352> 753.209 39.7912<396.818 626.255> 766 22<-10 12.2541>
AnchorPoint: "Top" 463 695 basechar 0
AnchorPoint: "Bottom" 449 -15 basechar 0
LayerCount: 2
Fore
SplineSet
36 711 m 1xb2
 93 699.5 144.09375 700.311523438 181 706.6015625 c 0
 182.889648438 706.923828125 184.9453125 706.956054688 186.5 704.41015625 c 0
 224.596679688 642.032226562 519.287109375 368.857421875 745 153 c 1xb8
 748.572265625 257.795898438 753.208984375 337.774414062 753.208984375 421.223632812 c 3xb4
 753.208984375 477.922851562 751.068359375 536.223632812 745 605 c 0
 740 659 730 687 637 695 c 1
 639 711 l 1xb8
 673.6640625 711.888671875 727.2578125 702.243164062 801.654296875 702.243164062 c 3
 822.8203125 702.243164062 845.348632812 703.010742188 869 705 c 1
 869 685 l 1
 819.5 685.5 797 668 793 599 c 0xd4
 786 432 783 294 783 101 c 0xd8
 783 87 787 -4 788 -10 c 1
 766 -11 l 1
 758.986328125 14.3359375 728.368164062 54.5888671875 682.228515625 104.794921875 c 0
 567.203125 229.961914062 355.7109375 416.995117188 173 589 c 1
 171 444 165.712890625 242.990234375 171 102 c 0
 172.5 62 174.5 26.5 301 9 c 1
 299 -11 l 1
 250.19140625 -4.56640625 207.978515625 -2.0703125 170.745117188 -2.0703125 c 3
 124.065429688 -2.0703125 85.2119140625 -5.9931640625 51 -11 c 1
 49 10.5 l 1
 120 16 127 24 128 106 c 0
 129.416015625 225.671875 133.655273438 413.610351562 133.655273438 523.017578125 c 3
 133.655273438 568.114257812 132.934570312 599.869140625 131 608 c 0
 120.954101562 650.215820312 97 684 36 690.5 c 1
 36 711 l 1xb2
EndSplineSet
Position2: "cpsp-1" dx=0 dy=0 dh=50 dv=100
Substitution2: "c2pc-1" n.pcap
Substitution2: "c2sc-1" n.smcp
EndChar
StartChar: O
Encoding: 79 79 40
Width: 793
VWidth: 1159
Flags: HW
HStem: -16 33<341.371 514.276> 685 33<297.104 456.595>
VStem: 23 82<266.508 463.741> 689 82<227.806 435.778>
AnchorPoint: "Bottom" 413 -15 basechar 0
AnchorPoint: "Top" 401 695 basechar 0
AnchorPoint: "Ogonek" 489 -2 basechar 0
LayerCount: 2
Fore
SplineSet
367 685 m 3
 226 685 105 569 105 407 c 3
 105 175 265 17 435 17 c 3
 601 17 689 166 689 304 c 3
 689 484 571 685 367 685 c 3
400 718 m 3
 607 718 771 552 771 349 c 3
 771 162 625 -16 411 -16 c 3
 95 -16 23 259 23 346 c 3
 23 566 218 718 400 718 c 3
EndSplineSet
Position2: "cpsp-1" dx=0 dy=0 dh=50 dv=100
Substitution2: "c2pc-1" o.pcap
Substitution2: "c2sc-1" o.smcp
EndChar
StartChar: P
Encoding: 80 80 41
Width: 595
VWidth: 1159
Flags: HW
HStem: -10 21<41.6667 77.512 248.617 301.401> 258 29<197.038 365.389> 686 32<205.607 367.179> 695 20<31 77.79>
VStem: 119 77<30.3146 267 289.664 315.623> 490 87<396.596 564.051>
AnchorPoint: "Bottom" 219 -15 basechar 0
AnchorPoint: "Top" 298 694 basechar 0
LayerCount: 2
Fore
SplineSet
282 287 m 3xec
 416 287 490 371 490 471 c 3
 490 568 445 632 383 664 c 0
 353 679 320 686 287 686 c 3
 205 686 205 671 204 665 c 0
 199 647 192 341 196 293 c 1
 218 288 252 287 282 287 c 3xec
31 711 m 1xdc
 41 711 86 708 141 708 c 3
 198 708 243 714 274 714 c 3xec
 431 714 577 621 577 472 c 3
 577 374 459 258 289 258 c 3
 247 258 218 262 196 267 c 1
 196 197 199 128 200 70 c 0
 201 23 216 27 305 12 c 1
 304 5 301 -4 300 -9 c 1
 269.445771718 -2.88915434357 219.961003655 0.62846668531 170.297737094 0.62846668531 c 3
 122.436171213 0.62846668531 74.4088231657 -2.63855707054 43 -10 c 1
 39 11 l 1
 126 28 119 49 119 77 c 0
 120.211102551 134.224595531 120.872166581 200.341480483 120.872166581 267.495600072 c 3
 120.872166581 422.136470637 117.366692347 582.277563773 109 652 c 0
 105 685 52 694 30 694 c 1
 31 711 l 1xdc
EndSplineSet
Position2: "cpsp-1" dx=0 dy=0 dh=50 dv=100
Substitution2: "c2pc-1" p.pcap
Substitution2: "c2sc-1" p.smcp
EndChar
StartChar: Q
Encoding: 81 81 42
Width: 825
VWidth: 1159
Flags: HW
HStem: -157 34<699 869.137> -12 30<365.009 432.581> 681 34<311.995 474.681>
VStem: 41 80<269.367 465.613> 702 83<226.697 445.832>
AnchorPoint: "Bottom" 393 -15 basechar 0
LayerCount: 2
Fore
SplineSet
390 681 m 3
 234 681 121 561 121 401 c 3
 121 208 251 18 455 18 c 3
 616 18 702 164 702 319 c 3
 702 527 536 681 390 681 c 3
534 9 m 1
 611 -55 746 -123 836 -123 c 3
 857 -123 875 -120 892 -116 c 1
 895 -134 l 1
 853 -144 804 -157 740 -157 c 3
 658 -157 500 -89 416 -12 c 1
 107 -12 41 266 41 347 c 3
 41 551 223 715 417 715 c 3
 598 715 785 570 785 346 c 3
 785 187 679 58 534 9 c 1
EndSplineSet
Position2: "cpsp-1" dx=0 dy=0 dh=50 dv=100
Substitution2: "salt-1" Q.alt
Substitution2: "c2pc-1" q.pcap
Substitution2: "c2sc-1" q.smcp
EndChar
StartChar: R
Encoding: 82 82 43
Width: 765
Flags: HMW
HStem: -34 18<715.141 760> -15 21<238.873 275.333> 333 25<190.186 311.406> 678 21<31 89.864>
VStem: 106 83<27.267 311.306> 107 91<473.918 669.555> 469 86<439.59 588.412>
AnchorPoint: "Bottom" 358 -15 basechar 0
AnchorPoint: "Top" 315 684 basechar 0
LayerCount: 2
Fore
SplineSet
189 372 m 1xfa
 212 368 262 365 296 365 c 3
 429 365 469 449 469 511 c 3
 469 562 440 693 284 693 c 3
 243 693 199 686 198 659 c 0xf6
 191 550 188 440 189 372 c 1xfa
31 706 m 1
 45 706 85 701 135 701 c 3
 200 701 245 717 311 717 c 3
 476 717 555 608 555 529 c 3
 555 413 448 365 401 354 c 1
 536 154 639 -13 760 -9 c 1
 760 -27 l 1
 564 -48 428 159 309 342 c 1
 303 341 294 340 287 340 c 3
 256 340 216 344 189 349 c 1
 188 258 189 164 194 56 c 0
 195 24 241 22 278 10 c 1
 274 -11 l 1
 243 -2 204 0 164 0 c 3
 115 0 67 -2 34 -8 c 1
 31 12 l 1
 70 16 105 32 106 70 c 0xfa
 110 171 115 286 115 401 c 3
 115 479 113 558 107 638 c 0
 105 680 77 685 28 685 c 1
 31 706 l 1
EndSplineSet
Position2: "cpsp-1" dx=0 dy=0 dh=50 dv=100
Substitution2: "salt-1" R.alt
Substitution2: "c2pc-1" r.pcap
Substitution2: "c2sc-1" r.smcp
EndChar
StartChar: S
Encoding: 83 83 44
Width: 532
VWidth: 1159
Flags: HW
HStem: -14 32<191.142 375.847> -5 21G<52 71.5> 683 21<223.309 353.769>
VStem: 52 19<-2 14.1074> 64 66<479.982 592.81> 439 70<90.2823 217.985> 476 14<539.966 567.52 688.109 697.5>
AnchorPoint: "Bottom" 287 -15 basechar 0
AnchorPoint: "Top" 285 675 basechar 0
LayerCount: 2
Fore
SplineSet
21 181 m 1x74
 39 185 l 1
 56 122 76 91 92 77 c 0
 118 56 203 18 300 18 c 3
 390 18 439 77 439 146 c 3xb4
 439 271 325 292 223 338 c 0
 201 348 64 399 64 516 c 3
 64 618 153 710 287 710 c 3
 347 710 380 701 411 692 c 0
 444 683 469 687 480 705 c 1
 492 702 l 1
 481 623 476 634 490 557 c 0
 491 547 491 546 476 545 c 1xaa
 470 588 450 623 423 644 c 0
 396 665 344 689 290 689 c 3
 194 689 130 635 130 560 c 3
 130 455 227 423 304 393 c 0
 354 373 509 330 509 175 c 3
 509 59 390 -14 288 -14 c 3xac
 148 -14 98 16 81 16 c 0
 75 16 72 12 71 -5 c 1
 52 -2 l 1
 56 42 51 74 21 181 c 1x74
EndSplineSet
Position2: "cpsp-1" dx=0 dy=0 dh=50 dv=100
Substitution2: "c2pc-1" s.pcap
Substitution2: "c2sc-1" s.smcp
EndChar
StartChar: T
Encoding: 84 84 45
Width: 744
VWidth: 1159
Flags: HMW
HStem: -12 22<223.277 267.753> 657 38<429 632.242> 695 20G<63.5 76>
VStem: 333 90<37.5695 314.818>
AnchorPoint: "Bottom" 383 -15 basechar 0
AnchorPoint: "Top" 376 670 basechar 0
LayerCount: 2
Fore
SplineSet
106 696 m 0xb0
 128.56921585 693.870828693 235.459122124 693.192335932 352.076572161 693.192335932 c 3
 509.315550854 693.192335932 684.239182442 694.425834261 694 695 c 0xb0
 714 696 729 702 736 704 c 1
 743 699 l 1
 727 661 722 655 708 576 c 1
 684 582 l 1
 686 592 699 624 694 629 c 0
 663 665 550 661 429 657 c 1xd0
 424.722534342 520.121098942 420.953310697 351.222951086 420.953310697 226.03279657 c 3
 420.953310697 175.618752914 421.564554715 132.292707212 423 101 c 0
 427 24 454 25 538 18 c 1
 533 -9 l 1
 486.428929646 0.314214070874 437.693912758 4.3169230137 390.285072497 4.3169230137 c 3
 330.805061169 4.3169230137 273.412541706 -1.98361206075 225 -12 c 1
 223 -6 223 0 219 10 c 1
 317 30 332 35 333 66 c 0
 338.324889099 155.990625776 342.799144881 304.391406025 342.799144881 430.425756652 c 3
 342.799144881 541.080561947 339.350221802 634.494489856 330 656 c 1
 312 660 134.501 670.251 84 645 c 0
 66 636 52 630 34 582 c 1
 17 588 l 1
 48 654 61 690 66 715 c 1
 86 715 78 698 106 696 c 0xb0
EndSplineSet
Position2: "cpsp-1" dx=0 dy=0 dh=50 dv=100
Substitution2: "c2pc-1" t.pcap
Substitution2: "c2sc-1" t.smcp
EndChar
StartChar: U
Encoding: 85 85 53
Width: 844
VWidth: 1159
Flags: HW
HStem: -16 33<321.712 539.917> 688 19<41.2632 97.625 234.522 304 754.19 805>
VStem: 120 75<119.571 665.877>
AnchorPoint: "Bottom" 422 -15 basechar 0
AnchorPoint: "Top" 432 671 basechar 0
AnchorPoint: "Ogonek" 519 -2 basechar 0
LayerCount: 2
Fore
SplineSet
42 707 m 1
 76.4208984375 702.813476562 117.1171875 701.223632812 159.357421875 701.223632812 c 3
 207.926757812 701.223632812 258.538085938 703.326171875 304 706 c 1
 305 686 l 1
 230 686 205 679 200 615 c 0
 190 503 194 374 195 235 c 1
 195 180 204 139 222 108 c 0
 255 54 322 17 427 17 c 0
 540 17 615 59 642 96 c 0
 667 130 680 177 687 257 c 0
 697 357 704 509 684 647 c 0
 679 681 644 683 594 683 c 1
 595 705 l 1
 611.666992188 702.333007812 679.888671875 700.111328125 737.1484375 700.111328125 c 3
 765.77734375 700.111328125 791.666992188 700.666992188 807 702 c 1
 805 684 l 1
 755 688 732 680 732 637 c 0
 731 525 732 389 718 256 c 0
 711 179 700 125 666 76 c 0
 628 22 534 -16 422 -16 c 0
 298 -16 237 5 177 62 c 0
 141 95 116 139 120 232 c 0
 125 391 122 575 117 630 c 0
 111 689 97 682 40 688 c 1
 42 707 l 1
EndSplineSet
Position2: "cpsp-1" dx=0 dy=0 dh=50 dv=100
Substitution2: "c2pc-1" u.pcap
Substitution2: "c2sc-1" u.smcp
EndChar
StartChar: V
Encoding: 86 86 54
Width: 805
Flags: HW
HStem: 683 21<5 53.7285 187.178 249 602.526 647.654 761.845 800>
AnchorPoint: "Top" 423 695 basechar 0
AnchorPoint: "Bottom" 407 -15 basechar 0
LayerCount: 2
Fore
SplineSet
249 707 m 1
 252 688 l 1
 200 687 182 680 182 669 c 0
 182 664 187 645 194 627 c 0
 258 472 316 350 429 114 c 1
 559 383 597 463 652 603 c 0
 661 626 664 643 664 654 c 0
 664 671 639 690 600 690 c 1
 603 710 l 1
 647 706 695 704 736 704 c 3
 761 704 783 705 800 706 c 1
 801 691 l 1
 754 684 725 656 702 608 c 0
 674 550 517 227 455 92 c 0
 443 66 428 21 417 -17 c 1
 401 -17 l 1
 391 7 375 42 355 86 c 0
 271 266 123 572 112 593 c 0
 71 672 64 687 4 686 c 1
 5 708 l 1
 35 705 85 704 135 704 c 3
 178 704 220 705 249 707 c 1
EndSplineSet
Position2: "cpsp-1" dx=0 dy=0 dh=50 dv=100
Substitution2: "c2pc-1" v.pcap
Substitution2: "c2sc-1" v.smcp
EndChar
StartChar: W
Encoding: 87 87 55
Width: 1079
VWidth: 1159
Flags: HW
HStem: 692 20<4 52.9811 233.755 281.9 401 437.96 599.181 660 813 879.378 1030.1 1079>
VStem: 716 25<-22 19.2261>
AnchorPoint: "Bottom" 535 -15 basechar 0
AnchorPoint: "Top" 545 693 basechar 0
LayerCount: 2
Fore
SplineSet
1079 706 m 1
 1079 689 l 1
 1012 690 979 630 958 572 c 0
 893 392 809 182 766 57 c 0
 754 23 746 -4 741 -22 c 1
 716 -22 l 1
 716 -14 705 22 688 73 c 0
 650 186 582 369 552 455 c 1
 455 250 406 116 375 25 c 0
 369 7 364 -8 359 -23 c 1
 342 -23 l 1
 328 16 313 60 297 107 c 0
 245 259 183 442 126 584 c 0
 113 616 102 639 91 654 c 0
 71 681 50 687 4 691 c 1
 4 708 l 1
 70 709 106 702 150 702 c 3
 178 702 216 705 281 712 c 1
 284 692 l 1
 241 688 196 675 196 648 c 0
 196 628 199 621 204 605 c 0
 229 530 332 241 379 133 c 1
 536 498 l 1
 524 536 485 616 467 649 c 0
 450 680 441 688 400 687 c 1
 401 707 l 1
 453 704 490 703 524 703 c 3
 569 703 606 705 660 709 c 1
 660 689 l 1
 639 688 612 686 597 678 c 0
 567 663 569 649 577 622 c 1
 614 511 683 300 757 133 c 1
 819 273 898 500 921 602 c 0
 935 663 879 687 812 689 c 1
 813 707 l 1
 864 705 903 704 957 704 c 3
 990 704 1029 704 1079 706 c 1
EndSplineSet
Position2: "cpsp-1" dx=0 dy=0 dh=50 dv=100
Substitution2: "c2pc-1" w.pcap
Substitution2: "c2sc-1" w.smcp
EndChar
StartChar: X
Encoding: 88 88 56
Width: 758
VWidth: 1159
Flags: HW
HStem: -7.5 23<486.5 541.825 693.494 745> 688 16<660.755 707.5> 695.5 15.5<31.5 75.4415 240.435 284.5 471.265 511.631>
AnchorPoint: "Bottom" 381 -15 basechar 0
AnchorPoint: "Top" 380 686 basechar 0
LayerCount: 2
Fore
SplineSet
32 709 m 1xa0
 50 709 77 704 169 704 c 3
 200 704 237 704 284 706 c 1
 284 689 l 1
 269 689 251 689 242 686 c 0
 225 681 223 668 232 652 c 0
 252 616 325 500 400 404 c 1
 469 490 495 528 542 613 c 0
 555 635 553 662 534 676 c 0
 520 686 499 692 470 693 c 1
 472 710 l 1xa0
 516 704 545 701 602 701 c 3
 629 701 664 702 708 703 c 1
 708 687 l 1xc0
 667 689 659 683 634 661 c 0
 604 634 474 459 416 383 c 1
 519 242 594 138 668 46 c 0
 698 9 706 13 746 10 c 1
 746 -10 l 1
 708 -5 669 -3 627 -3 c 3
 582 -3 534 -5 486 -9 c 1
 486 8 l 1
 503 9 527 13 539 19 c 0
 568 33 551 59 536 84 c 0
 490 158 432 238 372 325 c 1
 302 235 245 156 212 104 c 0
 198 82 184 56 210 29 c 0
 225 14 259 8 275 7 c 1
 272 -12 l 1
 234 -4 187 -2 143 -2 c 3
 88 -2 39 -6 20 -8 c 1
 19 12 l 1
 80 10 112 47 126 61 c 0
 181 114 302 279 356 345 c 1
 292 436 218 538 138 633 c 0
 97 681 73 695 31 694 c 1
 32 709 l 1xa0
EndSplineSet
Position2: "cpsp-1" dx=0 dy=0 dh=50 dv=100
Substitution2: "c2pc-1" x.pcap
Substitution2: "c2sc-1" x.smcp
EndChar
StartChar: Y
Encoding: 89 89 57
Width: 737
VWidth: 1159
Flags: HW
HStem: -12 21.5<252.512 307.555 485.31 522.5> 690 18<14.5 68.8147 217.388 278 687.535 725.5> 696.5 20G<497.167 523.25>
VStem: 345.5 83<27.9743 355.681>
AnchorPoint: "Top" 385 695 basechar 0
AnchorPoint: "Bottom" 387 -15 basechar 0
LayerCount: 2
Fore
SplineSet
278 688 m 1xd0
 248.181640625 688.424804688 237.079101562 686.611328125 227 683.625 c 0
 202.581054688 676.390625 203.845703125 652.98046875 218.5 631 c 0
 241.5 595 366.5 425 410.5 366 c 1
 484.327148438 475.587890625 535.916015625 551.282226562 575.91796875 627.200195312 c 0
 586.606445312 647.486328125 577.5 662 559 674.240234375 c 0
 546.768554688 682.333007812 521.260742188 689.666015625 496.5 690.5 c 1
 500.5 710.5 l 1xb0
 528.620117188 702.84765625 580.232421875 699.869140625 633.498046875 699.869140625 c 3
 666.41796875 699.869140625 699.970703125 702.15234375 729 707.5 c 1
 725.5 690 l 1
 682.5 684 644.5 663 612.5 617 c 0
 553.5 535 476.5 420 426.5 335 c 1
 426.5 270 423.71875 115.922851562 428.5 61 c 0
 431.814453125 22.93359375 432.5 26.5 523.5 10 c 1
 522.5 -11 l 1
 491.505859375 -4.2841796875 439.4296875 -0.2373046875 386.60546875 -0.2373046875 c 3
 337.170898438 -0.2373046875 287.081054688 -3.7822265625 253 -12 c 1
 251.5 9.5 l 1
 296 16.5 344.059570312 12.2841796875 345.5 67 c 1
 349.5 146 347.5 245 345.5 320 c 1
 309.5 385 179.5 566 116.5 639 c 0
 78.5 682 57.5 689 14.5 689 c 1
 14.5 710 l 1
 69.7685546875 706.359375 122.188476562 703.814453125 181.185546875 703.814453125 c 3
 211.322265625 703.814453125 243.174804688 704.478515625 278 706 c 1
 278 688 l 1xd0
EndSplineSet
Position2: "cpsp-1" dx=0 dy=0 dh=50 dv=100
Substitution2: "c2pc-1" y.pcap
Substitution2: "c2sc-1" y.smcp
EndChar
StartChar: Z
Encoding: 90 90 58
Width: 766
VWidth: 1159
Flags: HW
HStem: 0 36<187.25 604.739> 649 36.951<457.703 579.25> 656 34<145.302 574.862> 698.453 20G<90.625 106.25>
AnchorPoint: "Bottom" 382 -15 basechar 0
AnchorPoint: "Top" 386 660 basechar 0
LayerCount: 2
Fore
SplineSet
47 579 m 1xb0
 112 731 78 723 104 726 c 1
 109 710 121 699 159 698 c 0xb0
 382 692 582 697 680 698 c 0
 692 698 696 701 702 703 c 1
 710 691 l 1
 706 687 701 685 699 681 c 0
 566 514 374 253 187 36 c 1
 292 27 428 30 454 31 c 0
 598 38 679 65 722 144 c 1
 738 134 l 1
 714 93 684 25 665 -23 c 1
 643 -22 660 -6 637 -5 c 0
 505 3 253 1 56 0 c 1
 53 8 l 1
 82 38 112 72 144 107 c 0
 295 278 469 501 576 657 c 0
 577 658 578 660 579 661 c 1xd0
 487 670 291 668 242 664 c 0
 145 657 114 650 60 564 c 1
 47 579 l 1xb0
EndSplineSet
Position2: "cpsp-1" dx=0 dy=0 dh=50 dv=100
Substitution2: "c2pc-1" z.pcap
Substitution2: "c2sc-1" z.smcp
EndChar
StartChar: bracketleft
Encoding: 91 91 85
Width: 246
Flags: HW
HStem: -230 17<130.545 219> 700 17<137.917 219>
VStem: 37 43<-202 688>
LayerCount: 2
Fore
SplineSet
80 688 m 1
 80 -202 l 1
 219 -213 l 1
 219 -230 l 1
 37 -230 l 1
 37 717 l 1
 219 717 l 1
 219 700 l 1
 80 688 l 1
EndSplineSet
Position2: "cpsp-1" dx=0 dy=0 dh=50 dv=100
Position2: "'case' vertical ajustments for all-caps-1" dx=0 dy=90 dh=0 dv=0
EndChar
StartChar: asciicircum
Encoding: 94 94 872
Width: 463
VWidth: 1159
Flags: W
HStem: 394.451 301.052
VStem: 79.749 303.814
LayerCount: 2
Fore
SplineSet
383.563476562 401.09765625 m 1
 366.88671875 394.451171875 l 1
 231.65625 603.27734375 l 5
 96.42578125 394.451171875 l 1
 79.7490234375 401.09765625 l 1
 220.166992188 695.502929688 l 1
 243.145507812 695.502929688 l 1
 383.563476562 401.09765625 l 1
EndSplineSet
Validated: 1
EndChar
StartChar: underscore
Encoding: 95 95 338
Width: 463
Flags: HW
HStem: -239.937 34.8742<0 463>
LayerCount: 2
Back
SplineSet
0 -238 m 29
 0 -207 l 29
 463 -207 l 29
 463 -238 l 29
 0 -238 l 29
EndSplineSet
Fore
Refer: 1968 58114 N 0.463 0 0 0.968729 0 -222.5 2
EndChar
StartChar: a
Encoding: 97 97 0
Width: 385
VWidth: 1159
Flags: HMW
HStem: -18 40<289 347.036> -17 32<66 170.18> 162 24<170.375 244.719> 376 32<142.099 224.5>
VStem: 32 58<23.793 131.62> 49 59<315.642 355.233> 243 63<56.5717 161.987 182.751 271.326> 250 61<145.38 335.214>
AnchorPoint: "Bottom" 198 -15 basechar 0
AnchorPoint: "Top" 195 489 basechar 0
AnchorPoint: "Ogonek" 339 18 basechar 0
LayerCount: 2
Fore
SplineSet
245 165 m 1x7a
 239 166 234 168 219 168 c 3
 188 168 148.07690366 159.843663061 136 154 c 0
 105 139 90 116 90 80 c 3
 90 43 109 21 141 21 c 3
 167 21 218 35 245 62 c 1
 244 74 243 98.5869 243 122 c 3
 243 138.788 244 153 245 165 c 1x7a
211 414 m 3
 238 414 287.035916536 374.586852143 299 348 c 0
 308 328 311 311 311 254 c 3x75
 311 210 306 174 306 106 c 3
 306 86 307.57417738 66.8946829407 310 58 c 0
 316 36 328 28 339 28 c 3
 348 28 364 33 381 40 c 1
 385 24 l 1
 346.8125 8.57142857143 295.895833333 -12 291 -12 c 3xb2
 287 -12 257 -2 247 44 c 1
 195 13 148 -11 91 -11 c 3
 41 -11 32 23 32 70 c 3x7a
 32 93 38.8470368745 112.388147498 42 125 c 0
 43 129 49.3429689989 135.295917483 54 138 c 0
 116 174 174 182 247 192 c 1
 247 226 250 264 250 278 c 0
 250 304 246.660960058 322.462327193 236 337 c 0
 225 352 194 382 161 382 c 3
 130 382 108 365 108 342 c 3
 108 333 110 328 112 323 c 1
 55 299 l 1
 51 309 49 316 49 326 c 3x75
 49 340 56.1350850373 350.813531864 70 361 c 0
 119 397 186 414 211 414 c 3
EndSplineSet
Substitution2: "case-1" A
Substitution2: "pcap-1" a.pcap
Substitution2: "smcp-1" a.smcp
EndChar
StartChar: b
Encoding: 98 98 1
Width: 467
Flags: HMW
HStem: -12 29<169.699 271.885> -7 21G<31 45> 370 35<184.53 286.926> 667 7<-12 -5.3772>
VStem: 50 58<53.7357 347.497 352 575.344> 381 65<127.855 267.145>
AnchorPoint: "Bottom" 226 -15 basechar 0
AnchorPoint: "Top" 77 749 basechar 0
LayerCount: 2
Fore
SplineSet
108 337 m 1xbc
 103 92 l 2
 102.673605329 76.0066611157 109.1509389 69.1898621438 118 62 c 0
 150 36 194 17 238 17 c 3
 324 17 381 81 381 171 c 3
 381 239 340 370 217 370 c 3
 170 370 144 355 108 337 c 1xbc
-14 674 m 1
 32 690 78 717 115 744 c 1
 127 737 l 1
 121 711.88372093 116.965516139 684.910329176 115 657 c 0
 110 586 108 454 108 352 c 1
 144 368 202 405 264 405 c 3
 366 405 446 306 446 215 c 3
 446 82 311 -12 193 -12 c 3xbc
 145 -12 115 10 79 10 c 0
 66.0243902439 10 53.9756097561 4.70588235294 41 -8 c 1x7c
 31 -2 l 1
 35 8 37.9395915408 17.0111548841 40 28 c 0
 46 60 45.6893849586 99.0092025189 47 138 c 0
 51 257 51.819745974 431.012701301 50 522 c 0
 49 572 48.6246387142 597.053901887 44 647 c 0
 43 657.8 37.9248876718 666.160407306 24 665 c 2
 -12 662 l 1
 -14 674 l 1
EndSplineSet
Substitution2: "case-1" B
Substitution2: "pcap-1" b.pcap
Substitution2: "smcp-1" b.smcp
EndChar
StartChar: c
Encoding: 99 99 2
Width: 405
Flags: HMW
HStem: -5 37<196.003 313.637> 374 47<173.241 297.231>
VStem: 32 61<136.013 275.84>
AnchorPoint: "Bottom" 219 -15 basechar 0
AnchorPoint: "Top" 233 493 basechar 0
LayerCount: 2
Fore
SplineSet
337 323 m 1
 303 339 250 362 206 362 c 3
 126 362 93 297 93 218 c 3
 93 116 160 20 271 20 c 3
 305 20 344 34 371 52 c 1
 381 40 l 1
 343 13 290 -17 228 -17 c 3
 180 -17 32 3 32 168 c 3
 32 293 144 409 258 409 c 3
 304 409 347 392 385 371 c 1
 357 325 358 321 337 323 c 1
EndSplineSet
Substitution2: "pcap-1" c.pcap
Substitution2: "smcp-1" c.smcp
EndChar
StartChar: d
Encoding: 100 100 3
Width: 500
VWidth: 1159
Flags: HMW
HStem: 0 39<178.96 290.797> 373 33<199.285 321.34> 667 18<308.444 329.397> 733 20G<426.5 456>
VStem: 35 52<136.267 271.943> 367 61<11.5684 57 62.6121 342.5> 368 71<11.9114 56.2983 416.973 620.773>
AnchorPoint: "Bottom" 227 -15 basechar 0
AnchorPoint: "TopRight" 481.5 531 basechar 0
AnchorPoint: "Top" 368 734 basechar 0
LayerCount: 2
Fore
SplineSet
352 57 m 1xfa
 306 31 254 0 186 0 c 3
 85 0 22 81 22 181 c 3
 22 293 99.7022965483 351.669010481 180 387 c 0
 205 398 231 406 258 406 c 3
 295 406 329 395 360 386 c 1
 365 475 366 568 357 653 c 0
 355.609021768 666.137016634 351.95665593 675.295146067 338.746418352 675.295146067 c 3
 326.871199559 675.295146067 308.358898908 671.840218219 297 671 c 1
 293 683 l 1
 336 698.441176471 395 727.264705882 432 753 c 1
 443 747 l 1
 439 721 434.44223859 679.970220968 432 647 c 0
 418 458 415 188 415 155 c 3xfc
 415 107 419.978372313 64.1513938085 426 22 c 0
 427 15 431 10 440 12 c 0
 495 30 l 1
 500 14 l 1
 466 3 382 -30 370 -30 c 3
 360 -30 355.800994957 1.98507565235 355 14 c 0
 354 29 352 42 352 57 c 1xfa
222 373 m 3
 189 373 164.146651741 361.766837569 142 348 c 0
 105 325 74 289 74 231 c 3
 74 128 140 39 240 39 c 3
 284 39 326 56 354 76 c 1
 353 130 356 214.99537047 356 323 c 0
 356 337 351.219380404 343.664508529 340 347 c 0
 303 358 266 373 222 373 c 3
EndSplineSet
Substitution2: "case-1" D
Substitution2: "pcap-1" d.pcap
Substitution2: "smcp-1" d.smcp
EndChar
StartChar: e
Encoding: 101 101 4
Width: 414
Flags: HMW
HStem: -7.35581 36.779<186.726 300.798> 395.112 21.0166<177.36 243.956>
VStem: 35.7282 64.1006<115.887 236.107 247.996 296.702>
AnchorPoint: "Bottom" 210 -15 basechar 0
AnchorPoint: "Top" 215.18 491.68 basechar 0
AnchorPoint: "Ogonek" 306.175 23.3447 basechar 0
LayerCount: 2
Fore
SplineSet
220.254882812 401.940429688 m 3
 287.245117188 401.940429688 336.98046875 361.33984375 365.400390625 313.634765625 c 0
 370.474609375 304.5 371.490234375 300.440429688 389.759765625 291.3046875 c 1
 388.745117188 281.155273438 l 1
 292.980032681 263.900390625 192.174476383 243.599609375 98.4248046875 223.299804688 c 1
 98.4248046875 218.224609375 98.4248046875 212.134765625 98.4248046875 207.059570312 c 3
 98.4248046875 110.634765625 152.510513801 28.419921875 247.66015625 28.419921875 c 3
 295.365234375 28.419921875 341.040039062 50.75 372.504882812 71.0498046875 c 1
 379.610351562 60.900390625 l 1
 336.98046875 27.4052734375 271.004882812 -7.10546875 205.030273438 -7.10546875 c 3
 98.455078125 -7.10546875 34.509765625 80.1845703125 34.509765625 187.775390625 c 3
 34.509765625 330.889648438 145.14453125 401.940429688 220.254882812 401.940429688 c 3
188.790039062 381.639648438 m 0
 124.259871756 379.610351562 101.425297322 305.514648438 99.4404296875 239.540039062 c 1
 273.03515625 278.110351562 l 2
 288.703952236 282.169921875 310.248311166 285.21484375 300.455078125 307.544921875 c 0
 283.353347372 345.099609375 241.101841767 382.655273438 188.790039062 381.639648438 c 0
EndSplineSet
Substitution2: "pcap-1" e.pcap
Substitution2: "smcp-1" e.smcp
EndChar
StartChar: f
Encoding: 102 102 5
Width: 302
VWidth: 1159
Flags: HMW
HStem: -4 22<18 42 164.811 250> 373 27<20 90 157 307> 707 43<248.897 359.422>
VStem: 90 66<24.4249 373 400 587.19>
AnchorPoint: "Bottom" 136 -15 basechar 0
AnchorPoint: "Top" 252 748 basechar 0
LayerCount: 2
Fore
SplineSet
328 750 m 3
 361 750 392 741 422 727 c 1
 437 711 407 676 400 672 c 1
 352 687 311 707 272 707 c 3
 186 707 170.824779995 604.160127661 162 535 c 0
 156 486.955555556 156 443.088888888 156 394 c 1
 307 394 l 1
 307 366 l 1
 157 371 l 1
 157 307.663212435 156 243.336787565 156 180 c 0
 156 132.666666667 158.914206116 82.6579234213 163 38 c 0
 164.350820509 21.5302673494 183.976203958 17.1 205 16 c 0
 210.993224165 15.4298627942 240 14 250 12 c 1
 250 -2 l 1
 217 -2 172 2 139 2 c 3
 100 2 47 -2 18 -4 c 1
 18 11 l 1
 42 14 l 0
 84 20.1714285714 87.3224767817 42.7933764797 88 86 c 0
 89 148 90 210 90 273 c 0
 90 303.38 90 340.62 90 371 c 1
 67 370 41 368 20 367 c 1
 20 394 l 1
 91 394 l 1
 92 453.1375 93.1413711931 509.130987994 104 560 c 0
 119 629 156.700692095 663.065235131 205 700 c 0
 239 726 274 750 328 750 c 3
EndSplineSet
Substitution2: "salt-1" f.alt
Substitution2: "case-1" F
Substitution2: "pcap-1" f.pcap
Substitution2: "smcp-1" f.smcp
EndChar
StartChar: g
Encoding: 103 103 6
Width: 447
Flags: HMW
HStem: -323 40<110.064 270.233> -89 55<147.956 371.536> 347 43<358.789 436.304> 390 26<167.45 250.397>
VStem: 18.7773 34<-229.937 -152.098> 40.7773 49<187.132 309.988> 61.7773 68<-23.4815 21.1121> 324.777 60<161.777 315.908> 392.777 46<-204.458 -109.454>
AnchorPoint: "Top" 212.777 483 basechar 0
LayerCount: 2
Fore
SplineSet
129.777 2 m 3xe380
 129.777 -31 192.777 -34 222.777 -34 c 3
 247.777 -34 270.777 -32 295.777 -32 c 3
 371.777 -32 438.777 -64 438.777 -140 c 3
 438.777 -256 258.777 -323 163.777 -323 c 3
 88.7773 -323 18.7773 -285 18.7773 -209 c 3
 18.7773 -146 77.7773 -97 120.777 -71 c 1
 95.7773 -61 61.7773 -24 61.7773 2 c 3xeb80
 61.7773 17 93.7773 23 172.777 64 c 1
 103.777 85 40.7773 147 40.7773 228 c 3
 40.7773 330 136.777 416 228.777 416 c 3xd580
 267.777 416 303.777 401 331.777 380 c 1
 352.777 385 376.777 390 402.777 390 c 3
 414.777 390 441.777 390 451.777 386 c 1
 453.777 364 441.777 341 436.777 335 c 1
 426.777 339 410.777 342 400.777 343 c 0
 386.777 345 372.777 347 357.777 347 c 1
 372.777 315 384.777 282 384.777 239 c 3
 384.777 137 299.777 101 229.777 69 c 0
 166.777 39 129.777 22 129.777 2 c 3xe380
200.777 390 m 3xd580
 134.777 390 89.7773 334 89.7773 266 c 0
 89.7773 177 163.777 109 237.777 92 c 1
 287.777 107 324.777 150 324.777 214 c 3
 324.777 294 286.777 390 200.777 390 c 3xd580
52.7773 -183 m 3xc980
 52.7773 -253 134.777 -283 202.777 -283 c 3
 265.777 -283 392.777 -251 392.777 -170 c 3
 392.777 -93 335.777 -87 298.777 -87 c 3
 278.777 -87 259.777 -89 238.777 -89 c 3
 206.777 -89 171.777 -86 146.777 -81 c 1
 104.777 -98 52.7773 -133 52.7773 -183 c 3xc980
EndSplineSet
Substitution2: "pcap-1" g.pcap
Substitution2: "smcp-1" g.smcp
EndChar
StartChar: h
Encoding: 104 104 7
Width: 482
Flags: HMW
HStem: -4 14<303.5 329> 0 14<3 27 162.375 200 462.818 493> 360 46<216.849 322.91>
VStem: 57 68<52.802 293.893> 68 74<446.97 682.339> 359 64<25.1175 318.505>
AnchorPoint: "Bottom" 250 -15 basechar 0
AnchorPoint: "Top" 90 733 basechar 0
LayerCount: 2
Fore
SplineSet
130 328 m 1xac
 126 255 125 185 125 111 c 3
 125 92.6949152542 122.150257836 68.3238397367 126 51 c 0
 130 31.8 139 23.2666666667 157 19 c 0
 200 12 l 1
 200 -2 l 1
 173 0 140 0 114 0 c 3
 78 0 34 -1 3 -2 c 1
 2 10 l 1
 27 17 l 0
 48 23.4186046512 55.8790165049 35.1913259858 57 63 c 0x74
 64 225.326612903 68 390.659274194 68 560 c 3
 68 586 68 609.980007994 68 635 c 0
 68 657 63 683 40 683 c 3
 27.4 683 14.8 674.818181818 4 673 c 1
 0 687 l 1
 69.0413793103 716.583333333 98.2137931034 724.472222222 141 758 c 1
 155 749 l 1
 149 731 143.13463159 703.992015206 142 686 c 0
 135 575 131 460 130 344 c 1
 178 371 257 406 307 406 c 3
 364 406 406.936107071 364.135214812 415 305 c 0
 421 261 423 207 423 157 c 3
 423 120 420 86 420 50 c 0
 420 28.24 431 21.6266666667 445 18 c 0
 480 11 l 1
 480 -2 l 1
 456.988636364 -1 428.011363636 0 405 0 c 3x6c
 373 0 337 -2 305 -4 c 1
 302 8 l 1
 329 15 l 0
 343 19.3076923077 347.733033251 26.8870978771 350 43 c 0
 355 76 359 111 359 145 c 3
 359 188 355.67087499 228.962125091 351 271 c 0
 345 325 321 360 259 360 c 3
 209 360 164 348 130 328 c 1xac
EndSplineSet
Substitution2: "case-1" H
Substitution2: "pcap-1" h.pcap
Substitution2: "smcp-1" h.smcp
EndChar
StartChar: k
Encoding: 107 107 10
Width: 475
VWidth: 1159
Flags: HMW
HStem: -1 16<-1 18.8 151.504 188 284 322.093 442.358 475> 387 14<230 254.764 398.379 429> 733 20G<113 145>
VStem: 65 73<449.539 675.703> 68 59<25.5973 213 240 463.75>
AnchorPoint: "Bottom" 230 -15 basechar 0
AnchorPoint: "Top" 113 739 basechar 0
LayerCount: 2
Fore
SplineSet
127 236 m 1xe8
 171 256.543945312 213.901936589 289.902762195 251 326 c 0
 260.122070312 334.875976562 269 349 269 356 c 3
 269 364.280273438 260 375.3203125 230 379 c 1
 230 393 l 1
 267 393 309 391 346 391 c 3
 372 391 403 393 429 393 c 1
 429 379 l 1
 371 374 332.901337445 349.128949846 299 326 c 2
 192 253 l 1
 268 174.708984375 346.472007363 103.161108639 426 32 c 0
 437.61259144 21.6091319087 439 18.7368421053 475 11 c 1
 475 -3 l 1
 443 -2 402 0 368 0 c 3
 341 0 311 -1 284 -2 c 1
 283 11 l 1
 303 13.2666666667 325 12.1333333333 325 28 c 3
 325 32.9482421875 317 47.79296875 142 219 c 1
 127 209 l 1
 126 148.467773438 128.71875 81.9921875 132 44 c 0
 133.099343057 31.2711778877 136.992110445 26.6925042035 146 22 c 0
 155.213867188 17.2001953125 168.5234375 14.7998046875 189 10 c 1
 188 -2 l 1
 168.302734375 -2 142.697265625 1 123 1 c 3
 84.943359375 1 40.056640625 1 2 -2 c 1
 2 11 l 1
 32 18 l 2
 53.0554013692 22.9129269861 60.7523556068 35.8013522289 62 63 c 0
 67 172 68 281 68 390 c 3xe8
 68 467 68.0718723242 545.035635222 65 622 c 0
 64 647.054545455 62 675 35 675 c 3
 23 675 11 670.555555556 0 667 c 1
 -4 679 l 1
 44 702 91 719 135 753 c 1
 145 748 l 1
 141 727 139.73181874 702.950162899 138 683 c 0xf0
 126 544.762695312 129 380.291015625 127 236 c 1xe8
EndSplineSet
Substitution2: "case-1" K
Substitution2: "pcap-1" k.pcap
Substitution2: "smcp-1" k.smcp
EndChar
StartChar: l
Encoding: 108 108 11
Width: 241
VWidth: 1159
Flags: HMW
HStem: -2 14<4.25 23 211.375 237> 667 16<21 38.9013> 733 20G<140.5 168>
VStem: 87 63<43.9746 563.918>
AnchorPoint: "Bottom" 122 -15 basechar 0
AnchorPoint: "Top" 113 734 basechar 0
AnchorPoint: "TopRight" 234 531 basechar 0
LayerCount: 2
Fore
SplineSet
150 274 m 3
 150 206 150.155184509 140.004589498 152 75 c 0
 153 39.7636363636 165.040644935 23.2857435476 196 18 c 2
 237 11 l 1
 237 -3 l 1
 215 -3 171 0 140 0 c 3
 97 0 47 -0.666666666667 5 -2 c 1
 2 11 l 1
 23 16 l 2
 61.6516636631 25.2027770626 80.6106416608 53.0181540462 83 102 c 0
 87 184 87 311 87 338 c 3
 87 495 89.413985247 594.076577453 82 633 c 0
 77.6589308644 655.790612962 63 670 43 670 c 3
 33.5909090909 670 20 670 20 670 c 1
 17 683 l 1
 69 700 121 727 160 753 c 1
 168 747 l 1
 162 730 158.585547668 710.949449441 157 696 c 0
 150 630 150 414 150 274 c 3
EndSplineSet
Substitution2: "case-1" L
Substitution2: "pcap-1" l.pcap
Substitution2: "smcp-1" l.smcp
EndChar
StartChar: m
Encoding: 109 109 12
Width: 775
VWidth: 1159
Flags: HMW
HStem: -1 13<570 590 736.3 778> -1 11<7 20.6944 184 212 291 311 458 484> 341 11<4 21.8082> 348 38<491.719 641.186> 355 41<239.584 326.073> 385 20G<113.5 145>
VStem: 81 61<44.1758 322.94> 359 65<23.7993 292.25> 634 62<26.0615 303.999>
AnchorPoint: "Bottom" 390 -15 basechar 0
AnchorPoint: "Top" 383 472 basechar 0
LayerCount: 2
Back
SplineSet
696 113 m 7x1380
 696 87 698 63 700 38 c 4
 701 27 707 23 718 22 c 6
 779 17 l 5
 778 0 l 5
 746 0 709 1 677 1 c 4
 644 1 603 0 570 -1 c 5
 569 12 l 5
 590 16 l 6
 616 20 621 36 625 62 c 4
 630 104 634 144 634 188 c 7
 634 224 632 259 621 287 c 4
 607 324 581 348 533 348 c 7x9380
 489 348 452 333 416 317 c 5
 420 301 421 285 421 269 c 7
 421 237 422 205 422 173 c 4
 423 130 424 87 424 43 c 4
 424 21 440 18 458 14 c 6
 485 10 l 5
 484 -1 l 5
 470 -1 450 -1 436 -1 c 4
 388 -1 338 -2 291 -4 c 5
 290 10 l 5
 311 14 l 6
 343 19 354 35 356 71 c 4
 357 97 359 125 359 151 c 7
 359 200 360 249 350 293 c 4
 343 327 315 355 269 355 c 7x4b80
 227 355 176 332 142 312 c 5
 142 228 142 144 142 60 c 4
 142 37 148 26 168 21 c 6
 212 10 l 5
 212 -2 l 5
 176 -1 140 1 103 1 c 4
 71 1 39 1 7 0 c 5
 6 10 l 5
 15 12 33 21 40 26 c 4
 60 40 73 59 77 89 c 4
 79 114 81 137 81 162 c 7
 81 200 82 240 77 277 c 4
 70 332 40 342 22 342 c 7
 18 342 8 341 4 341 c 5
 3 352 l 5
 52 362 98 384 129 405 c 5x6780
 145 399 l 5
 144 379 142 362 142 328 c 5
 190 354 269 396 319 396 c 7x0b80
 366 396 400 368 414 332 c 5
 463 360 528 386 592 386 c 7
 690 386 698 307 698 220 c 7
 698 184 696 149 696 113 c 7x1380
EndSplineSet
Fore
SplineSet
696 113 m 3x1380
 696 87 697.729404137 62.9765544955 700 38 c 0
 701 27 707.260839161 24.3864801865 718 22 c 2
 772 10 l 1
 771 -2 l 1
 754.217821782 -2 706.782178218 1 677 1 c 0
 644 1 603 -0.5 570 -2 c 1
 569 11 l 1
 590 14 l 2
 616.023377647 17.7176253782 621.757037052 34.7591112339 625 62 c 0
 630 104 634 144 634 188 c 3
 634 224 631.646345847 258.863228834 621 287 c 0
 607 324 581 348 533 348 c 3x9380
 489 348 452 333 416 317 c 1
 420 301 421 285 421 269 c 3
 421 237 421.256018264 204.991214633 422 173 c 0
 423 130 424 87 424 43 c 0
 424 21 439.927286244 17.3467988437 458 14 c 2
 485 9 l 1
 484 -3 l 1
 458.333333333 -1 421.666666667 1 396 1 c 3
 361.24137931 1 325.034482759 -0.333333333333 291 -3 c 1
 290 9 l 1
 311 13 l 2
 342.818308507 19.0606301919 354.589982147 34.3395358277 356 71 c 0
 357 97 359 125 359 151 c 3
 359 200 359.099018575 248.80476692 350 293 c 0
 343 327 315 355 269 355 c 3x4b80
 227 355 176 332 142 312 c 1
 142 228 142 144 142 60 c 0
 142 36.4102564103 148.082840237 25.4319526627 168 20 c 2
 212 8 l 1
 211 -3 l 1
 175.330275229 -1.66666666667 139.660550459 1 103 1 c 3
 71 1 39 1 7 -3 c 1
 6 9 l 1
 18.4412866709 11.25 43.6878434211 19.9312889831 53 27 c 0
 67.552794208 38.0467962898 73.6701332168 59.3868016507 77 89 c 0
 79.9930615483 113.90063418 81 137 81 162 c 3
 81 200 81.7138147695 239.962883954 77 277 c 0
 70 330.307692308 40 340 22 340 c 3
 18 340 8 339 4 339 c 1
 3 352 l 1
 52 362 98 384 129 405 c 1x6780
 145 399 l 1
 144 379 142 362 142 328 c 1
 190 354 269 396 319 396 c 3x0b80
 366 396 400 368 414 332 c 1
 463 360 528 386 592 386 c 3
 690 386 698 307 698 220 c 3
 698 184 696 149 696 113 c 3x1380
EndSplineSet
Substitution2: "case-1" M
Substitution2: "pcap-1" m.pcap
Substitution2: "smcp-1" m.smcp
EndChar
StartChar: n
Encoding: 110 110 13
Width: 485
Flags: HMW
HStem: -10 16<188.625 212.375> -4 15<12 36.0376> 338 11<13 27.6289> 344 45<229.607 336.126> 379 20G<115 141>
VStem: 79 60<30.6838 318.111 320 325.711> 369 63<26.9973 308.316>
AnchorPoint: "Bottom" 250 -15 basechar 0
AnchorPoint: "Top" 247 491 basechar 0
LayerCount: 2
Fore
SplineSet
65 306 m 0x46
 61 327 50 350 30 350 c 2
 6 350 l 1
 6 361 l 1
 44 373 91 394 125 411 c 1x6e
 134 406 l 1
 135 332 l 1
 182 363 254 401 313 401 c 3
 382 401 415.811776106 359.988323063 420 294 c 0
 424 230.977272727 425 170.090909091 425 106 c 3
 425 86 425 68 425 48 c 0
 425 29.2 437.378677418 18.8187634412 458 15 c 2
 485 10 l 1
 484 -3 l 1
 457.296703297 -0.777777777777 421.692307692 1 394 1 c 3
 362.704761905 1 319.295238095 -1.72727272727 288 -5 c 1
 286 7 l 1
 324 16 l 2
 347.887688746 21.6576104924 352.983760966 41.3457291798 356 70 c 0
 360 108 362 143.764705882 362 184 c 3
 362 241 363 301 333 331 c 0
 316 348 291 356 259 356 c 3
 213 356 168 336.085714286 136 315 c 1
 135 231.032 132 142.968 132 59 c 0
 132 32.2444444444 143.852212563 19.5611980672 167 16 c 2
 206 10 l 1
 205 -4 l 1x96
 175 -1.22222222222 138 1 105 1 c 3
 73 1 37 -1 5 -2 c 1
 2 10 l 1
 16 11.6666666667 31.7966397574 16.9185625629 39 20 c 0
 59 28.5555555556 66.496650288 48.4655467286 68 77 c 0
 70 114.961165049 72 154.038834951 72 192 c 3
 72 233 71.4952431676 271.89997337 65 306 c 0x46
EndSplineSet
Substitution2: "case-1" N
Substitution2: "pcap-1" n.pcap
Substitution2: "smcp-1" n.smcp
EndChar
StartChar: o
Encoding: 111 111 14
Width: 492
Flags: HW
HStem: -10 21<213.737 312.228> 388 23<183.876 282.08>
VStem: 28 65<130.362 287.127> 399 65<108.357 276.92>
AnchorPoint: "Bottom" 254 -15 basechar 0
AnchorPoint: "Top" 251 492 basechar 0
AnchorPoint: "Horn" 420.5 341.8 basechar 0
AnchorPoint: "Ogonek" 341 19.6582 basechar 0
LayerCount: 2
Fore
SplineSet
256 411 m 3
 373 411 464 322 464 203 c 3
 464 81 374 -10 253 -10 c 3
 132 -10 28 80 28 199 c 3
 28 315 133 411 256 411 c 3
230 388 m 3
 164 388 93 330 93 228 c 3
 93 131 159 11 264 11 c 3
 351 11 399 97 399 181 c 3
 399 281 326 388 230 388 c 3
EndSplineSet
Substitution2: "pcap-1" o.pcap
Substitution2: "smcp-1" o.smcp
EndChar
StartChar: p
Encoding: 112 112 15
Width: 503
Flags: HMW
HStem: -347 15<17 49.6684> -337 18<153.33 228> -7 29<195.26 316.269> 367 36<218.052 309.547>
VStem: 85 59<-184.603 10 47.4573 340.936> 416 61<124.101 253.463>
AnchorPoint: "Bottom" 294 -15 basechar 0
AnchorPoint: "Top" 233 497 basechar 0
LayerCount: 2
Fore
SplineSet
85 36 m 0xbc
 85 123 83.0727899727 206.961880763 80 293 c 0
 79 321 72 348 42 348 c 3
 26.6341463415 348 12.2926829268 340.8 0 336 c 1
 -6 346 l 1
 21 362 95 397 132 427 c 1
 141 427 144 366 144 352 c 1
 187 374 248 403 300 403 c 3
 396 403 477 295 477 209 c 3
 477 90 362 -7 234 -7 c 3
 201 -7 171 1 144 10 c 1
 142 -272 l 2
 141.787244744 -301.998491097 148.181593461 -315.963953977 175 -319 c 2
 228 -325 l 1
 228 -339 l 1
 208 -339 178 -337 158 -337 c 0x7c
 108 -337 64 -342 17 -347 c 1
 17 -334 l 1
 35 -331 l 2
 60.8970775654 -326.683820406 67.5814234797 -310.467309645 73 -285 c 0
 83 -238 85 -67 85 36 c 0xbc
249 367 m 3
 211 367 175 351 144 336 c 1
 143 57 l 1
 182 40 226 22 278 22 c 3
 359 22 416 80 416 164 c 3
 416 257 341 367 249 367 c 3
EndSplineSet
Substitution2: "case-1" P
Substitution2: "pcap-1" p.pcap
Substitution2: "smcp-1" p.smcp
EndChar
StartChar: q
Encoding: 113 113 16
Width: 479
Flags: HMW
HStem: -346 15<287 319> -338 16<435.085 499> -10 28<197.81 299.84> 380 32<199.547 320.077>
VStem: 31 64<113.259 268.403> 359 64<-318.836 32 36.2909 353.767>
AnchorPoint: "Top" 263 503 basechar 0
LayerCount: 2
Fore
SplineSet
363 52 m 1x3c
 364 134 362.809965499 214.99072452 359 295 c 0
 358 316 357.74128182 334.74722857 347 346 c 0
 326 368 281 380 245 380 c 3
 149 380 95 305 95 209 c 3
 95 102 162 18 263 18 c 3
 299 18 335 31 363 52 c 1x3c
363 32 m 1
 324 10 276 -10 218 -10 c 3
 107 -10 31 80 31 182 c 3
 31 314 164 412 285 412 c 3
 350 412 380 385 391 385 c 3
 402 385 426 410 433 421 c 1
 445 415 l 1
 441 406 438.224903099 396.674709298 435 387 c 0
 426 360 421.775368216 328.999186127 422 298 c 0
 423 160 424 24 424 -114 c 0
 424 -172 423 -229 423 -287 c 0
 423 -317 444 -320 472 -322 c 0
 476.987293499 -322.35623525 494 -322 499 -324 c 1
 501 -338 l 1
 497 -338 481 -338 477 -338 c 0x7c
 414 -338 346 -342 287 -346 c 1
 287 -333 l 1xbc
 319 -327 l 2
 352.764261931 -320.669200888 358.42627548 -299.595027735 359 -258 c 2
 363 32 l 1
EndSplineSet
Substitution2: "pcap-1" q.pcap
Substitution2: "smcp-1" q.smcp
EndChar
StartChar: r
Encoding: 114 114 17
Width: 351
Flags: HMW
HStem: -6 12<28 52.1111> -5 23<155.453 263> 395 20G<286 308.5> 402 20G<130 147>
VStem: 87 64<18.0803 323.88>
AnchorPoint: "Bottom" 142 -15 basechar 0
AnchorPoint: "Top" 150.5 526 basechar 0
LayerCount: 2
Fore
SplineSet
151 199 m 0x28
 151 146 149.471983184 94.9202522419 153 42 c 0
 154 27 159.016116419 19.2045746092 173 18 c 0
 201.281060997 15.5638635862 232 14.2 263 12 c 1
 264 -2 l 1
 214 0 161 0 108 0 c 3x68
 81 0 43 -2 28 -3 c 1
 28 9 l 1
 59 18 l 2
 70.2159309021 21.2562380038 73.9597510066 27.0058089178 76 41 c 0
 83 89.0134228188 87 135.067114094 87 187 c 0
 87 228 85.1678532349 268.817907947 80 310 c 0
 78.3765705927 322.936942334 66 338 45 338 c 3
 38 338 26 336 19 336 c 1
 17 346 l 1
 45 361 116 401 144 422 c 1x98
 150 422 151.061718988 417.999238037 151 413 c 2
 150 332 l 1
 182 350 283 414 289 415 c 1
 328 392 338 381 338 364 c 0
 338 341 307 321 281 316 c 1
 275 336 273 354 243 354 c 3
 221 354 152 325 152 293 c 3
 152 262 151 230 151 199 c 0x28
EndSplineSet
Substitution2: "case-1" R
Substitution2: "pcap-1" r.pcap
Substitution2: "smcp-1" r.smcp
EndChar
StartChar: s
Encoding: 115 115 18
Width: 341
Flags: HMW
HStem: -12 24<117.158 219.742> 375 22<139.721 212.745>
VStem: 27 12<99.8773 105.5> 47 55<268.488 340.402> 256 56<45.0788 127.078> 278 10<304.6 311.805>
AnchorPoint: "Bottom" 176 -15 basechar 0
AnchorPoint: "Top" 180.5 500 basechar 0
LayerCount: 2
Fore
SplineSet
39 108 m 1xf8
 82 45 106 12 176 12 c 3
 218 12 256 33 256 76 c 3xf8
 256 124 205 159 169 176 c 0
 121 199 47 215 47 285 c 3
 47 353.357142857 129 401 203 401 c 3
 229 401 252 398 274 394 c 1
 288 310 l 1
 278 308 l 1xf4
 260 341 216 379 167 379 c 3
 131 379 102 352 102 318 c 3
 102 284 130 261 156 251 c 0
 233 220.172413793 312 183.179310345 312 102 c 3
 312 28 224 -12 148 -12 c 3
 109 -12 78 -3 48 9 c 1
 47 23 44 36 42 50 c 0
 38 70 32 87 27 102 c 1
 39 108 l 1xf8
EndSplineSet
Substitution2: "pcap-1" s.pcap
Substitution2: "smcp-1" s.smcp
EndChar
StartChar: t
Encoding: 116 116 19
Width: 346
Flags: HMW
HStem: -6 40<169.156 248.814> 364 28<149 310> 364 9<30 34.6045>
VStem: 81 65<56.2268 364> 151 10<471.112 477.4>
AnchorPoint: "Bottom" 174 -15 basechar 0
AnchorPoint: "Top" 145.5 500 basechar 0
AnchorPoint: "TopRight" 313 531 basechar 0
LayerCount: 2
Fore
SplineSet
27 373 m 1xb8
 82 400 117 428 151 478 c 1
 161 476 l 1
 149 390 l 1
 310 396 l 1
 310 364 l 1
 149 364 l 1xd8
 144 284 142.58223623 200.026330473 146 118 c 0
 148 68.8571428571 171 32 221 32 c 3
 258 32 287 47.3103448276 317 63 c 1
 323 52 l 1
 287 29 218 -6 172 -6 c 3
 112 -6 81 35 81 95 c 0
 81 185 85 274 86 364 c 1
 30 364 l 1
 27 373 l 1xb8
EndSplineSet
Substitution2: "pcap-1" t.pcap
Substitution2: "smcp-1" t.smcp
EndChar
StartChar: u
Encoding: 117 117 20
Width: 512
VWidth: 1159
Flags: HMW
HStem: -4 43<166.512 257.959> 26 15<474.103 495.867> 347 12<11 24.3301> 360 18<293 341.329> 387 26G<118 147 406.5 432>
VStem: 67 67<72.8435 345.445> 352 67<71.5641 319.205> 359 73<165.286 357.317>
AnchorPoint: "Bottom" 248 -15 basechar 0
AnchorPoint: "Top" 260 497 basechar 0
AnchorPoint: "Horn" 430.5 333 basechar 0
AnchorPoint: "Ogonek" 387.65 -3 basechar 0
LayerCount: 2
Fore
SplineSet
293 378 m 1xbd
 336 385 386 396 427 407 c 1
 432 402 l 1xbd
 428 315.045898438 419 222.9765625 419 135 c 0
 419 98 422.395507812 65.23046875 427 33 c 0xbe
 428 26 430.967773438 22.16015625 440 24 c 2
 494 35 l 1
 498 20 l 1x7e
 460.633789062 8.703125 413.249023438 -18 380 -18 c 0
 379 -18 379 -18 379 -18 c 0
 356.713867188 -18 353.286132812 44 352 59 c 1
 302 29 228 -10 169 -10 c 3
 121 -10 93.345703125 13.13671875 79 49 c 0
 69 74 67 105 67 138 c 0
 67 192.012695312 70 244.987304688 70 299 c 0
 70 327 64 349 36 349 c 0
 29 349 18 347 11 347 c 1
 8 359 l 1
 51 373 99 393 137 413 c 1
 147 408 l 1
 142 346.19140625 134 270.990234375 134 203 c 0
 134 118 137 33 223 33 c 0
 275 33 318 57 352 79 c 1xbe
 356 158 359 236 359 317 c 3
 359 361 335 363.270507812 292 364 c 1
 293 378 l 1xbd
EndSplineSet
Substitution2: "case-1" U
Substitution2: "pcap-1" u.pcap
Substitution2: "smcp-1" u.smcp
EndChar
StartChar: v
Encoding: 118 118 21
Width: 405
Flags: HMW
HStem: 379 11<155.5 183.286> 383 14<264 293.34>
AnchorPoint: "Bottom" 194 -15 basechar 0
AnchorPoint: "Top" 193 494 basechar 0
LayerCount: 2
Fore
SplineSet
405 387 m 1x40
 366 366 356 345 344 314 c 0
 317 246.683417085 286 182.336683417 256 117 c 0
 236 74 211 12 199 -25 c 1
 186 -25 l 1
 147 104.026737968 99 237.085561497 45 352 c 0
 40 362 35 368 25 372 c 2
 0 382 l 1
 1 393 l 1x80
 21 393 45 390 65 390 c 0
 103 390 146 392 183 396 c 1
 184 384 l 1
 146 376 l 2
 135 374 127 368 127 356 c 0
 127 354 128 349 128 347 c 0
 148 248.637037037 183 162.318518519 216 76 c 1
 254 152.371428571 296 227.751020408 317 319 c 0
 318 325 320 332 320 339 c 0
 320 372 291 376 263 381 c 1
 264 395 l 1
 285 394 312 392 334 392 c 0
 356 392 382 394 403 395 c 1
 405 387 l 1x40
EndSplineSet
Substitution2: "case-1" V
Substitution2: "pcap-1" v.pcap
Substitution2: "smcp-1" v.smcp
EndChar
StartChar: w
Encoding: 119 119 22
Width: 645
Flags: HMW
HStem: 371 15<-1 31.5327> 378 13<242 270.92> 389 11<411.766 427.091 512.2 519.347>
AnchorPoint: "Bottom" 300 -15 basechar 0
AnchorPoint: "Top" 334 498 basechar 0
LayerCount: 2
Fore
SplineSet
645 383 m 1xa0
 615 369.269230769 609.750526167 356.156044907 597 332 c 0
 563 267.586538462 524.716396726 198.894120279 492 129 c 0
 470 82 450.213203436 32.6690475585 429 -14 c 0
 424 -25 412.831922093 -17.0458542028 411 -10 c 0
 385 90 354 189 321 282 c 1
 294 228 267.815043896 173.088663402 242 119 c 0
 221 75 200.861904047 32.5857121414 181 -15 c 0
 178.563871108 -20.8365465834 164.904069217 -24.0091287758 164 -14 c 0
 158 52.427184466 100.265528002 202.84134469 71 297 c 0
 57 342.043478261 45.6297865849 360.831746516 32 371 c 0
 22 378.46031746 14 378.142857143 -2 381 c 1
 -1 395 l 1
 25 393 52.9214674638 391 85 391 c 3xa0
 115.01666204 391 145 393 176 398 c 1
 177 383 l 1
 170 383 150.053822261 379.859806592 145 378 c 0
 135 374.32 127 367.88 127 355 c 0
 127 351 128.070164341 345.016890047 129 341 c 0
 150 250.28 175 170.648 206 89 c 1
 312 312 l 1
 303 338 l 2
 297.416009038 354.131529446 285.695052042 363.228710968 274 372 c 0
 268 376.5 252 379.875 242 381 c 1
 241 394 l 1x40
 255.142857143 394 279.562833082 391 295 391 c 3
 338.972027972 391 385.692307692 393.4 426 397 c 1
 428 384 l 1
 414 380.388888889 388.601812402 378.067874935 378 371 c 0
 372 367 367 362 367 352 c 0
 367 347 367.923065231 342.979976319 369 339 c 0
 392 254 418 173 448 92 c 1
 485 164.384279476 518.847060294 235.617650735 551 316 c 0
 555 326 559 336 559 348 c 0
 559 373 542 375 511 380 c 1
 513 396 l 1
 536 392 565 391 588 391 c 3
 605 391 625 394 642 394 c 1
 645 383 l 1xa0
EndSplineSet
Substitution2: "pcap-1" w.pcap
Substitution2: "smcp-1" w.smcp
EndChar
StartChar: x
Encoding: 120 120 23
Width: 421
VWidth: 1159
Flags: HW
HStem: -3 16<8.5625 29.3824 113.098 152 230 266.517 363.547 411> 378 14<16 60.9259 168.479 198 259 299.977>
AnchorPoint: "Bottom" 202 -15 basechar 0
AnchorPoint: "Top" 201 494 basechar 0
LayerCount: 2
Fore
SplineSet
8 13 m 1
 40 23.5 45.9775390625 28.275390625 51 34 c 2
 187 189 l 1
 164 236.053710938 139.639648438 281.548828125 109 323 c 0
 78 364 73 377 16 378 c 1
 15 393 l 1
 31 392 52 392 68 392 c 3
 111 392 156 393.5 198 395 c 1
 198 381 l 1
 187 380 168 380 168 368 c 0
 168 363 169.342773438 360.775390625 171 357 c 0
 189 314.958007812 209 275.991210938 229 236 c 1
 292 312 l 2
 301.0703125 322.94140625 312 336 312 353 c 0
 312 378 277 375 259 379 c 1
 259 395 l 1
 280 394 307 392 328 392 c 3
 355 392 388 394 414 396 c 1
 414 381 l 1
 377 371.454101562 364.325195312 354.874023438 350 339 c 0
 313 298 277 258 241 216 c 1
 273 157 305.642578125 100.791015625 339 44 c 0
 352.813476562 20.482421875 360.70703125 18.3447265625 413 13 c 1
 411 -2 l 1
 381 -1.599609375 345 0 313 0 c 3
 287 0 256 -3 230 -3 c 1
 228 11 l 1
 238 13 269 14 269 26 c 0
 269 28 267.790039062 29.908203125 267 32 c 0
 249 79.64453125 224 124.311523438 198 166 c 1
 166 134.603515625 138.90234375 99.353515625 114 62 c 0
 110 56 104 48 104 38 c 0
 104 17 124 16 152 12 c 1
 153 -3 l 1
 133 -3 106 0 86 0 c 3
 61 0 32 -1.5 9 -3 c 1
 8 13 l 1
EndSplineSet
Substitution2: "case-1" X
Substitution2: "pcap-1" x.pcap
Substitution2: "smcp-1" x.smcp
EndChar
StartChar: y
Encoding: 121 121 24
Width: 441
Flags: HMW
HStem: 381 11<-1 20 158 179 420.98 437> 384 16<273.812 305.84>
AnchorPoint: "Bottom" 287 -15 basechar 0
AnchorPoint: "Top" 225.5 485.3 basechar 0
LayerCount: 2
Back
SplineSet
93 -343 m 5x80
 93 -343 51 -342 45 -342 c 4
 30 -342 11 -342 -4 -343 c 5
 -6 -335 l 5
 78 -288 66 -282 179 -34 c 5
 149 80 112 196 71 304 c 4
 55 347 41 373 20 378 c 6
 -1 381 l 5
 -1 392 l 5x80
 20 392 47 391 68 391 c 4
 104 391 145 393 179 395 c 5
 179 383 l 5
 158 379 l 6
 142 377 135 372 135 352 c 4
 135 341 138 328 140 317 c 4
 163 225 187 138 217 49 c 5
 264 126 303 208 335 298 c 4
 339 309 345 320 345 335 c 4
 345 368 312 377 271 384 c 5
 276 400 l 5x40
 306 394 343 389 376 389 c 4
 394 389 419 392 437 392 c 5
 441 381 l 5
 416 376 406 375 379 322 c 4
 330 224 280 126 232 28 c 4
 178 -83 124 -200 93 -343 c 5x80
EndSplineSet
Fore
SplineSet
93 -343 m 1x80
 93 -343 51 -342 45 -342 c 0
 30 -342 11 -342 -4 -343 c 1
 -6 -329 l 1
 78 -297.936877076 66 -277.056478405 179 -34 c 1
 149 80 111.285914032 195.73160604 71 304 c 0
 55 347 41.28 374.96 20 378 c 2
 -1 381 l 1
 -1 392 l 1x80
 20 392 47 391 68 391 c 0
 104 391 145 393 179 395 c 1
 179 383 l 1
 158 379 l 2
 142.192560175 375.989059081 135 372 135 352 c 0
 135 341 137.288369277 327.846522891 140 317 c 0
 163 225 187 138 217 49 c 1
 264 126 302.35682855 208.231278512 335 298 c 0
 339 309 345 320 345 335 c 0
 345 368 312 377 271 384 c 1
 276 400 l 1x40
 306 394 343 390 376 390 c 0
 394 390 419 392 437 392 c 1
 441 381 l 1
 416 376 405.600751869 375.201503738 379 322 c 0
 330 224 279.737914141 126.127934623 232 28 c 0
 178 -83 124 -200 93 -343 c 1x80
EndSplineSet
Substitution2: "case-1" Y
Substitution2: "pcap-1" y.pcap
Substitution2: "smcp-1" y.smcp
EndChar
StartChar: z
Encoding: 122 122 25
Width: 441
Flags: HMW
HStem: 1 24<125 203.889 257.601 340.965> 374 20<92.9061 311> 383 20G<36 62 380.5 419>
VStem: 418 15<101.5 122>
AnchorPoint: "Bottom" 218 -15 basechar 0
AnchorPoint: "Top" 213.5 500 basechar 0
LayerCount: 2
Fore
SplineSet
360 -1 m 0xd0
 291 1 218 2 147 0 c 0
 104 -1 59 -4 18 -6 c 1
 16 6 l 1
 122 116.090163934 225 241.057377049 311 369 c 1
 290 370 270 370 249 370 c 0xd0
 196 370 148 367 98 361 c 0
 60 356 38 337 21 300 c 1
 8 310 l 1
 20 335 35 368 37 399 c 1xb0
 87 393 143 390 198 390 c 3
 272 390 345 393 416 397 c 1
 419 390 l 1
 323 268.997275204 214 153.945504087 125 26 c 1
 162 26 199 24 236 24 c 0
 288 24 329 28 359 43 c 0
 377 52 391 65 402 83 c 0
 408 94 414 106 418 121 c 1
 433 121 l 1
 433 98 413 31 401 -3 c 1
 387 -2 374 -1 360 -1 c 0xd0
EndSplineSet
Substitution2: "pcap-1" z.pcap
Substitution2: "smcp-1" z.smcp
EndChar
StartChar: braceleft
Encoding: 123 123 336
Width: 266
Flags: HW
HStem: -229.7 21<197.543 239.5> 235.3 16<11.5 41.5001> 695.3 21<197.543 239.5>
VStem: 101.5 45.5<-159.03 69.3675 417.232 645.63> 124 46<-23.0005 161.342 325.258 509.6>
LayerCount: 2
Fore
SplineSet
239.5 716.3 m 1xf0
 239.5 716.3 239.5 703.489880859 239.5 695.299804688 c 1
 181.842711864 694.203856804 147 661.799256584 147 551 c 3xf0
 147 480.769 170 464.467 170 390 c 3
 170 334.826926544 106.352 256.260835257 59.5 243.299804688 c 1
 106.352 230.338836724 170 151.772932393 170 96.599609375 c 3xe8
 170 22.131809375 147 5.830489375 147 -64.400390625 c 3
 147 -175.200621892 181.842711864 -207.604244165 239.5 -208.700195312 c 1
 239.5 -229.7 l 1
 169.237486486 -233.096000084 101.5 -190.991999045 101.5 -39.7001953125 c 3xf0
 101.5 20.2272067041 124 52.5951077933 124 99.599609375 c 3
 124 168.330469778 88.3750365854 222.782154887 11.5 235.299804688 c 1
 11.5 251.299804688 l 1
 88.3750365854 263.816485145 124 318.269405761 124 387 c 3xe8
 124 434.003934096 101.5 466.371888713 101.5 526.299804688 c 3
 101.5 677.59196021 169.237486486 719.696003491 239.5 716.3 c 1xf0
EndSplineSet
Position2: "cpsp-1" dx=0 dy=0 dh=50 dv=100
Position2: "'case' vertical ajustments for all-caps-1" dx=0 dy=90 dh=0 dv=0
EndChar
StartChar: asciitilde
Encoding: 126 126 339
Width: 394
Flags: HW
HStem: 185 59<201.826 315.361> 229 59<84.3524 195.299>
LayerCount: 2
Fore
SplineSet
23 188 m 1x40
 51.3870967742 239.111111111 103.430107527 288 111 288 c 3x40
 154 288 245 244 287 244 c 3
 300.636363636 244 341.545454545 270.782608696 362 300 c 1
 371 292 l 1
 347.470588235 243.463917526 303.235294118 185 291 185 c 3x80
 250 185 145 229 106 229 c 3
 88.3571428571 229 49 198.846153846 30 180 c 1
 23 188 l 1x40
EndSplineSet
Position2: "cpsp-1" dx=0 dy=0 dh=50 dv=100
Position2: "'case' vertical ajustments for all-caps-1" dx=0 dy=90 dh=0 dv=0
EndChar
StartChar: cent
Encoding: 162 162 1204
Width: 408
UnlinkRmOvrlpSave: 1
Flags: HW
HStem: -9 54<157.722 275.087> 386 30<171.248 259.456>
VStem: 25 56<129.406 286.16>
LayerCount: 2
Fore
SplineSet
25 182 m 3
 25 250.094412951 41.5679295313 295.196736144 89 342 c 0
 137.697530864 390.051948052 181.073948583 416 250 416 c 3
 301.098699568 416 325.166666667 394.086956522 373 380 c 1
 345.5 352.4 330.5 335.6 303 308 c 1
 288.214285714 340.728163266 267.952380953 386 211 386 c 3
 178.275762534 386 146.288286121 370.865299345 127 352 c 0
 86.7550764802 312.637636515 81 266.039984013 81 216 c 3
 81 141.14779988 134.858619175 45 228 45 c 3
 289.251707598 45 319.038167939 70.757142857 360 126 c 1
 364.875 123.375 368.125 121.625 373 119 c 1
 337.981818182 69.5454545455 287.929788204 -9 199 -9 c 3
 76.6141371125 -9 25 110.179231167 25 182 c 3
EndSplineSet
Refer: 1967 58113 N 0.0181668 0.693762 -0.968418 0.0253589 189.417 -147.881 2
Position2: "'lnum-2' vertical adjustment" dx=0 dy=125 dh=0 dv=0
EndChar
StartChar: registered
Encoding: 174 174 876
Width: 322
Flags: HW
HStem: 441.035 14.6558<122.154 198.763> 491.865 9.635<96.2256 109.649 141.674 154.732 223.382 234.893> 557.075 11.1845<136.812 157.597> 627 11.797<94.248 108.597 131.263 171.081> 666.746 14.6563<123.04 199.647>
VStem: 38.4102 14.8496<521.669 596.815> 113.164 23.6485<512.214 558.24 569.061 624.54> 184.873 26.871<572.433 620.833> 268.543 14.8535<525.623 599.062>
LayerCount: 2
Fore
SplineSet
136.811523438 569.060546875 m 1
 144.482664559 568.852603679 148.340735534 568.259765625 155.921875 568.259765625 c 3
 174.941957122 568.259765625 184.873 580.230348052 184.873 596.451 c 3
 184.873 612.00056296 172.50434323 627 150.134765625 627 c 3
 145.312498428 627 140.821396119 625.696868809 138.609375 615.19921875 c 0
 135.95611827 602.607584595 136.325293132 583.375283057 136.811523438 569.060546875 c 1
94.248 634.855 m 1
 103.803 634.649 110.574 634.441 121.293 634.441 c 3
 136.729 634.441 143.624 638.797 161.182 638.797 c 3
 188.529 638.797 211.744 622.057 211.744 600.965 c 3
 211.744 581.917 198.013 568.822 182.004 562.094 c 1
 204.180209578 529.455617617 216.248741433 503.011007159 236.2421875 499.046875 c 1
 234.143 487.43 l 1
 200.43 489.5 175.242 518.991 154.674 557.123 c 1
 153.843389999 557.090117934 153.065089002 557.075306251 152.327517342 557.075306251 c 3
 146.515289991 557.075306251 143.232267983 557.995080309 136.812 558.24 c 1
 137.690137899 540.087624873 138.197129971 526.587871596 139.896484375 511.5078125 c 0
 140.762472664 503.823038479 145.130413595 502.878066267 156.072265625 501.412109375 c 1
 154.24 491.215 l 1
 144.229540319 493.18549523 133.77006719 494.216671651 123.324871914 494.216671651 c 3
 114.332044462 494.216671651 105.349800339 493.452321479 96.6738 491.865 c 1
 94.990234375 501.5 l 1
 106.299693946 502.109006984 110.083580046 503.588023946 111.185546875 511.037109375 c 1
 112.475448654 537.126417288 113.163520126 553.414086262 113.163520126 570.018993968 c 3
 113.163520126 582.565097251 112.76771796 595.293051292 111.938476562 612.603515625 c 1
 110.111432185 622.522873357 107.277363347 624.810955875 94.248046875 625.16796875 c 1
 94.248 634.855 l 1
160.9 666.746 m 3
 105.022 666.746 53.2598 621.182 53.2598 559.102 c 3
 53.2598 497.068 102.777 455.691 160.9 455.691 c 3
 216.781 455.691 268.543 501.256 268.543 563.336 c 3
 268.543 621.148 218.936 666.746 160.9 666.746 c 3
160.90234375 681.40234375 m 3
 226.790056359 681.40234375 283.396484375 629.63031777 283.396484375 563.528320312 c 3
 283.396484375 492.839248887 224.516775234 441.03515625 160.90234375 441.03515625 c 3
 95.1016995604 441.03515625 38.41015625 488.170935063 38.41015625 558.908203125 c 3
 38.41015625 629.597838111 97.2894543392 681.40234375 160.90234375 681.40234375 c 3
EndSplineSet
EndChar
StartChar: paragraph
Encoding: 182 182 76
Width: 605
VWidth: 1159
UnlinkRmOvrlpSave: 1
Flags: W
HStem: -8 21G<335.141 438> 695 46<385.865 530>
VStem: 306 32<235.8 673>
LayerCount: 2
Fore
SplineSet
306 673 m 1
 338 681 l 1
 328 45 l 1
 298 57 l 1
 306 673 l 1
530 741 m 1
 532 695 l 1
 490 692.1875 346.308970517 686.967761728 274 650 c 0
 209.616501946 617.084114209 187 591.047199352 187 289 c 3
 187 142.7 221.842173992 113.697176867 262 80 c 0
 280.511363637 63.619047619 375.125 44.1666666667 443 37 c 1
 434 -8 l 1
 236.281690141 35.3043478261 198.127690704 69.4064209225 144 131 c 0
 86 197 68.7183379876 279.143475457 41 343 c 0
 36.5415585383 353.271199404 34.3184777375 362.45888078 34.3184777375 371.792270339 c 0
 34.3184777375 380.414173878 36.2155452279 389.160417592 40 399 c 0
 70 477 121.142297883 586.795128918 222 657 c 0
 324 728 530 741 530 741 c 1
EndSplineSet
Position2: "cpsp-1" dx=0 dy=0 dh=50 dv=100
EndChar
StartChar: AE
Encoding: 198 198 319
Width: 1048
Flags: HW
HStem: -9 35<449 500.854> -5 39<22.5469 80.8864> 3.06988 37.3024<636.857 887.73> 247 42<296.875 529.631> 334 36<608 868.393> 661 31<394.871 460.439>
VStem: 525 93<373.564 639.016> 529.631 78.3691<90.5 243.369 285.991 334 370 605.156> 892 36<248.75 306.348 394.846 442.094> 933 30<539 620.59> 993 28<152.034 171.75>
AnchorPoint: "Top" 564 699 basechar 0
AnchorPoint: "Bottom" 560 -15 basechar 0
LayerCount: 2
Back
SplineSet
396 692 m 1x5de0
 459.272012394 686.532048312 556.561190777 684.572593564 653.192821453 684.572593564 c 0
 803.974281922 684.572593564 953.154767421 689.343407866 969 693 c 1
 980.145145837 683.247997393 984.133414459 677.741599913 984.133414459 669.087387512 c 0
 984.133414459 652.893580795 970.168856119 625.677987617 963 539 c 1
 933 536 l 1
 922 572 941 619 905 630 c 0
 863.488636507 641.860389569 801.137444756 648.076658986 740.260246011 648.076658986 c 0
 708.746754637 648.076658986 677.628246937 646.410894684 650 643 c 0
 632 641 619 627 618 609 c 0x5ee0
 614 526.970338983 609 445.953389831 608 370 c 1
 672 372 824 372 838 373 c 0
 875 378 880 404 896 448 c 1
 930 441 l 1
 921.800908316 410.132831309 918.486685813 379.498275435 918.486685813 348.871954284 c 0
 918.486685813 315.997648821 922.305294619 283.132831309 928 250 c 1
 892 241 l 1
 872 312 879 325 838 329 c 0
 794 334 701 333 608 334 c 1
 607 236.227091633 611 147.525896414 623 81 c 0
 627 64 636 50 653 49 c 0
 698.831179232 44.5647245905 737.376555516 40.3723092792 773.782518979 40.3723092792 c 0
 811.251037011 40.3723092792 846.453436792 44.8130178498 885 58 c 0
 944 78 954 101 993 177 c 1
 1021 170 l 1
 1005 104 994 62 982 0 c 1
 877.083081066 1.45355771389 767.073393242 3.06987648348 667.598205869 3.06987648348 c 0x3de0
 584.624915197 3.06987648348 509.225266505 0.552582785989 451 -9 c 1
 441 26 l 1x9de0
 494 36 527 49 527 77 c 1
 528.380926187 103.914026086 529.284877868 166.790357996 529.630859375 241.087890625 c 1
 467.278003094 249.660049211 355.177385742 253.494120142 272.916992188 247 c 1
 235.500997091 184.6 209.014082931 147.759493671 176.979 87 c 0
 158.157 51 172.988 29 244.937 34 c 1
 239.599 -10 l 1
 207.9511992 -3.42116167511 156.803289353 0.296115413079 108.669988834 0.296115413079 c 0
 76.3230769561 0.296115413079 45.3376267038 -1.38268590218 22.5469 -5 c 1
 22.5469 -5 18.2832 20 19.9365 34 c 1
 71.5889 48 102.294 57 117.652 80 c 0
 245.893953454 285.468704307 363.399910804 480.400810666 462.046875 648.923828125 c 1
 441.407911312 652.540879605 417.029954203 656.00792895 391 661 c 1
 396 692 l 1x5de0
499.977539062 640.265625 m 1
 473.026905511 593.239042544 345.505326951 370.882231497 296.875 289 c 1
 347.043311173 284.20133642 475.957582399 285.850220822 529.76953125 285.991210938 c 1
 529.972511301 417.75573903 528.516654383 568.318110715 525 618 c 0
 524.612992871 628.452823952 515.381822824 635.158711011 499.977539062 640.265625 c 1
EndSplineSet
Fore
SplineSet
384 704 m 1
 433 704 571 703 655 703 c 0
 793 703 923 704 950 708 c 0
 955 706 956 704 956 698 c 0
 956 686 948 656 939 562 c 1
 920 563 l 1
 924 609 925 640 900 653 c 0
 863 672 805 680 740 680 c 0
 690 680 649 676 615 668 c 0
 610 667 606 666 605 661 c 0
 598 602 594 440 594 374 c 1
 644 372 799 374 853 381 c 0
 879 385 889 430 895 453 c 1
 912 451 l 1
 909 426 907 386 907 345 c 0
 907 308 909 271 911 246 c 1
 891 245 l 1
 890 294 879 331 849 336 c 0
 763 350 667 348 594 346 c 1
 594 267 592 113 603 54 c 0
 604 48 606 44 610 43 c 0
 627 35 686 25 752 25 c 0
 821 25 905 36 950 71 c 0
 977 92 1001 126 1017 167 c 1
 1034 161 l 1
 1023 125 988 19 977 -6 c 1
 968 -3 838 0 711 0 c 0
 596 0 476 -2 432 -9 c 1
 429 10 l 1
 463 16 499 19 504 53 c 0
 511 105 516 171 518 242 c 1
 456 246 324 248 256 247 c 1
 223 190 190 134 157 77 c 0
 136 40 168 26 222 11 c 1
 219 -10 l 1
 181 -5 126 -1 77 -1 c 0
 55 -1 33 -2 16 -4 c 1
 14 16 l 1
 67 22 89 48 104 70 c 0
 170 165 373 493 469 669 c 1
 441 680 406 685 384 690 c 1
 384 704 l 1
498 651 m 1
 416 521 345 401 277 284 c 1
 339 279 463 280 519 280 c 1
 522.580532978 394.577055304 519.908681187 524.141485165 512 623 c 0
 511 634 506 643 498 651 c 1
EndSplineSet
Position2: "cpsp-1" dx=0 dy=0 dh=50 dv=100
Substitution2: "c2pc-1" ae.pcap
Substitution2: "c2sc-1" ae.smcp
EndChar
StartChar: germandbls
Encoding: 223 223 327
Width: 570
Flags: HW
HStem: -9 40<37 88.8477 173.148 208.525 365.019 460.981> 356 30<40 95.2842> 705 51<244.321 344.378>
VStem: 100 65<36.3341 356 396.595 588.58> 276 67<305.481 354.885> 301 22<88.2815 107.227> 396.559 58.286<487.211 649.856> 477 62<53.3627 166.162>
LayerCount: 2
Back
SplineSet
91 394 m 1
 92 453.1375 93.1413711931 509.130987994 104 560 c 0
 119 629 156.700692095 663.065235131 205 700 c 0
 239 726 274 750 328 750 c 3
 361 750 392 741 422 727 c 1
 437 711 407 676 400 672 c 1
 352 687 311 707 272 707 c 3
 186 707 170.824779995 604.160127661 162 535 c 0
 156 486.955555556 156 443.088888888 156 394 c 1029
157 371 m 1
 157 307.663212435 156 243.336787565 156 180 c 0
 156 132.666666667 158.914206116 82.6579234213 163 38 c 0
 164.350820509 21.5302673494 183.976203958 17.1 205 16 c 0
 210.993224165 15.4298627942 240 14 250 12 c 1
 250 -2 l 1
 217 -2 172 2 139 2 c 3
 100 2 47 -2 18 -4 c 1
 18 11 l 1
 42 14 l 0
 84 20.1714285714 87.3224767817 42.7933764797 88 86 c 0
 89 148 90 210 90 273 c 0
 90 303.38 90 340.62 90 371 c 1025
86 364 m 1
 30 364 l 1
 27 373 l 1
 82 400 117 428 151 478 c 1025
265 108 m 1xf8
 308 45 332 12 402 12 c 3
 444 12 482 33 482 76 c 3xf8
 482 124 431 159 395 176 c 0
 347 199 273 215 273 285 c 3
 273 353.357142857 355 401 429 401 c 3
 455 401 478 398 500 394 c 1
 514 310 l 1
 504 308 l 1xf4
 486 341 442 379 393 379 c 3
 357 379 328 352 328 318 c 3
 328 284 356 261 382 251 c 0
 459 220.172413793 538 183.179310345 538 102 c 3
 538 28 450 -12 374 -12 c 3
 335 -12 304 -3 274 9 c 1
 273 23 270 36 268 50 c 0
 264 70 258 87 253 102 c 1
 265 108 l 1xf8
EndSplineSet
Fore
SplineSet
328 750 m 3xfb
 422.283221358 750 462.844726562 676.363592835 462.844726562 588.779296875 c 3
 462.844726562 432.546755271 336 365.886676632 336 322 c 3xfb
 336 272.146067416 372.003039513 257.686246201 427 235 c 0
 507 202 547 155.608243243 547 103 c 0
 547 23.3849963504 447.83621374 -12 385 -12 c 3
 346.224597561 -12 315.701207317 -4.32 286 10 c 1
 285 24.976744186 284 39.9534883721 280 56 c 0
 277.737149597 65.0777138258 270.9988 92.6445 266 102 c 1
 278 108 l 1xf7
 322.296296296 38.7216494845 350.339090909 12 408 12 c 3
 449 12 490 33.072816 490 73 c 3
 490 121.041648598 447.072769121 155.502441865 406 175 c 0
 354.000827548 199.684405497 280 216.366071429 280 288 c 0
 280 312.664492356 413.55859375 405.773678734 413.55859375 565.703125 c 3
 413.55859375 647.081568556 354.44245155 707 271 707 c 3
 188.945140302 707 156 612 156 408 c 3
 156 382.404878049 156 284.972580608 156 249 c 0
 156 177.635733333 158.444013635 110.100168008 162 41 c 0
 162.809140964 25.276717952 174.15349148 20.8526478451 182 19 c 0
 194.370563212 16.0791725751 207 15 218 12 c 1
 218 -3 l 1
 183.083333333 0.571428571429 150.457715806 2 136 2 c 3
 102.604033333 2 51.3959666667 -0.571428571429 18 -4 c 1
 18 11 l 1
 29 13 43 13 54 17 c 1
 82.4866571429 24.3333333333 86.1627047619 43.6666666667 88 81 c 1
 88 120.633 89.9467070187 172.435722828 90 222 c 0
 90.0422999203 261.340358209 90.0594475751 313.13538806 90.06640625 364 c 1
 30 364 l 1
 27 373 l 1
 51.0004068459 385 74.1119097345 396 91.009765625 405.80078125 c 1
 92 414.295297156 92 422.462193816 92 430 c 3
 92 583.013071337 121 637 200 697 c 0
 236.707229896 724.878908782 272.059214953 750 328 750 c 3xfb
EndSplineSet
MultipleSubs2: "case-2" S S
Substitution2: "pcap-1" uni1E9E.pcap
Substitution2: "case-1" uni1E9E
Substitution2: "smcp-1" uni1E9E.smcp
EndChar
StartChar: ae
Encoding: 230 230 322
Width: 605
Flags: HW
HStem: -17 32<66 175.852> -7 35<380.53 482.11> 376 32<142.099 213.764> 376 20<373.824 431.22>
VStem: 32 58<23.793 131.601> 49 59<315.642 355.233> 253 60<97.4677 185.688 196.916 212.755 223 341.712>
AnchorPoint: "Top" 298 489 basechar 0
LayerCount: 2
Back
SplineSet
392 376 m 4
 364.635499601 375.108490513 341.067204105 362.109807931 331.794921875 338 c 4
 319.875171769 307.005681352 314.751341538 263.617483854 314 223 c 5
 461 270 l 6
 476.28426534 274.886805925 497.92860764 278.014220846 488 303 c 4
 473.297297297 340 436.965649459 377.464944236 392 376 c 4
313 207 m 5
 313 148.299045004 326.225732414 92.627555741 358.404296875 62 c 4
 380.757991795 40.7237643864 409.874904963 28 445 28 c 4
 488.178861789 28 529.520325203 50 558 70 c 5
 565 60 l 5
 525.441860465 27 464.220930233 -7 403 -7 c 4
 375.951697185 -7 351.427691783 -1.30270973485 331.151367188 11 c 4
 313.180226354 21.9043714717 297.969136219 37.3523901908 285.83203125 56.2021484375 c 1
 220.967302697 14.8798014133 162.188347406 -17 91 -17 c 4
 41 -17 32 17 32 64 c 4
 32 87 38.8470368745 106.388147498 42 119 c 4
 43 123 49.19398095 129.570559552 54 132 c 4
 115.716979572 162.005064126 182.387096774 181.153846154 253 203 c 5
 253.004491393 209.90412171 253.490036908 216.501341944 253.884765625 222.870117188 c 0
 256.797595215 274.598320572 258.919380423 318.117361793 241 340 c 4
 229.266666667 352 196.2 376 161 376 c 4
 130 376 108 359 108 336 c 4
 108 327 110 322 112 317 c 5
 55 293 l 5
 51 303 49 310 49 320 c 4
 49 334 56.1350850374 344.813531864 70 355 c 4
 119 391 186 408 211 408 c 4
 240.477905035 408 293.771004933 372.920913735 309.994140625 346.268554688 c 5
 344.982298683 379.461133359 388.0129415 396 423 396 c 4
 482.076923077 396 525.008719162 355.784305508 551 309 c 4
 556 300 557 296 575 287 c 5
 574 277 l 5
 487.90625 256.122807018 397.28125 231.561403509 313 207 c 5
251.034179688 185.688476562 m 1
 244.318274148 183.350289779 235.382347984 183.023432993 220 178.696289062 c 4
 188 169.694502994 151.74123931 155.616728698 136 148 c 4
 105 133 90 110 90 74 c 4
 90 37 109 15 141 15 c 4
 174.850846085 15 241.09623976 34.6175386682 276.543945312 72.4580078125 c 5
 258.695733706 106.137546594 249.984288225 160.053456756 251.034179688 185.688476562 c 1
EndSplineSet
Fore
SplineSet
392 376 m 3x12
 321.59183486 376 315.318154231 294.259348088 314 223 c 1
 461 270 l 2
 476.28426534 274.886805925 497.92860764 278.014220846 488 303 c 0
 473.297297297 340 436.989506475 376 392 376 c 3x12
313 207 m 1
 313 110.457644689 349.442107155 28 445 28 c 3
 488.178861789 28 529.520325203 50 558 70 c 1
 565 60 l 1
 525.441860465 27 464.220930233 -7 403 -7 c 3x56
 345.915199416 -7 309.44401534 19.5311142031 285.83203125 56.2021484375 c 1
 220.967302697 14.8798014133 162.188347406 -17 91 -17 c 3
 41 -17 32 17 32 64 c 3x8a
 32 87 38.8470368745 106.388147498 42 119 c 0
 43 123 49.19398095 129.570559552 54 132 c 0
 115.716979572 162.005064126 182.387096774 181.153846154 253 203 c 1
 253.004491393 209.90412171 253.490036908 216.501341944 253.884765625 222.870117188 c 0
 256.797595215 274.598320572 258.919380423 318.117361793 241 340 c 0
 229.266666667 352 196.2 376 161 376 c 3
 130 376 108 359 108 336 c 3
 108 327 110 322 112 317 c 1
 55 293 l 1
 51 303 49 310 49 320 c 3
 49 334 56.1350850374 344.813531864 70 355 c 0
 119 391 186 408 211 408 c 3xa6
 240.477905035 408 293.771004933 372.920913735 309.994140625 346.268554688 c 1
 344.982298683 379.461133359 388.0129415 396 423 396 c 3
 482.076923077 396 525.008719162 355.784305508 551 309 c 0
 556 300 557 296 575 287 c 1
 574 277 l 1
 487.90625 256.122807018 397.28125 231.561403509 313 207 c 1
251.034179688 185.688476562 m 1
 216.901846996 179.805079945 156.944870269 158.134614646 136 148 c 0
 105 133 90 110 90 74 c 3
 90 37 109 15 141 15 c 3x8a
 174.850846085 15 241.09623976 34.6175386682 276.543945312 72.4580078125 c 1
 258.695733706 106.137546594 249.984288225 160.053456756 251.034179688 185.688476562 c 1
EndSplineSet
Substitution2: "pcap-1" ae.pcap
Substitution2: "case-1" AE
Substitution2: "smcp-1" ae.smcp
EndChar
StartChar: eth
Encoding: 240 240 453
Width: 471
UnlinkRmOvrlpSave: 1
Flags: HW
HStem: -5 42<172.384 287.931> 371 34<180.415 282.579> 716 11.4531<77.2373 81.3456>
VStem: 28 57<134.711 268.425> 373 58<139.844 356.442>
LayerCount: 2
Fore
SplineSet
373 240 m 1
 366.085365854 304 296.944701242 371 211 371 c 3
 144.123076923 371 85 327.004882812 85 238 c 3
 85 131.886348515 144.717724609 37 247 37 c 3
 335.834446958 37 373 120.617793216 373 194 c 3
 373 425.426736637 230.950166113 630.048192771 74 716 c 1
 75.0837517488 718.745947016 77.2373046875 727.453125 77.2373046875 727.453125 c 1
 258.237172007 675.166289781 431 439.719447105 431 235 c 3
 431 113.962890625 328.998490768 -5 193 -5 c 3
 109.911132812 -5 28 80.923828125 28 171 c 3
 28 326.389648438 171.610169492 405 257 405 c 3
 301.295507545 405 339.874114323 389.328900641 368 370 c 1
 373 240 l 1
EndSplineSet
Refer: 1967 58113 N 0.284488 0.177084 -0.547233 0.872389 104.756 489.958 2
Substitution2: "pcap-1" eth.pcap
Substitution2: "smcp-1" eth.smcp
EndChar
StartChar: Aogonek
Encoding: 260 260 255
Width: 719
Flags: HW
HStem: -256.515 56.804<448.75 524.105> -4 20<26 54.2745 178.316 229.2 656.807 697> 247 38<229 455>
VStem: 377.549 59.298<-188.305 -85.422>
AnchorPoint: "Top" 380 699 basechar 0
LayerCount: 2
Back
SplineSet
555.4921875 -4.041015625 m 0
 485 -72 429.180664062 -141.040421536 429.180664062 -195.758789062 c 0
 429.180664062 -251.763613171 461.931756073 -284.967773438 503.373046875 -284.967773438 c 0
 519.465385178 -284.967773438 538.786971636 -278.22720991 558.61328125 -263.354492188 c 1
 558.61328125 -263.354492188 569.978249877 -269.106438366 567.58203125 -273.015625 c 0
 543.003050476 -313.113728762 501.592982028 -343.415039062 463.819335938 -343.415039062 c 0
 405.927919432 -343.415039062 354.6796875 -303.33424272 354.6796875 -236.275390625 c 0
 354.6796875 -144.47796918 461.239204872 -67 526.66015625 -2.7490234375 c 1029
EndSplineSet
Fore
SplineSet
229 285 m 1
 282 279 406 280 455 280 c 1
 417 380 384 463 342 565 c 1
 342 565 266 376 229 285 c 1
519 5 m 0
 530.109741396 13.6357457782 534.779439729 28.5420354958 534.779439729 46.6462357507 c 3
 534.779439729 50.8797090044 534.108682356 55.3435341033 533 60 c 0
 518 123 492 179 469 242 c 1
 409 246 265 249 213 247 c 1
 185 181 164.437411766 136.852420171 144 77 c 0
 130 36 168 26 232 11 c 1
 229 -10 l 1
 192.147570829 -5.30969083274 139.144528041 -0.558471132618 89.7064751762 -0.558471132618 c 0
 67.096720831 -0.558471132618 45.2326031914 -1.55221413928 26 -4 c 1
 23 16 l 1
 69 22 80.598245749 47.196491498 92 70 c 0
 142 170 289.951257956 511.11595938 351 679 c 0
 355 690 358 695 360 710 c 1
 380 708 l 1
 382 699 385.456370166 693.170677834 389 683 c 0
 466 462 592.821584599 129.90817984 632 54 c 0
 648 23 665 20 699 14 c 1
 697 -4 l 1
 671.333580765 -1.22010325649 638.859430934 0.533025399011 608.282091152 0.533025399011 c 0
 575.07114719 0.533025399011 546.746946964 -6.42066848262 532 -17 c 0
 486 -50 428.846679688 -130.662741755 428.846679688 -201.7109375 c 3
 428.846679688 -243.876541016 461.693478472 -286 501 -286 c 3
 518.117242769 -286 548 -273 559.345703125 -263.515625 c 1
 568.14453125 -268.916015625 l 1
 558 -294.340821336 515.59776757 -343.514648438 459.34765625 -343.514648438 c 3
 405.265994919 -343.514648438 354 -296.60696336 354 -238 c 3
 354 -186.696038793 391.563066273 -94.0583779722 519 5 c 0
EndSplineSet
Position2: "cpsp-1" dx=0 dy=0 dh=50 dv=100
Substitution2: "c2pc-1" aogonek.pcap
Substitution2: "c2sc-1" aogonek.smcp
EndChar
StartChar: Eogonek
Encoding: 280 280 258
Width: 639
VWidth: 1159
UnlinkRmOvrlpSave: 1
Flags: W
HStem: -343.415 58.4473<453.178 522.52> -9 19<29.8947 69.7484> 0.0185547 25.0967<228.8 463.924> 346 28<193 384.297> 679.486 23.7578<212.159 441.047> 690 14<41 73.102>
VStem: 354.68 74.501<-260.749 -164.853> 498 16.3662<247.172 300.784 414.044 451.383> 535 19<563 640.939> 608 17<148.735 163.471>
LayerCount: 2
Back
SplineSet
41 704 m 5
 90.1357421875 703.622070312 170.69921875 703.244140625 254.291015625 703.244140625 c 7
 391.861328125 703.244140625 537.630859375 704.267578125 565 708 c 4
 569.579101562 705.7109375 571.483398438 704.276367188 571.483398438 698.485351562 c 7
 571.483398438 686.571289062 563.420898438 656.209960938 554 562 c 5
 535 563 l 5
 539 609 539.532226562 640.071289062 515 653 c 4
 449.80078125 687.362304688 291.6953125 685.543945312 214 668 c 4
 209 667 205 666 204 661 c 4
 197 602 193 440 193 374 c 5
 243 372 406 374 460 381 c 4
 486 385 496 430 502 453 c 5
 519 451 l 5
 515.86328125 425.907226562 514.366210938 385.236328125 514.366210938 344.703125 c 7
 514.366210938 307.702148438 515.614257812 270.815429688 518 246 c 5
 498 245 l 5
 497 294 486 331 456 336 c 4
 370 350 266 348 193 346 c 5
 193 267 191 113 202 54 c 4
 203 48 205 44 209 43 c 4
 225.696289062 35.142578125 284.596679688 25.115234375 350.762695312 25.115234375 c 7
 419.33203125 25.115234375 495.706054688 35.884765625 541 71 c 4
 568 92 592 126 608 167 c 5
 625 161 l 5
 614 125 579 19 568 -6 c 4
 565.977201198 -5.32580348207 558.78939909 -4.66420573609 547.492419711 -4.04076108961 c 5
 463.664389374 -62.7561880532 429.180664063 -141.040348888 429.180664062 -195.758789062 c 4
 429.180664062 -251.763613171 461.931756073 -284.967773438 503.373046875 -284.967773438 c 4
 519.465385178 -284.967773438 538.786971636 -278.22720991 558.61328125 -263.354492188 c 5
 558.61328125 -263.354492188 565.833981887 -268.776765805 567.58203125 -273.015625 c 4
 543.003050476 -313.113728762 501.592982028 -343.415039062 463.819335938 -343.415039062 c 4
 405.927919432 -343.415039062 354.6796875 -303.33424272 354.6796875 -236.275390625 c 4
 354.6796875 -144.477792872 429.411712608 -63.6648055799 516.660476674 -2.74857492331 c 5
 467.517147142 -1.11992128537 389.53802229 0.0185546800899 309.508789062 0.0185546875 c 7
 194.254882812 0.0185546875 74.75 -2.3427734375 31 -9 c 5
 28 10 l 5
 62 16 96 19 101 53 c 4
 112.270507812 137.526367188 117.189453125 256.982421875 117.189453125 376.1171875 c 7
 117.189453125 468.3984375 114.23828125 560.487304688 109 636 c 4
 107 674 82 685 41 690 c 5
 41 704 l 5
EndSplineSet
Fore
SplineSet
41 704 m 1xd7c0
 90.1357421875 703.622070312 170.69921875 703.244140625 254.291015625 703.244140625 c 3
 391.861328125 703.244140625 540.292658277 720.351036255 565 708 c 0
 569.579101562 705.7109375 571.483398438 704.276367188 571.483398438 698.485351562 c 3
 571.483398438 686.571289062 563.420898438 656.209960938 554 562 c 1
 535 563 l 1
 539 609 539.531960921 640.07078502 515 653 c 0
 478.613492287 672.176982309 413.418318408 679.486365834 349.326478006 679.486365834 c 7
 298.575257474 679.486365834 248.515858821 674.903171764 214 668 c 0
 209 667 204.600754955 666.063506047 204 661 c 0
 197 602 193 440 193 374 c 1
 243 372 406.181368591 372.720210553 460 381 c 0
 486 385 496 430 502 453 c 1
 519 451 l 1
 515.86328125 425.907226562 514.366210938 385.236328125 514.366210938 344.703125 c 3
 514.366210938 307.702148438 515.614257812 270.815429688 518 246 c 1
 498 245 l 1
 497 294 486.018654193 331.113242341 456 336 c 0
 370 350 266 348 193 346 c 1
 193 267 192.133321159 113.200073046 202 54 c 0
 203 48 205.26936659 44.7556692061 209 43 c 0
 225.696289062 35.142578125 284.596679688 25.115234375 350.762695312 25.115234375 c 3
 419.33203125 25.115234375 495.76094994 35.8140721756 541 71 c 0
 568 92 592 126 608 167 c 1
 625 161 l 1
 608 72 581.701129546 21.2260834136 555.4921875 -4.041015625 c 0
 485 -72 429.180664062 -141.040421536 429.180664062 -195.758789062 c 0
 429.180664062 -251.763613171 461.931756073 -284.967773438 503.373046875 -284.967773438 c 0
 519.465385178 -284.967773438 538.786971636 -278.22720991 558.61328125 -263.354492188 c 1
 558.61328125 -263.354492188 569.978249877 -269.106438366 567.58203125 -273.015625 c 0
 543.003050476 -313.113728762 501.592982028 -343.415039062 463.819335938 -343.415039062 c 0
 405.927919432 -343.415039062 354.6796875 -303.33424272 354.6796875 -236.275390625 c 0
 354.6796875 -144.47796918 461.239204872 -67 526.66015625 -2.7490234375 c 1
 475.144567268 -1.12010581689 393.401214032 0.0185546875 309.508789062 0.0185546875 c 3xbbc0
 194.254882812 0.0185546875 74.75 -2.3427734375 31 -9 c 1
 28 10 l 1
 62 16 96.4579749207 18.9357957941 101 53 c 0
 112.270507812 137.526367188 117.189453125 256.982421875 117.189453125 376.1171875 c 3
 117.189453125 468.3984375 112.978397031 560.410456405 109 636 c 0
 107 674 82 685 41 690 c 1
 41 704 l 1xd7c0
EndSplineSet
Position2: "cpsp-1" dx=0 dy=0 dh=50 dv=100
Substitution2: "c2pc-1" eogonek.pcap
Substitution2: "c2sc-1" eogonek.smcp
EndChar
StartChar: eogonek
Encoding: 281 281 253
Width: 414
UnlinkRmOvrlpSave: 1
Flags: HW
HStem: -293.658 42.1279<263.732 329.689> -7.35581 36.779<186.726 300.798> 395.112 21.0166<177.36 243.956>
VStem: 35.7282 64.1006<115.887 236.107 247.996 296.702> 186.912 56.0879<-231.275 -115.258>
LayerCount: 2
Fore
SplineSet
362.859375 52.54296875 m 1
 277.611512261 -11.5550260391 243 -103.880237222 243 -167 c 3
 243 -220.067559606 271.47943536 -251.530273438 307.515625 -251.530273438 c 3
 321.509012131 -251.530273438 338.310451064 -244.584130641 355.55078125 -229.2578125 c 1
 355.55078125 -229.2578125 361.829583002 -233.972499416 363.349609375 -237.658203125 c 1
 341.9765625 -269.5546875 305.967773438 -293.658203125 273.12109375 -293.658203125 c 3
 227.392888717 -293.658203125 186.912109375 -258.805289088 186.912109375 -200.493164062 c 3
 186.912109375 -141.838912023 231.052953352 -28.3753524841 357.282226562 63.103515625 c 1
 362.859375 52.54296875 l 1
EndSplineSet
Refer: 4 101 N 1 0 0 1 0 0 3
Substitution2: "smcp-1" eogonek.smcp
Substitution2: "case-1" Eogonek
Substitution2: "pcap-1" eogonek.pcap
EndChar
StartChar: dotlessi
Encoding: 305 305 50
Width: 264
Flags: HMW
HStem: -7 33<15 69 166 236>
VStem: 79 71<57 330>
AnchorPoint: "Top" 128.5 526 basechar 0
LayerCount: 2
Fore
SplineSet
155 209 m 3
 155 163 156.369805457 118.015252649 159 74 c 0
 160.611655031 47.0295982963 174.211153214 20.4611033554 193 17 c 0
 205.543496778 14.6893558567 226 11.75 241 10 c 1
 242 -3 l 1
 222.647058823 -2.66666666667 169.800262573 1 148 1 c 3
 106.898876405 1 69.7752808989 -1.47619047619 30 -3 c 1
 28 -1.25 28 3.125 30 11 c 1
 69 16 l 0
 79 18.0061919505 82.2287572269 23.6677504903 84 34 c 0
 92.5714285714 84 96 132 96 185 c 3
 96 222 93.9438273778 258.032664684 91 295 c 0
 89.330453574 315.965455727 82.75 337 58 337 c 3
 49.6923076923 337 42.3076923077 336.142857143 34 335 c 1
 30 347 l 1
 77 364 128 396 160 424 c 1
 170 419 l 1
 168 402 164 383 162 363 c 0
 157 313 155 258 155 209 c 3
EndSplineSet
Substitution2: "case-1" I
Substitution2: "pcap-1" i.pcap
Substitution2: "smcp-1" i.smcp
EndChar
StartChar: OE
Encoding: 338 338 346
Width: 1058
Flags: HW
HStem: -7 49<336.528 518.419> 3.06988 37.3024<639.125 901.73> 334 36<614 882.393> 650 44<298.396 500.529>
VStem: 37 93<266.365 448.041> 531 93<373.564 620.777> 534.995 79.0053<90.5 334 370 605.156> 906 36<248.75 306.348 394.846 442.094> 947 30<539 620.59> 1007 28<152.034 171.75>
LayerCount: 2
Back
SplineSet
528.435075913 629.611511387 m 1
 483.187377015 657.961762132 429.075153588 675.000000007 367 675 c 0
 226 675 105 563.172661871 105 407 c 0
 105 177.379487179 265 21 435 21 c 0
 467.095362419 21 515.956506907 28.5671145287 520 53 c 0
 533.865979625 136.785450926 536.189453125 256.982421875 536.189453125 376.1171875 c 0
 536.189453125 465.811827819 533.401403167 555.324719018 528.435075913 629.611511387 c 1
411 -12 m 3
 95 -12 23 259.961325967 23 346 c 0
 23 560.086021505 218 708 400 708 c 3
 484.903722321 708 495.078513121 703.244140625 673.291015625 703.244140625 c 3
 810.861328125 703.244140625 956.630859375 704.267578125 984 708 c 0
 988.579101562 705.7109375 990.483398438 704.276367188 990.483398438 698.485351562 c 0
 990.483398438 686.571289062 982.420898438 656.209960938 973 562 c 1
 954 563 l 1
 958 609 958.532226562 640.071289062 934 653 c 0
 897.151367188 672.419921875 830.627929688 680.284179688 765.716796875 680.284179688 c 0
 715.7734375 680.284179688 666.784179688 675.62890625 633 668 c 0
 628 667 624 666 623 661 c 0
 616 602 612 440 612 374 c 1
 662 372 825 374 879 381 c 0
 905 385 915 430 921 453 c 1
 938 451 l 1
 934.86328125 425.907226562 933.366210938 385.236328125 933.366210938 344.703125 c 0
 933.366210938 307.702148438 934.614257812 270.815429688 937 246 c 1
 917 245 l 1
 916 294 905 331 875 336 c 0
 789 350 685 348 612 346 c 1
 612 267 610 113 621 54 c 0
 622 48 624 44 628 43 c 0
 644.696289062 35.142578125 703.596679688 25.115234375 769.762695312 25.115234375 c 0
 838.33203125 25.115234375 914.706054688 35.884765625 960 71 c 0
 987 92 1011 126 1027 167 c 1
 1044 161 l 1
 1033 125 998 19 987 -6 c 1
 977.559570312 -2.853515625 855.620117188 0.0185546875 728.508789062 0.0185546875 c 3
 493.787674976 0.0185546875 446 -12 411 -12 c 3
EndSplineSet
Fore
SplineSet
367 675 m 0
 226 674.99999999 105 563.172661871 105 407 c 0
 105 177.379487179 265 21 435 21 c 0
 467.095362419 21 515.980336961 27.5672730322 520 53 c 0
 533.260132577 136.89791088 536.189453125 256.982421875 536.189453125 376.1171875 c 0
 536.189453125 461.125100134 535.792724315 546.037771121 529.79296875 619 c 0
 526.590134103 657.949245851 450.660393859 675.000000005 367 675 c 0
411 -12 m 3
 95 -12 23 259.961325967 23 346 c 0
 23 560.086021505 218 708 400 708 c 3
 484.903722321 708 495.078513121 703.244140625 673.291015625 703.244140625 c 3
 810.861328125 703.244140625 959.292658277 720.351036255 984 708 c 0
 988.579101562 705.7109375 990.483398438 704.276367188 990.483398438 698.485351562 c 0
 990.483398438 686.571289062 982.420898438 656.209960938 973 562 c 1
 954 563 l 1
 958 609 958.532130287 640.071106382 934 653 c 0
 869.580978531 686.950034743 716.034224887 684.606844977 633 668 c 0
 628 667 623.600754955 666.063506047 623 661 c 0
 616 602 612 440 612 374 c 1
 662 372 825.181368591 372.720210553 879 381 c 0
 905 385 915 430 921 453 c 1
 938 451 l 1
 934.86328125 425.907226562 933.366210938 385.236328125 933.366210938 344.703125 c 0
 933.366210938 307.702148438 934.614257812 270.815429688 937 246 c 1
 917 245 l 1
 916 294 905.018654193 331.113242341 875 336 c 0
 789 350 685 348 612 346 c 1
 612 267 611.133321159 113.200073046 621 54 c 0
 622 48 624.26936659 44.7556692061 628 43 c 0
 644.696289062 35.142578125 703.596679688 25.115234375 769.762695312 25.115234375 c 0
 838.33203125 25.115234375 914.76094994 35.8140721756 960 71 c 0
 987 92 1011 126 1027 167 c 1
 1044 161 l 1
 1033 125 998 19 987 -6 c 1
 977.559570312 -2.853515625 855.620117188 0.0185546875 728.508789062 0.0185546875 c 3
 493.787674976 0.0185546875 446 -12 411 -12 c 3
EndSplineSet
Position2: "cpsp-1" dx=0 dy=0 dh=50 dv=100
Substitution2: "c2pc-1" oe.pcap
Substitution2: "c2sc-1" oe.smcp
EndChar
StartChar: oe
Encoding: 339 339 871
Width: 740
UnlinkRmOvrlpSave: 1
Flags: HW
HStem: -14 39<190.397 302.402> -7.35581 36.779<512.726 626.798> 371 45<159.168 278.592> 395.112 21.0166<503.36 569.956>
VStem: 32 76<120.631 292.302> 359 78<100.689 280.313> 361.728 64.1006<115.887 236.107 247.996 296.702>
AnchorPoint: "Top" 395 465 basechar 0
AnchorPoint: "Bottom" 393 -15 basechar 0
LayerCount: 2
Back
SplineSet
236 411 m 3
 353 411 424 322 424 203 c 3
 424 81 354 -10 233 -10 c 3
 112 -10 28 80 28 199 c 3
 28 315 113 411 236 411 c 3
210 388 m 3
 144 388 93 330 93 228 c 3
 93 131 139 11 244 11 c 3
 331 11 359 97 359 181 c 3
 359 281 306 388 210 388 c 3
EndSplineSet
Fore
SplineSet
236 411 m 3
 341.75 411 424 322 424 203 c 3
 424 81 342.530805687 -10 233 -10 c 3
 122.755555556 -10 28 80 28 199 c 3
 28 315 123.789473684 411 236 411 c 3
210 388 m 3
 153.635036496 388 93 330 93 228 c 3
 93 131 151.280701754 11 244 11 c 3
 318.111111111 11 359 97 359 181 c 3
 359 281 294.639053254 388 210 388 c 3
EndSplineSet
Refer: 4 101 N 1 0 0 1 326 0 2
Substitution2: "smcp-1" oe.smcp
Substitution2: "pcap-1" oe.pcap
EndChar
StartChar: uogonek
Encoding: 371 371 262
Width: 512
UnlinkRmOvrlpSave: 1
Flags: HW
HStem: -293.658 42.1279<323.732 389.689> -4 43<166.512 257.959> 4.54297 10.5605<412.802 420.979> 26 15<474.103 495.867> 347 12<11 24.3301> 360 18<293 341.329> 387 26G<118 147 406.5 432>
VStem: 67 67<72.8435 345.445> 246.912 56.0879<-231.275 -120.455> 352 67<71.5641 319.205> 359 73<165.286 357.317>
LayerCount: 2
Back
SplineSet
436.73828125 12.201171875 m 1
 351.490418511 -40.2183810758 316.87890625 -115.722245311 316.87890625 -167.341796875 c 3
 316.87890625 -220.409356481 345.35834161 -251.872070312 381.39453125 -251.872070312 c 3
 395.387918381 -251.872070312 412.189357314 -244.925927516 429.4296875 -229.599609375 c 1
 429.4296875 -229.599609375 435.708489252 -234.314296291 437.228515625 -238 c 1
 415.85546875 -269.896484375 379.846679688 -294 347 -294 c 3
 301.271794967 -294 260.791015625 -259.147085963 260.791015625 -200.834960938 c 3
 260.791015625 -151.081314491 304.931859602 -54.8355074179 431.161132812 22.76171875 c 1
 436.73828125 12.201171875 l 1
EndSplineSet
Fore
SplineSet
422.859375 4.54296875 m 1xaf80
 370 -15 303 -75.994140625 303 -167 c 3
 303 -220.067382812 331.479492188 -251.530273438 367.515625 -251.530273438 c 3
 381.508789062 -251.530273438 398.310546875 -244.583984375 415.55078125 -229.2578125 c 1
 415.55078125 -229.2578125 421.829101562 -233.97265625 423.349609375 -237.658203125 c 1
 401.9765625 -269.5546875 365.967773438 -293.658203125 333.12109375 -293.658203125 c 3
 287.392578125 -293.658203125 246.912109375 -258.805664062 246.912109375 -200.493164062 c 3
 246.912109375 -97.99609375 358 -4 417.282226562 15.103515625 c 1
 422.859375 4.54296875 l 1xaf80
EndSplineSet
Refer: 20 117 N 1 0 0 1 0 0 3
Substitution2: "smcp-1" uogonek.smcp
Substitution2: "case-1" Uogonek
Substitution2: "pcap-1" uogonek.pcap
EndChar
StartChar: uni0198
Encoding: 408 408 1992
Width: 687
Flags: HW
HStem: -10 30<217.663 272.933> -1 24<470.273 498.261 656.235 673.667> 643.274 53.2148<485.859 564.926> 657 31<21 70.7048 200.717 269.581>
VStem: 91 87<44.2186 246.927 483.856 609.995> 565 97<559.954 641.209>
LayerCount: 2
Fore
SplineSet
236 370 m 1x2c
 576 87 l 0
 610 59 649 38 677 23 c 1
 673 -1 l 1x6c
 645 1 606 4 578 4 c 0
 545 4 503 1 471 -4 c 1
 467 21 l 1
 497 30 513.454283452 33.4072133617 491 58 c 0
 470 81 280 232 178 316 c 1
 178 235 180.437873927 134.085710579 183 79 c 0
 185 36 217 34 276 20 c 1
 272 -10 l 1
 195 2 115 7 15 -5 c 1
 12 28 l 1
 67 29 88.8448476065 35.0089550282 91 71 c 0
 101 238 101.21927907 417.969825563 95 589 c 0
 93 644 78 645 15 657 c 1
 21 688 l 1
 101 678 190 681 269 689 c 1
 272 657 l 1x9c
 214 652 189.572216385 651.213235274 187 608 c 0
 182 524 178 444 178 357 c 1
 220.488107554 401.675670719 283.863543539 476.459463654 347 543.189453125 c 0
 420.965761113 621.365117979 478.688704962 696.489257812 548.770507812 696.489257812 c 3
 619.689656377 696.489257812 662 654.763980872 662 594 c 3
 662 554.444658561 634.129127673 535.030273438 604.740234375 535.030273438 c 3
 582.598681853 535.030273438 559.595489704 547.806929751 547 573 c 1
 556.570921215 587.361991845 565 594.861661579 565 622 c 3
 565 633.888349158 550.656639289 643.274414062 533.823242188 643.274414062 c 3
 504.593942763 643.274414062 464.167926381 606.405004804 418.000002622 560.375045523 c 0
 355.786719522 498.34767555 274.781381017 411.818567198 236 370 c 1x2c
EndSplineSet
EndChar
StartChar: ohorn
Encoding: 417 417 448
Width: 492
VWidth: 0
UnlinkRmOvrlpSave: 1
Flags: HW
HStem: -10 21<213.737 312.228> 365.36 24.3843<349.604 421.731> 382.741 20G<338.441 342.053> 388 23<183.876 282.08>
VStem: 28 65<130.362 287.127> 399 65<108.357 276.92> 442.501 86.0273<403.736 481.559>
AnchorPoint: "Top" 251 465 basechar 0
AnchorPoint: "Bottom" 249 -15 basechar 0
AnchorPoint: "Middle" 255 206 basechar 0
LayerCount: 2
Fore
SplineSet
334.482421875 402.741210938 m 5xaa
 349.62424831 396.926343349 372.471667174 389.744140625 386.686523438 389.744140625 c 7
 411.796269819 389.744140625 442.501138157 408.271731058 442.501138157 441.560602678 c 7
 442.501138157 449.63955766 438.983530489 459.025418514 428.6640625 470.818359375 c 5
 444.576416165 489.781030223 464.379979468 500.219391987 482.796821553 500.219391987 c 7
 512.365850716 500.219391987 528.528388939 475.09191665 528.528388939 445.9790134 c 7
 528.528388939 396.089685559 450.426516037 365.359813167 388.72825766 365.359813167 c 7xca
 357.132622939 365.359813167 342.400200021 377.606700862 334.482421875 402.741210938 c 5xaa
EndSplineSet
Refer: 14 111 N 1 0 0 1 0 0 2
Substitution2: "smcp-1" ohorn.smcp
Substitution2: "case-1" Ohorn
Substitution2: "pcap-1" ohorn.pcap
EndChar
StartChar: uni01B7
Encoding: 439 439 1361
Width: 618
VWidth: 1159
Flags: W
HStem: -10 43<232.234 407.757> 639 43<147.808 439>
VStem: 109 32<0 20.9368> 500 80<133.317 292.449>
AnchorPoint: "Top" 330 699 basechar 0
LayerCount: 2
Fore
SplineSet
375 445 m 1
 467.96484375 442.310546875 580 380.493164062 580 237 c 3
 580 133.544921875 517.874023438 -10 301 -10 c 3
 256.797851562 -10 209.310546875 0.4443359375 170 18 c 0
 150.65234375 26.640625 151 24 141 -4 c 1
 109 0 l 1
 110 69 107 87 81 194 c 1
 115 200 l 1
 133 141 139.509765625 122.54296875 161 100 c 0
 196.271484375 63 270.502929688 33 324 33 c 3
 448.666992188 33 500 138.633789062 500 220 c 3
 500 304 408 436.6875 210 346 c 1
 200 373 l 1
 244.62890625 402.534179688 281.083007812 443.462890625 311 480 c 0
 352.62890625 530.83984375 395.142578125 583.23046875 435 635 c 0
 439 639 l 1
 225 639 l 2
 168 639 127 620 89 545 c 1
 61 563 l 1
 108 672 98 709 125 719 c 1
 145 692 180.990234375 682.872070312 193 682 c 0
 214.05078125 680.470703125 444.818359375 678.100585938 514 680.533203125 c 0
 525.415039062 680.934570312 533.982421875 681.420898438 539 682 c 1
 551 660 l 1
 531.573242188 637.099609375 l 0
 375 445 l 1
EndSplineSet
Validated: 33
EndChar
StartChar: uni0237
Encoding: 567 567 52
Width: 271
VWidth: 1159
Flags: HMW
VStem: -27 27<-331 -293> 82 68<-160 327>
AnchorPoint: "Top" 149.5 526 basechar 0
LayerCount: 2
Fore
SplineSet
25 -333 m 1
 25 -303 40 -273 54 -253 c 0
 75 -223 101 -195 111 -157 c 0
 123 -111 124 1 124 77 c 3
 124 135 123 192 119 250 c 0
 118 283 115 330 79 330 c 3
 69 330 57 327 47 325 c 1
 43 338 l 1
 101 359 148 390 186 424 c 1
 200 416 l 1
 190 394 187 364 187 342 c 0
 186 295 185 247 185 200 c 0
 184 86 183 -29 182 -145 c 0
 182 -166 176 -180 166 -192 c 0
 145 -220 119 -246 91 -268 c 0
 70 -284 48 -297 42 -338 c 1
 25 -333 l 1
EndSplineSet
EndChar
StartChar: gravecomb
Encoding: 768 768 94
Width: 0
Flags: HW
HStem: 494 159
VStem: -350 177
AnchorPoint: "Top" -198.5 469 mark 0
LayerCount: 2
Fore
SplineSet
-173 504 m 13
 -183 494 l 21
 -239 550 -295.963 592.07 -350 620 c 5
 -334.404 639.394 -316 653 -316 653 c 21
 -268.194 615.523 -205 548 -173 504 c 13
EndSplineSet
EndChar
StartChar: acutecomb
Encoding: 769 769 92
Width: 0
VWidth: 1159
Flags: W
HStem: 494 159
VStem: -226 177
AnchorPoint: "Top" -198.5 470 mark 0
LayerCount: 2
Fore
SplineSet
-226 504 m 21
 -194 548 -130.805664062 615.5234375 -83 653 c 13
 -83 653 -64.595703125 639.393554688 -49 620 c 5
 -103.037109375 592.0703125 -160 550 -216 494 c 13
 -226 504 l 21
EndSplineSet
Validated: 1
EndChar
StartChar: uni0302
Encoding: 770 770 93
Width: 0
Flags: HW
HStem: 491 162
VStem: -300 205
AnchorPoint: "Top" -198.5 469 mark 0
LayerCount: 2
Fore
SplineSet
-95 497 m 5
 -106 491 l 5
 -197.5 603.345703125 l 5
 -289 491 l 5
 -300 497 l 5
 -209 653 l 5
 -186 653 l 5
 -95 497 l 5
EndSplineSet
EndChar
StartChar: tildecomb
Encoding: 771 771 100
Width: 0
Flags: HW
HStem: 484.993 21G<-322.167 -302.775> 493.333 44.667<-235.913 -126.624> 518.115 44.2051<-285.912 -175.86>
VStem: -322.167 227.589
AnchorPoint: "Top" -210 442 mark 0
LayerCount: 2
Fore
SplineSet
-322.166992188 494.41796875 m 5xb0
 -299.000093977 533.000164069 -264.009247716 562.3203125 -258.155273438 562.3203125 c 7xb0
 -225.049194827 562.3203125 -175.223076514 538 -143 538 c 7
 -135.000101886 538 -117.978318675 554.430813481 -108.6484375 574.475585938 c 5
 -94.578125 565.405273438 l 5
 -110.999926626 529.000139265 -142.421738394 493.333007812 -152.221679688 493.333007812 c 7x50
 -183.838770142 493.333007812 -242.465937872 518.115234375 -272.374023438 518.115234375 c 7
 -282.229101266 518.115234375 -297.562222357 497.728191097 -307.987304688 484.993164062 c 5
 -322.166992188 494.41796875 l 5xb0
EndSplineSet
EndChar
StartChar: uni0306
Encoding: 774 774 105
Width: 0
Flags: HW
HStem: 503.983 33.7656<-261.653 -133.958>
VStem: -308.065 11.4004<574.652 581.381>
AnchorPoint: "Top" -198.5 453 mark 0
LayerCount: 2
Fore
SplineSet
-308.065429688 576.795898438 m 1
 -296.665039062 584.262695312 l 1
 -284.22580765 553.282913661 -241.079956781 537.749023438 -197.81640625 537.749023438 c 3
 -154.634425079 537.749023438 -111.335187578 553.224413341 -98.3349609375 584.262695312 c 1
 -86.9345703125 576.795898438 l 1
 -103.022242233 528.254231771 -150.55350927 503.983398438 -197.938476562 503.983398438 c 3
 -245.323807589 503.983398438 -292.562837747 528.254231771 -308.065429688 576.795898438 c 1
EndSplineSet
EndChar
StartChar: uni0307
Encoding: 775 775 49
Width: 0
VWidth: 1159
Flags: W
AnchorPoint: "Top" -198.5 449 mark 0
LayerCount: 2
Back
SplineSet
-198 557 m 0
 -176 557 -157 541 -157 519 c 0
 -157 497 -177 479 -199 479 c 0
 -221 479 -240 495 -240 517 c 0
 -240 539 -220 557 -198 557 c 0
EndSplineSet
Fore
Refer: 2359 57345 S 1.01727 0.216228 -0.201674 0.948803 -198 578 2
Validated: 1
EndChar
StartChar: hookabovecomb
Encoding: 777 777 748
Width: 0
Flags: HW
HStem: 677.275 13.0498<-235.747 -209.424>
VStem: -285.815 43.8457<633.872 673.156> -240.14 29.5801<534.182 585.926> -193.68 37.4951<600.553 673.132>
AnchorPoint: "Top" -221.5 504 mark 0
AnchorPoint: "TopMark" -219.5 699 basemark 0
AnchorPoint: "TopMark" -221.5 505 mark 0
LayerCount: 2
Fore
SplineSet
-285.815429688 637.254882812 m 1
 -280.595426739 669.445072363 -248.207048447 690.325195312 -216.650390625 690.325195312 c 3
 -179.664448853 690.325195312 -156.184570312 659.543480106 -156.184570312 636.384765625 c 3
 -156.184570312 582.206689697 -210.559570312 597.234985352 -210.559570312 566.78515625 c 3
 -210.559570312 548.998899135 -208.410466531 535.004299275 -205.33984375 526.764648438 c 1
 -213.169921875 520.674804688 l 1
 -223.059142683 529.903364313 -240.139648438 549.85854002 -240.139648438 567.655273438 c 3
 -240.139648438 614.634916922 -193.6796875 583.315154599 -193.6796875 629.424804688 c 3
 -193.6796875 650.175485832 -203.408873794 677.275390625 -225.349609375 677.275390625 c 3
 -239.773211875 677.275390625 -242.708989376 652.524567277 -241.969726562 629.424804688 c 1
 -251.120487196 629.424804688 -275.521432943 629.424804688 -285.815429688 637.254882812 c 1
EndSplineSet
EndChar
StartChar: uni030A
Encoding: 778 778 98
Width: 0
Flags: HW
HStem: 485.037 21.2695<-231.073 -166.029> 615.693 21.2695<-229.971 -164.927>
VStem: -275.451 21.6846<527.554 592.506> -142.233 21.6846<529.494 593.339>
AnchorPoint: "Top" -198.5 455 mark 0
LayerCount: 2
Fore
SplineSet
-198 615.693359375 m 4
 -226.954793126 615.693359375 -253.766601562 592.100094951 -253.766601562 559.927734375 c 4
 -253.766601562 527.754678124 -228.026785467 506.306640625 -198 506.306640625 c 4
 -169.045206874 506.306640625 -142.233398438 529.899905049 -142.233398438 562.072265625 c 4
 -142.233398438 592.100318125 -167.973214533 615.693359375 -198 615.693359375 c 4
-198 636.962890625 m 4
 -156.295907453 636.962890625 -120.548828125 604.193041884 -120.548828125 562.490234375 c 4
 -120.548828125 517.80616226 -157.784910757 485.037109375 -198 485.037109375 c 4
 -239.704092547 485.037109375 -275.451171875 514.826971871 -275.451171875 559.509765625 c 4
 -275.451171875 604.192837738 -238.215089243 636.962890625 -198 636.962890625 c 4
EndSplineSet
EndChar
StartChar: uni030B
Encoding: 779 779 102
Width: 0
Flags: HW
AnchorPoint: "Top" -198.5 465 mark 0
LayerCount: 2
Back
SplineSet
-246.166992188 507.637695312 m 21
 -231.145507812 559.928710938 -194.856445312 644.993164062 -162.751953125 696.560546875 c 13
 -162.751953125 696.560546875 -140.803710938 690.069335938 -119.515625 677.1796875 c 1
 -160.741210938 632.452148438 -199.879882812 573.436523438 -233.349609375 501.661132812 c 13
 -246.166992188 507.637695312 l 21
-172.0546875 499.78125 m 21
 -148.180664062 548.668945312 -97.671875 626.140625 -57.1005859375 671.348632812 c 13
 -57.1005859375 671.348632812 -36.61328125 661.14453125 -17.88671875 644.75390625 c 1
 -66.2529296875 607.865234375 -115.044921875 556.54296875 -160.469726562 491.668945312 c 13
 -172.0546875 499.78125 l 21
EndSplineSet
Fore
Refer: 92 769 N 0.970601 0.240694 -0.240694 0.970601 70.5596 66.9912 2
Refer: 92 769 N 0.984808 0.173648 -0.173648 0.984808 182.612 46.7705 2
EndChar
StartChar: uni030D
Encoding: 781 781 106
Width: 0
Flags: HW
AnchorPoint: "Top" -198.5 453 mark 0
LayerCount: 2
Back
SplineSet
-212.5 590.7 m 1
 -183.5 590.7 l 1
 -183.5 433.7 l 1
 -212.5 433.7 l 1
 -212.5 590.7 l 1
EndSplineSet
Fore
Refer: 1971 58114 N 0 0.177 -0.956522 0 -198 494 2
EndChar
StartChar: uni030F
Encoding: 783 783 104
Width: 0
Flags: HW
AnchorPoint: "Top" -198.5 465 mark 0
LayerCount: 2
Back
SplineSet
-259.938476562 503.869140625 m 1
 -283.8125 552.7578125 -334.321289062 630.228515625 -374.892578125 675.4375 c 1
 -374.892578125 675.4375 -395.379882812 665.233398438 -414.106445312 648.842773438 c 1
 -365.740234375 611.954101562 -316.948242188 560.630859375 -271.5234375 495.7578125 c 1
 -259.938476562 503.869140625 l 1
-117.305664062 501.77734375 m 1
 -137.774414062 552.185546875 -182.858398438 632.934570312 -220.23828125 680.81640625 c 1
 -220.23828125 680.81640625 -241.376953125 672.0390625 -261.181640625 656.969726562 c 1
 -215.456054688 616.854492188 -170.293945312 562.310546875 -129.418945312 494.478515625 c 1
 -117.305664062 501.77734375 l 1
EndSplineSet
Fore
Refer: 94 768 N 0.970436 -0.241359 0.241359 0.970436 -64.5812 -29.2949 2
Refer: 94 768 N 0.984808 -0.173648 0.173648 0.984808 -171.109 -22.0343 2
EndChar
StartChar: uni0313
Encoding: 787 787 111
Width: 0
VWidth: 1159
Flags: W
HStem: 452.953 187.434
VStem: -212.096 108.5<569.364 602.272>
AnchorPoint: "Top" -198.5 414 mark 0
LayerCount: 2
Fore
SplineSet
-205.33203125 452.953125 m 1
 -211.974609375 463.280273438 l 1
 -185.810546875 479.440429688 -152.84375 516.497070312 -163.6171875 540.352539062 c 0
 -171.3125 557.280273438 -188.240234375 568.823242188 -204.400390625 577.288085938 c 0
 -208.248046875 578.827148438 -212.095703125 581.905273438 -212.095703125 586.522460938 c 3
 -212.095703125 591.139648438 -208.248046875 592.677734375 -204.400390625 594.216796875 c 0
 -188.240234375 602.681640625 -175.9296875 614.993164062 -167.46484375 631.153320312 c 0
 -165.92578125 635.000976562 -163.6171875 640.38671875 -159 640.38671875 c 3
 -154.3828125 640.38671875 -152.07421875 635.000976562 -150.53515625 631.153320312 c 0
 -142.071289062 614.993164062 -128.219726562 602.681640625 -112.060546875 594.216796875 c 0
 -108.212890625 592.677734375 -103.595703125 591.139648438 -103.595703125 586.522460938 c 3
 -103.595703125 581.905273438 -114.53125 502.970703125 -205.33203125 452.953125 c 1
EndSplineSet
Validated: 33
EndChar
StartChar: uni0315
Encoding: 789 789 113
Width: 0
Flags: HW
HStem: 452.494 200.751
VStem: -49.75 41<581.48 644.952>
AnchorPoint: "TopRight" -110.5 531 mark 0
LayerCount: 2
Fore
SplineSet
-49.75 730.245117188 m 1
 -8.75 720.245117188 l 1
 -22.3867979021 657.436585347 -59.6085214452 580.670714276 -112 529.494140625 c 1
 -120 539.494140625 l 1
 -78.6764581132 596.264899384 -58.8145298113 661.57512189 -49.75 730.245117188 c 1
EndSplineSet
EndChar
StartChar: uni031B
Encoding: 795 795 99
Width: 0
Flags: HW
HStem: 330 18<-84.5 -47.4434>
VStem: 12.8818 62.7432<400.38 466.056>
AnchorPoint: "Horn" -73.5 341.8 mark 0
LayerCount: 2
Fore
SplineSet
12.8818359375 414.884765625 m 3
 12.8818359375 428.595703125 2.005859375 439.401367188 -15.744140625 450.72265625 c 1
 -6.4501953125 476.256835938 12.16015625 492.322265625 32.20703125 492.322265625 c 3
 58.421875 492.322265625 75.625 468.857421875 75.625 444.775390625 c 3
 75.625 401.475637139 -6.40890650401 337.224078323 -73.9999983559 330.561695004 c 0
 -77.5443502406 330.212331941 -81.0489878559 330.021325271 -84.5 330 c 1
 -85 348 l 1
 -81.3939546618 348.12104869 -77.7150547845 348.468830552 -74.0000010773 349.022429666 c 0
 -32.7840551548 355.164228125 12.8818359375 386.638764083 12.8818359375 414.884765625 c 3
EndSplineSet
EndChar
StartChar: uni0328
Encoding: 808 808 254
Width: 0
Flags: HW
HStem: -293.658 42.1279<-199.268 -133.311>
VStem: -276.088 56.0879<-231.275 -127.858>
AnchorPoint: "Ogonek" -104.35 21.6582 mark 0
LayerCount: 2
Back
SplineSet
-95.3691 20.543 m 1
 -201.95 -35.7324 -204.25 -107.183 -204.25 -131.732 c 3
 -204.25 -153.328 -189.421 -178.737 -165.931 -178.737 c 3
 -149.988 -178.737 -124.845 -170.789 -105.202 -153.458 c 9
 -97.4023 -160.858 l 1
 -120.598 -205.316 -159.345 -223.865 -189.325 -223.865 c 3
 -216.46 -223.865 -257.458 -214.663 -257.458 -161.567 c 3
 -257.458 -102.31 -200.914 -20.3279 -101.068 30.7617 c 1
 -95.3691 20.543 l 1
EndSplineSet
Fore
SplineSet
-100.140625 12.54296875 m 5
 -185.388487739 -39.8765842008 -220 -115.380448436 -220 -167 c 7
 -220 -220.067559606 -191.52056464 -251.530273438 -155.484375 -251.530273438 c 7
 -141.490987869 -251.530273438 -124.689548936 -244.584130641 -107.44921875 -229.2578125 c 5
 -107.44921875 -229.2578125 -101.170416998 -233.972499416 -99.650390625 -237.658203125 c 5
 -121.0234375 -269.5546875 -157.032226562 -293.658203125 -189.87890625 -293.658203125 c 7
 -235.607111283 -293.658203125 -276.087890625 -258.805289088 -276.087890625 -200.493164062 c 7
 -276.087890625 -150.739517616 -231.947046648 -54.4937105427 -105.717773438 23.103515625 c 5
 -100.140625 12.54296875 l 5
EndSplineSet
EndChar
StartChar: uni032A
Encoding: 810 810 695
Width: 0
UnlinkRmOvrlpSave: 1
Flags: HW
HStem: -117.538 35.0764<-287 -102>
AnchorPoint: "Bottom" -193 -15 mark 0
LayerCount: 2
Back
SplineSet
-287 -172.595703125 m 29xb0
 -287 -76.095703125 l 29
 -102 -76.095703125 l 29
 -102 -172.595703125 l 29
 -126 -172.595703125 l 29xb0
 -126 -118.095703125 l 29
 -263 -118.095703125 l 29x70
 -263 -172.595703125 l 29
 -287 -172.595703125 l 29xb0
EndSplineSet
Fore
Refer: 1970 58113 N 0 0.115 -0.875 0 -110 -191 2
Refer: 1970 58113 N 0 0.115 -0.875 0 -279 -191 2
Refer: 1972 58115 N 0.185 0 0 0.923063 -287 -100 2
EndChar
StartChar: uni033B
Encoding: 827 827 870
Width: 0
UnlinkRmOvrlpSave: 1
Flags: HW
HStem: -193 18<-260 -128> -82 18<-260 -128>
AnchorPoint: "Bottom" -193 -15 mark 0
LayerCount: 2
Back
SplineSet
-153.167 -87.8828 m 29
 -235.167 -87.8828 l 29
 -235.167 -167.883 l 29
 -153.167 -167.883 l 29
 -153.167 -87.8828 l 29
-267.5 -56.5488 m 25
 -120.837 -56.5469 l 25
 -120.833 -199.549 l 25
 -267.5 -199.549 l 25
 -267.5 -56.5488 l 25
EndSplineSet
Fore
Refer: 1970 58113 N -0.132 0 -0 -1 -128 -184 2
Refer: 1970 58113 N -0.132 0 -0 -1 -128 -73 2
Refer: 1970 58113 N 0 0.129 -1 0 -251 -193 2
Refer: 1970 58113 N 0 0.129 -1 0 -137 -193 2
EndChar
StartChar: uni0357
Encoding: 855 855 2025
Width: 0
Flags: HW
HStem: 485 32<-225 -185.058> 605 32<-225 -184.551>
VStem: -174 32<528.768 593.857>
AnchorPoint: "TopMark" -200 442 mark 0
AnchorPoint: "TopMark" -198 622 basemark 0
AnchorPoint: "Top" -198 455 mark 0
LayerCount: 2
Fore
SplineSet
-219 517 m 5
 -196 517 -174 536 -174 562 c 7
 -174 586 -195 605 -219 605 c 5
 -225 605 l 5
 -225 637 l 5
 -219 637 l 5
 -177 637 -142 604 -142 562 c 7
 -142 517 -179 485 -219 485 c 5
 -225 485 l 5
 -225 517 l 5
 -219 517 l 5
EndSplineSet
EndChar
StartChar: tonos
Encoding: 900 900 966
Width: 189
Flags: W
HStem: 494 159
VStem: 27.002 177
AnchorPoint: "Top" 43.501 402 mark 0
LayerCount: 2
Back
SplineSet
27.001953125 444 m 21
 59.001953125 488 122.196289062 555.5234375 170.001953125 593 c 13
 170.001953125 593 188.40625 579.393554688 204.001953125 560 c 5
 149.96484375 532.0703125 93.001953125 490 37.001953125 434 c 13
 27.001953125 444 l 21
EndSplineSet
Fore
Refer: 92 769 N 1 0 0 1 253.002 0 2
Validated: 1
EndChar
StartChar: dieresistonos
Encoding: 901 901 967
Width: 317
Flags: HMW
AnchorPoint: "Top" 157.5 402 mark 0
LayerCount: 2
Back
SplineSet
147.001953125 544 m 17
 179.001953125 588 242.196289062 655.5234375 290.001953125 693 c 9
 290.001953125 693 308.40625 679.393554688 324.001953125 660 c 1
 269.96484375 632.0703125 213.001953125 590 157.001953125 534 c 9
 147.001953125 544 l 17
20 485 m 3
 20 502.797851562 34.7626953125 517.232421875 53 517.232421875 c 3
 71.2373046875 517.232421875 86 502.797851562 86 485 c 3
 86 467.239257812 71.2373046875 452.767578125 53 452.767578125 c 3
 34.7626953125 452.767578125 20 467.239257812 20 485 c 3
228 485 m 3
 228 502.797851562 242.762695312 517.232421875 261 517.232421875 c 3
 279.237304688 517.232421875 294 502.797851562 294 485 c 3
 294 467.239257812 279.237304688 452.767578125 261 452.767578125 c 3
 242.762695312 452.767578125 228 467.239257812 228 485 c 3
EndSplineSet
Fore
Refer: 2358 57344 N 1 0 0 0.976744 261 485 2
Refer: 2358 57344 N 1 0 0 0.976744 53 485 2
Refer: 966 900 N 1 0 0 1 120 100 2
Validated: 1
EndChar
StartChar: Delta
Encoding: 916 916 979
AltUni2: 002206.ffffffff.0
Width: 682
Flags: HW
HStem: -5 21G<16.25 26.2959> 2.27079 57.029<145.465 536.393>
VStem: 335 43<632.023 712>
AnchorPoint: "Bottom" 338 -15 basechar 0
AnchorPoint: "Top" 352 699 basechar 0
LayerCount: 2
Fore
SplineSet
454.5 59.2998046875 m 1x20
 513.87890625 59.5244140625 534.5 59.2998046875 536.5 65.2998046875 c 1
 481.580078125 199.086914062 379.48828125 426.046875 333.5 543.799804688 c 1
 312.372070312 507.208984375 156.251953125 196.260742188 108.5 75.2998046875 c 1
 118.5 63.2998046875 123.969726562 57.7900390625 215.5 59.2998046875 c 9
 454.5 59.2998046875 l 1x20
12 -5 m 5xa0
 20.5 27.2998046875 46.451171875 58.6533203125 57 80 c 0
 160.27734375 289 244.142578125 470 319 640 c 0
 335.463867188 677.388671875 331 679 335 712 c 9
 378 712 l 9
 383 685 377.799804688 680.927734375 392 642 c 0
 474.073242188 417 522.873046875 281 636 62 c 0
 656.85546875 21.6279296875 659.5 31.7998046875 675 -4 c 5
 644.291253472 0.250766878382 506.778928135 2.27079066363 364.492942458 2.27079066363 c 0x60
 205.521788485 2.27079066363 40.5917644625 -0.250766878382 12 -5 c 5xa0
EndSplineSet
Position2: "cpsp-1" dx=0 dy=0 dh=50 dv=100
Substitution2: "c2pc-1" delta.pcap
Substitution2: "c2sc-1" delta.smcp
EndChar
StartChar: Theta
Encoding: 920 920 983
Width: 793
Flags: HW
HStem: -16 33<341.371 514.276> 338.5 61<269.644 572> 456.5 20G<220.5 253.556 581.5 612.5> 685 33<297.104 456.595>
VStem: 23 82<266.508 463.741> 220.5 32<262.5 322.557 424.211 474.5> 588.5 29<261.017 313.193 419.193 470.5> 689 82<227.806 435.778>
AnchorPoint: "Bottom" 413 -15 basechar 0
AnchorPoint: "Top" 401 695 basechar 0
LayerCount: 2
Fore
SplineSet
571.5 463.5 m 1
 569.443359375 408.1640625 569.918945312 313.51171875 576.5 254.5 c 9
 558.5 252.5 l 1
 547.654296875 318.9609375 539.518554688 317.853515625 511.5 324.5 c 0
 503.350020984 325.5 440.869632941 331.5 396.5 331.5 c 27
 348.859403722 331.5 282.16168572 326.5 273.5 324.5 c 0
 245.62890625 318.5 243.565429688 290.5 241.5 254.5 c 9
 220.5 255.5 l 1
 226.977539062 327.940429688 227.790039062 394.831054688 220.5 467.5 c 9
 240.5 469.5 l 1
 244.611328125 439.211914062 246.666992188 413.513671875 277.5 402.5 c 0
 285.260601622 398.5 305.093934955 392.5 396.5 392.5 c 3
 485.091903559 392.5 504.076081605 396.5 509.5 397.5 c 0
 541.5 403.5 549.5 399.5 553.5 464.5 c 9
 571.5 463.5 l 1
EndSplineSet
Refer: 990 927 N 1 0 0 1 0 0 2
Position2: "cpsp-1" dx=0 dy=0 dh=50 dv=100
Substitution2: "c2pc-1" theta.pcap
Substitution2: "c2sc-1" theta.smcp
EndChar
StartChar: Phi
Encoding: 934 934 996
Width: 714
UnlinkRmOvrlpSave: 1
Flags: HW
HStem: -4 19<220.07 293.084 438.805 518.83> 104 42<279.739 473.933> 545 45<236.268 432.867> 692 19<224.92 288.973 458.377 525.62>
VStem: 41 88<284.198 426.74> 220.07 305.55 581 92<254.978 409.987>
LayerCount: 2
Fore
SplineSet
331 545 m 3
 219 545 129 472 129 370 c 3
 129 254 243 146 379 146 c 3
 501 146 581 232 581 328 c 3
 581 443 468 545 331 545 c 3
362 590 m 3
 534 590 673 478 673 342 c 3
 673 211 541 104 363 104 c 3
 185 104 41 210 41 342 c 3
 41 474 187 590 362 590 c 3
EndSplineSet
Refer: 984 921 N 0.97 0 0 1 190 0 2
Position2: "cpsp-1" dx=0 dy=0 dh=50 dv=100
Substitution2: "c2pc-1" phi.pcap
Substitution2: "c2sc-1" phi.smcp
EndChar
StartChar: eta
Encoding: 951 951 1009
Width: 490
UnlinkRmOvrlpSave: 1
Flags: HMW
AnchorPoint: "Top" 316.409 465 basechar 0
AnchorPoint: "Bottom" 118.409 -15 basechar 0
LayerCount: 2
Fore
SplineSet
46 408 m 3
 126.099609375 408 172 304 157 110 c 1
 130.073242188 110 114.926757812 110 88 110 c 1
 95.4619140625 167.861328125 102.8203125 226.01171875 121.741210938 274 c 0
 155.233398438 358.943359375 229.970703125 420 298 420 c 3
 422.14453125 420 430 304.166015625 430 256 c 3
 430 189.516601562 392 -41.9677734375 392 -104 c 3
 392 -153.842773438 404 -179.592773438 483 -195 c 1
 479.400390625 -217.584960938 477.599609375 -229.415039062 474 -252 c 1
 357.290039062 -252 340 -212.801757812 340 -150 c 3
 340 -39.9814453125 394 123 394 254 c 3
 394 302.041992188 371.380859375 354 324 354 c 3
 277.956054688 354 219.686523438 336.111328125 190 252 c 0
 171.876953125 200.651367188 169.661132812 167.263671875 152 -3 c 1
 138 -14 84 -4 70 0 c 1
 75.546875 88.4150390625 100 202.23828125 100 285 c 3
 100 316.42578125 86.8466796875 347.671875 54.8720703125 347.671875 c 3
 43.1884765625 347.671875 36.591796875 345.543945312 30 341 c 1
 25.693359375 347.818359375 11 367.262695312 11 394 c 1
 16.302734375 399.600585938 27.53515625 408 46 408 c 3
EndSplineSet
Substitution2: "pcap-1" h.pcap
Substitution2: "smcp-1" h.smcp
EndChar
StartChar: afii10053
Encoding: 1028 1028 1099
Width: 666
VWidth: 1159
UnlinkRmOvrlpSave: 1
Flags: HW
HStem: -12 26<345.649 498.05> 332 36<126 466.393> 697 30<308.728 483.108>
VStem: 23 90<225.853 484.692> 490 36<248 304.348> 600 20<550.9 621.644> 625 21<128.174 155>
AnchorPoint: "Top" 433 699 basechar 0
AnchorPoint: "Bottom" 423 -15 basechar 0
LayerCount: 2
Fore
SplineSet
126 368 m 1
 209.361328125 370 417.763671875 370 436 371 c 0
 473 376 478 402 494 446 c 1
 528 439 l 1
 511 375 515 312 526 248 c 1
 490 239 l 1
 470 310 477 323 436 327 c 0
 378.689453125 332 247.133789062 331 126 332 c 1
 126 368 l 1
EndSplineSet
Refer: 28 67 N 1 0 0 1 0 0 2
Position2: "cpsp-1" dx=0 dy=0 dh=50 dv=100
EndChar
StartChar: afii10077
Encoding: 1083 1083 1250
Width: 486
Flags: HW
HStem: -7 34<261.779 314.836> -6.2998 83.8994<38.5089 132.431> 369.1 34.3711<246.126 320.263> 390.8 20G<185.331 194.992>
VStem: 322.2 76<32.1794 292.172>
LayerCount: 2
Fore
SplineSet
452.200195312 409.400390625 m 1x28
 453.599609375 373.299804688 l 1
 424.71603695 371.900390625 407.28654843 378.762156067 403.799804688 350.200195312 c 0
 396.099609375 286.265196328 393.107456999 189.585686788 398.200195312 52.2001953125 c 0
 399.225939259 24.900390625 425.900322386 28.400390625 453.599609375 27 c 1xa8
 452.900390625 -6.2998046875 l 1x48
 391.065429688 1.400390625 315.762695312 2.7998046875 262.5 -7 c 1
 259 27 l 1
 290.865984284 27 321.133879489 30.9537181786 322.200195312 59.900390625 c 0
 325.234711477 143.433250987 328.192345815 236.38617929 320.799804688 348.799804688 c 0
 320.099609375 359.299804688 310.4296875 369.099609375 303.299804688 369.099609375 c 3xa8
 283.484182988 369.099609375 267.088630569 370.951985798 245.099609375 364.900390625 c 0
 234.50390625 362.171875 220.612001334 351.826832701 218.474609375 333.400390625 c 0
 214.010742188 294.003338179 202.146192753 217.629457194 196.799804688 161 c 0
 191.569335938 106.883789062 178.730017545 56.2733748935 150.599609375 30.099609375 c 0
 126.595047141 8.8359375 103.649066674 -6.2998046875 67.2001953125 -6.2998046875 c 3
 51.080078125 -6.2998046875 25.8935546875 1.400390625 13.2998046875 16.7998046875 c 1
 14.1572265625 51.6044921875 13.2998046875 51.6044921875 55.2998046875 99.2998046875 c 1
 75.0166015625 90 86.8212890625 77.599609375 109.900390625 77.599609375 c 3
 143.262695312 77.599609375 155.464541211 123.199036102 161.885742188 157.166992188 c 0
 175.8359375 260.415414225 185.161132812 379.056511082 185.5 410.799804688 c 1x58
 204.483398438 406.75 222.647954618 404.919401795 240.799804688 404.5 c 0
 271.104492188 403.799804688 333.030273438 403.470703125 341.954101562 403.470703125 c 3
 368.998046875 403.470703125 374.040039062 403.299804688 452.200195312 409.400390625 c 1x28
EndSplineSet
EndChar
StartChar: uni0592
Encoding: 1426 1426 2459
Width: 0
VWidth: 0
Flags: W
HStem: 662 70<-402.248 -337.752 -248.248 -183.752> 738 70<-328.248 -263.752>
VStem: -405 70<664.752 729.248> -331 70<740.752 805.248> -251 70<664.752 729.248>
AnchorPoint: "Top" 270 628 mark 0
LayerCount: 2
Fore
SplineSet
233 773 m 0
 233 792.32 248.68 808 268 808 c 0
 287.32 808 303 792.32 303 773 c 0
 303 753.68 287.32 738 268 738 c 0
 248.68 738 233 753.68 233 773 c 0
313 697 m 0
 313 716.32 328.68 732 348 732 c 0
 367.32 732 383 716.32 383 697 c 0
 383 677.68 367.32 662 348 662 c 0
 328.68 662 313 677.68 313 697 c 0
159 697 m 0
 159 716.32 174.68 732 194 732 c 0
 213.32 732 229 716.32 229 697 c 0
 229 677.68 213.32 662 194 662 c 0
 174.68 662 159 677.68 159 697 c 0
EndSplineSet
EndChar
StartChar: uni0593
Encoding: 1427 1427 2460
Width: 0
VWidth: 0
Flags: W
HStem: 656 236.769
VStem: 174.188 164.359
AnchorPoint: "Top" 258 628 mark 0
LayerCount: 2
Fore
SplineSet
230.086 838.13 m 1
 329.688 807.816 l 2
 335.232 806.129 338.586 801.572 338.547 795.775 c 0
 338.508 789.979 335.094 785.467 329.526 783.854 c 2
 231.638 755.479 l 1
 327.735 725.802 l 2
 333.174 724.122 336.482 719.688 336.546 713.997 c 0
 336.609 708.306 333.399 703.8 328 702 c 2
 190 656 l 2
 183.454 653.818 176.37 657.359 174.188 663.905 c 0
 172.007 670.451 175.548 677.535 182.094 679.717 c 2
 283.155 713.404 l 1
 184.358 743.915 l 2
 178.829 745.623 175.496 750.18 175.547 755.967 c 0
 175.598 761.754 179.009 766.253 184.567 767.864 c 2
 282.155 796.15 l 1
 184.407 825.9 l 2
 178.922 827.57 175.584 832.044 175.547 837.777 c 0
 175.51 843.511 178.79 848.028 184.253 849.769 c 2
 319.253 892.769 l 2
 325.827 894.862 332.863 891.227 334.957 884.652 c 0
 337.051 878.078 333.415 871.042 326.841 868.948 c 2
 230.086 838.13 l 1
EndSplineSet
EndChar
StartChar: uni0597
Encoding: 1431 1431 2464
Width: 0
VWidth: 0
Flags: W
HStem: 668 147.547<-307.291 -258.529>
VStem: -356.273 147.546<717.601 766.267>
AnchorPoint: "Top" 281 628 mark 0
LayerCount: 2
Fore
SplineSet
213.857 728.131 m 4
 208.726 731.264 207.727 737.246 207.727 742.273 c 4
 207.727 747.301 209.77 752.328 213.857 756.416 c 4
 233.795 768.873 252.163 784.931 266.857 809.416 c 4
 270.944 813.503 275.973 815.547 281 815.547 c 4
 286.027 815.547 291.055 813.504 295.143 809.416 c 4
 307.75 788.003 325.872 770.08 349.143 755.416 c 4
 353.231 751.327 355.273 746.301 355.273 741.273 c 4
 355.273 736.246 354.472 729.914 349.143 727.131 c 4
 324 714 312 694 296.143 674.131 c 4
 292.538 669.613 287.027 668 282 668 c 4
 276.973 668 271.325 669.221 267.857 674.131 c 4
 251 698 237 714 213.857 728.131 c 4
EndSplineSet
EndChar
StartChar: uni0598
Encoding: 1432 1432 2465
Width: 0
VWidth: 0
Flags: W
HStem: 658.979 35<292.163 359.287> 738.09 35<163.106 228.098 319.146 359.334>
VStem: 126.797 35<695.418 736.205> 360.592 35<696.366 738.345>
LayerCount: 2
Fore
SplineSet
189.792 738.09 m 0
 171.529 738.09 161.797 726.011 161.797 714.741 c 0
 161.797 687.909 197.105 702.459 194.408 676.212 c 0
 191.803 650.854 152.35 658.611 135.344 685.142 c 0
 128.969 695.087 126.797 705.854 126.797 714.741 c 0
 126.797 749.75 157.1 773.09 189.792 773.09 c 0
 255.627 773.09 282.81 693.979 330.945 693.979 c 0
 346.05 693.979 360.592 703.525 360.592 718.602 c 0
 360.592 731.053 351.078 738.712 340.876 738.712 c 0
 308.148 738.712 317.433 771.445 335.078 773.395 c 0
 336.366 773.537 339.582 773.712 340.876 773.712 c 0
 370.209 773.712 395.592 750.453 395.592 718.602 c 0
 394.658 681.867 364.374 658.979 330.945 658.979 c 0
 264.394 658.979 236.963 738.09 189.792 738.09 c 0
  Spiro
    135.344 685.142 o
    130.298 695.251 o
    127.594 705.337 o
    126.797 714.741 o
    127.07 720.273 o
    127.901 725.796 o
    129.301 731.233 o
    136.396 745.991 o
    147.088 757.95 o
    160.448 766.625 o
    170.052 770.309 o
    179.92 772.421 o
    189.792 773.09 o
    194.86 772.918 o
    199.893 772.407 o
    204.844 771.574 o
    216.868 768.2 o
    229.38 762.637 o
    242.321 754.643 o
    252.439 746.837 o
    261.656 738.686 o
    270.166 730.579 o
    279.269 721.843 o
    288.165 713.795 o
    297.026 706.788 o
    306.078 701.09 o
    315.324 696.899 o
    324.497 694.49 o
    326.662 694.203 o
    328.796 694.034 o
    330.945 693.979 o
    337.633 694.561 o
    343.817 696.253 o
    349.209 698.96 o
    352.315 701.307 o
    355.018 704.043 o
    357.213 707.048 o
    358.871 710.299 o
    359.997 713.754 o
    360.544 717.238 o
    360.584 717.783 o
    360.593 718.055 o
    360.592 718.602 o
    359.506 725.16 o
    357.087 730.11 o
    354.626 733.16 o
    351.724 735.45 o
    347.058 737.701 o
    340.876 738.712 v
    340.794 738.699 o
    339.84 738.663 o
    338.922 738.605 o
    329.89 740.008 o
    322.946 745.571 o
    319.605 754.078 o
    321.008 763.11 o
    326.571 770.054 o
    335.078 773.395 o
    336.864 773.54 o
    339.086 773.661 o
    340.876 773.712 o
    354.827 771.923 o
    367.822 766.661 o
    379.138 758.145 o
    388.171 746.489 o
    393.717 733.035 o
    395.592 718.602 v
    395.57 718.17 o
    395.518 716.317 o
    395.456 714.762 o
    394.045 705.598 o
    391.192 696.842 o
    387.014 688.693 o
    381.675 681.351 o
    375.352 674.949 o
    368.231 669.581 o
    355.538 663.256 o
    342.816 659.936 o
    330.945 658.979 o
    326.942 659.081 o
    322.993 659.394 o
    319.012 659.923 o
    303.476 663.934 o
    289.319 670.335 o
    276.647 678.332 o
    265.402 687.176 o
    255.227 696.375 o
    245.834 705.421 o
    237.855 713.002 o
    229.986 719.967 o
    222.129 726.055 o
    212.218 732.101 o
    204.062 735.592 o
    197.919 737.267 o
    195.215 737.721 o
    192.492 737.997 o
    189.792 738.09 o
    184.712 737.744 o
    179.93 736.724 o
    175.587 735.068 o
    168.085 729.677 o
    164.126 724.172 o
    162.699 720.767 o
    162.204 718.835 o
    161.9 716.812 o
    161.797 714.741 o
    162.195 710.66 o
    163.266 707.043 o
    164.81 704.029 o
    166.825 701.445 o
    171.425 697.766 o
    178.788 695.408 o
    187.321 692.133 o
    192.936 685.232 o
    194.408 676.212 o
    191.133 667.679 o
    184.232 662.064 o
    175.212 660.592 o
    154.213 667.307 o
    141.09 677.783 o
    0 0 z
  EndSpiro
EndSplineSet
EndChar
StartChar: uni059C
Encoding: 1436 1436 2469
Width: 0
VWidth: 0
Flags: W
HStem: 744.764 38<-281.622 -188.031>
VStem: -332.998 30.998<642.834 718.932>
AnchorPoint: "Top" -306 628 mark 0
LayerCount: 2
Fore
SplineSet
-213.597 744.764 m 0
 -274.578 744.764 -301.243 729.92 -302 658 c 0
 -302.102 648.341 -308.024 641.584 -317.684 641.686 c 0
 -327.343 641.787 -333.1 648.71 -332.998 658.369 c 0
 -331.973 755.854 -288.408 782.764 -213.597 782.764 c 0
 -211.158 782.764 -208.639 782.735 -206.119 782.681 c 0
 -196.461 782.471 -187.793 772.463 -188.003 762.805 c 0
 -188.213 753.146 -197.221 744.479 -206.879 744.688 c 0
 -209.151 744.737 -211.444 744.764 -213.597 744.764 c 0
EndSplineSet
EndChar
StartChar: uni05A1
Encoding: 1441 1441 2474
Width: 0
VWidth: 0
Flags: W
HStem: 723 23<-272 -241.231>
VStem: -326.81 149.924
LayerCount: 2
Fore
SplineSet
258 742 m 4
 262.452 760.319 264.806 779.148 265 798 c 4
 265.028 800.745 265.111 803.536 265.987 806.138 c 4
 266.863 808.74 268.494 811.075 270.614 812.819 c 4
 272.734 814.563 275.282 815.73 277.912 816.517 c 4
 280.542 817.303 283.265 817.757 286 818 c 4
 288.409 818.214 290.847 818.254 293.234 817.869 c 4
 295.622 817.484 297.967 816.63 299.874 815.144 c 4
 301.782 813.659 303.182 811.54 303.81 809.204 c 4
 304.438 806.869 304.274 804.402 304 802 c 4
 302.854 791.922 301.184 781.905 299 772 c 4
 297.066 763.232 294.73 754.553 292 746 c 5
 299.621 746.608 307.125 748.654 314 752 c 4
 332.107 760.812 345.297 779.045 348 799 c 4
 348.354 801.612 348.61 804.26 349.446 806.76 c 4
 350.282 809.259 351.68 811.579 353.566 813.42 c 4
 355.452 815.261 357.783 816.617 360.263 817.51 c 4
 362.743 818.403 365.368 818.866 368 819 c 4
 370.821 819.144 373.678 818.914 376.391 818.127 c 4
 379.104 817.339 381.675 815.945 383.617 813.894 c 4
 385.56 811.843 386.802 809.147 387.114 806.34 c 4
 387.426 803.532 386.804 800.708 386 798 c 4
 377.396 769.031 355.624 744.255 328 732 c 4
 314.209 725.882 299.086 722.788 284 723 c 5
 281.485 715.155 278.477 707.468 275 700 c 4
 271.472 692.422 267.461 685.069 263 678 c 4
 260.683 674.328 258.103 670.657 254.423 668.354 c 4
 252.583 667.201 250.498 666.417 248.339 666.192 c 4
 246.18 665.968 243.956 666.314 241.993 667.24 c 4
 240.03 668.167 238.345 669.669 237.19 671.507 c 4
 236.035 673.345 235.415 675.5 235.318 677.669 c 4
 235.221 679.837 235.637 682.008 236.341 684.061 c 4
 237.045 686.115 238.032 688.057 239 690 c 4
 247.246 706.552 253.633 724.03 258 742 c 4
  Spiro
    258 742 o
    265 798 ]
    286 818 o
    304 802 [
    299 772 o
    292 746 v
    314 752 o
    348 799 ]
    368 819 o
    386 798 [
    328 732 o
    284 723 v
    275 700 o
    263 678 ]
    239 690 [
    0 0 z
  EndSpiro
EndSplineSet
EndChar
StartChar: uni05A7
Encoding: 1447 1447 2480
Width: 0
VWidth: 0
Flags: W
HStem: -202 29<-336.179 -246.828> -73.5352 27<-310.637 -229.714>
VStem: -348.22 35<-101.09 -76.9752> -245.838 35<-171.566 -146.047>
LayerCount: 2
Fore
SplineSet
215.78 -93.792 m 0
 215.78 -74.5205 226.4 -45.6123 289.77 -45.6123 c 0
 303.177 -45.6123 307.801 -46.5352 319.499 -46.5352 c 2
 319.949 -46.5352 l 2
 343.001 -46.5146 343.115 -73.5146 319.98 -73.5352 c 2
 319.515 -73.5352 l 2
 306.107 -73.5352 301.466 -74.6123 289.77 -74.6123 c 0
 255.942 -74.6123 250.78 -85.5205 250.78 -90.792 c 0
 250.78 -95.7646 255.529 -98.5625 256.375 -99.0801 c 1
 255.965 -98.8281 257.199 -99.5635 257.609 -99.7754 c 0
 274.198 -108.359 336.386 -95.7559 351.184 -142.266 c 0
 352.515 -146.449 353.162 -150.785 353.162 -155.059 c 0
 353.162 -173.733 340.882 -202 288 -202 c 0
 280.278 -202 272.834 -201.161 257.39 -201.161 c 0
 250.744 -201.161 227.465 -209.191 226.483 -187.839 c 0
 225.617 -168.996 237.628 -172.161 257.39 -172.161 c 0
 272.834 -172.161 280.278 -173 288 -173 c 0
 313.324 -173 318.162 -162.835 318.162 -158.059 c 0
 318.162 -132.252 233.974 -160.501 217.57 -105.976 c 0
 216.167 -101.309 215.78 -97.4472 215.78 -93.792 c 0
EndSplineSet
EndChar
StartChar: uni05A9
Encoding: 1449 1449 2482
Width: 0
VWidth: 0
Flags: W
HStem: 696.997 21G<222.542 227.028> 754.161 30.009<18.9654 115.038> 960.408 30.001<18.0937 113.54>
VStem: -52.2383 29.9951<825.19 920.067> 154.021 29.997<823.054 920.142>
LayerCount: 2
Fore
SplineSet
66.2549 784.17 m 0
 110.377 784.17 154.021 818.184 154.021 872.592 c 0
 154.021 924.05 111.247 960.408 65.75 960.408 c 0
 14.7041 960.408 -22.2432 917.809 -22.2432 872.48 c 0
 -22.2432 823.811 18.0586 784.17 66.2549 784.17 c 0
65.7256 990.409 m 0
 128.729 990.409 184.018 939.195 184.018 872.479 c 0
 184.018 858.107 180.637 828.121 158.817 799.623 c 1
 234.66 722.006 l 2
 237.641 718.956 238.357 715.182 238.357 711.979 c 0
 238.357 703.692 230.984 696.997 223.071 696.997 c 0
 222.013 696.997 216.913 697.281 212.375 701.919 c 2
 137.689 778.256 l 1
 117.972 762.968 94.3555 754.161 66.5615 754.161 c 0
 -2 754.161 -52.2383 810.857 -52.2383 872.644 c 0
 -52.2383 934.902 -1.46387 990.409 65.7256 990.409 c 0
EndSplineSet
EndChar
StartChar: uni05AA
Encoding: 1450 1450 2483
Width: 0
VWidth: 0
Flags: W
HStem: -0.0384962 141.038<-518.113 -98.1389> 433 141<-457.18 -178.509>
VStem: -525.062 506.242<6.11042 135.78>
LayerCount: 2
Fore
SplineSet
211.059 -47 m 0
 220.591 -47 228.559 -54.9678 228.559 -64.5 c 0
 228.559 -100.501 254.703 -137 287.059 -137 c 0
 316.902 -137 339.559 -100.734 339.559 -62.5 c 0
 339.559 -52.9678 347.527 -45 357.059 -45 c 0
 366.591 -45 374.559 -52.9678 374.559 -62.5 c 0
 374.559 -108.334 347.386 -172 287.059 -172 c 0
 227.534 -172 193.559 -112.499 193.559 -64.5 c 0
 193.559 -54.9678 201.527 -47 211.059 -47 c 0
EndSplineSet
EndChar
StartChar: afii57793
Encoding: 1460 1460 2493
Width: 0
VWidth: 0
Flags: W
HStem: -144 70<252.752 317.248>
VStem: 250 70<-141.248 -76.7518>
LayerCount: 2
Fore
SplineSet
250 -109 m 0
 250 -89.6797 265.68 -74 285 -74 c 0
 304.32 -74 320 -89.6797 320 -109 c 0
 320 -128.32 304.32 -144 285 -144 c 0
 265.68 -144 250 -128.32 250 -109 c 0
EndSplineSet
EndChar
StartChar: afii57798
Encoding: 1463 1463 2496
Width: 0
VWidth: 0
Flags: W
HStem: -115 35<-378.494 -189.506>
VStem: -378.5 189<-115 -80>
LayerCount: 2
Fore
SplineSet
357 -80 m 2
 366.66 -80 374.5 -87.8398 374.5 -97.5 c 0
 374.5 -107.16 366.66 -115 357 -115 c 2
 203 -115 l 2
 193.339 -115 185.5 -107.16 185.5 -97.5 c 0
 185.5 -87.8398 193.339 -80 203 -80 c 2
 357 -80 l 2
EndSplineSet
EndChar
StartChar: afii57797
Encoding: 1464 1464 2497
Width: 0
VWidth: 0
Flags: W
HStem: -115 35<-373.561 -292.018 -264.938 -185.453>
VStem: -313.964 63.8701<-233.369 -156.934> -292 27<-178.335 -115.125>
LayerCount: 2
Fore
SplineSet
301 -232 m 0xc0
 295.189 -234.937 288.563 -236.244 282.073 -235.727 c 0
 275.582 -235.209 269.242 -232.862 264 -229 c 0
 256.053 -223.146 250.802 -213.754 250.036 -203.913 c 0xc0
 249.27 -194.072 253.008 -183.967 260 -177 c 0
 262.659 -174.35 265.634 -171.972 267.798 -168.904 c 0
 269.963 -165.836 271.294 -162.22 271.835 -158.505 c 0
 272.377 -154.789 272.224 -151.012 272.088 -147.261 c 0
 271.951 -143.509 271.911 -139.753 272 -136 c 0
 272.061 -133.409 272.15 -130.81 271.879 -128.233 c 0
 271.607 -125.656 270.93 -123.081 269.549 -120.888 c 0
 268.169 -118.695 266.074 -116.961 263.656 -116.029 c 0
 261.238 -115.098 258.591 -115 256 -115 c 2
 206 -115 l 2
 203.777 -115 201.517 -114.928 199.407 -114.226 c 0
 197.297 -113.524 195.396 -112.218 193.978 -110.505 c 0
 192.561 -108.792 191.622 -106.72 191.025 -104.579 c 0
 190.428 -102.437 190.137 -100.219 190 -98 c 0
 189.858 -95.7055 189.879 -93.3905 190.252 -91.1221 c 0
 190.624 -88.8534 191.391 -86.6192 192.733 -84.7529 c 0
 194.076 -82.8865 196.004 -81.4493 198.18 -80.7061 c 0
 200.355 -79.9631 202.702 -79.941 205 -80 c 0
 231.328 -80.6753 257.664 -81.0087 284 -81 c 0
 309.67 -80.9916 335.339 -80.6582 361 -80 c 0
 363.459 -79.9369 365.955 -79.9367 368.326 -80.5889 c 0
 370.698 -81.2406 372.897 -82.5297 374.587 -84.3164 c 0
 376.278 -86.1033 377.454 -88.3414 378.149 -90.7012 c 0
 378.844 -93.0609 379.089 -95.5418 379 -98 c 0
 378.915 -100.347 378.522 -102.693 377.725 -104.903 c 0
 376.928 -107.113 375.702 -109.184 374.031 -110.835 c 0
 372.36 -112.486 370.252 -113.679 367.989 -114.311 c 0
 365.727 -114.943 363.349 -115 361 -115 c 2
 316 -115 l 2
 313.37 -115 310.689 -115.093 308.221 -116.002 c 0
 305.753 -116.911 303.587 -118.607 302.105 -120.78 c 0
 300.624 -122.952 299.82 -125.529 299.43 -128.13 c 0
 299.041 -130.73 299.021 -133.37 299 -136 c 0xa0
 298.97 -139.834 298.867 -143.667 298.715 -147.498 c 0
 298.563 -151.329 298.44 -155.188 299.024 -158.977 c 0
 299.607 -162.767 300.986 -166.446 303.178 -169.592 c 0
 305.371 -172.738 308.36 -175.22 311 -178 c 0
 317.746 -185.104 321.12 -195.268 320 -205 c 0
 319.345 -210.695 317.216 -216.21 313.906 -220.891 c 0
 310.596 -225.572 306.116 -229.414 301 -232 c 0xc0
  Spiro
    301 -232 o
    264 -229 o
    260 -177 ]
    272 -136 o
    256 -115 [
    206 -115 ]
    190 -98 o
    205 -80 [
    284 -81 o
    361 -80 ]
    379 -98 o
    361 -115 [
    316 -115 ]
    299 -136 o
    311 -178 [
    320 -205 o
    0 0 z
  EndSpiro
EndSplineSet
EndChar
StartChar: afii57839
Encoding: 1469 1469 2502
Width: 0
VWidth: 0
Flags: W
HStem: -208 161<262.5 297.5>
VStem: 262.5 35<-207.994 -47.0057>
LayerCount: 2
Fore
SplineSet
297.5 -190.5 m 2
 297.5 -200.16 289.66 -208 280 -208 c 0
 270.34 -208 262.5 -200.16 262.5 -190.5 c 2
 262.5 -64.5 l 2
 262.5 -54.8398 270.34 -47 280 -47 c 0
 289.66 -47 297.5 -54.8398 297.5 -64.5 c 2
 297.5 -190.5 l 2
EndSplineSet
EndChar
StartChar: afii57645
Encoding: 1470 1470 2503
Width: 412
VWidth: 0
Flags: W
HStem: 437 128<35.0493 369.163>
LayerCount: 2
Fore
SplineSet
33 539 m 0
 36.6643 546.898 41.6694 554.472 48.9579 559.234 c 0
 52.6021 561.615 56.7263 563.235 60.9959 564.084 c 0
 65.2654 564.933 69.6468 565 74 565 c 2
 344 565 l 2
 349.208 565 354.443 564.957 359.576 564.079 c 0
 364.71 563.201 369.73 561.477 374.14 558.707 c 0
 378.55 555.936 382.31 552.135 385.013 547.684 c 0
 387.716 543.232 389.356 538.168 390 533 c 0
 391.396 521.791 388.208 510.543 384.494 499.876 c 0
 380.78 489.209 376.993 478.566 373 468 c 0
 371.348 463.629 369.551 459.295 367.215 455.248 c 0
 364.879 451.201 361.964 447.451 358.355 444.484 c 0
 354.745 441.516 350.457 439.394 345.923 438.263 c 0
 341.39 437.132 336.673 437.017 332 437 c 2
 52 436 l 2
 47.0682 435.982 42.0915 436.042 37.2845 437.145 c 0
 32.4775 438.247 27.8845 440.395 24.1218 443.583 c 0
 20.359 446.771 17.469 450.946 15.6469 455.529 c 0
 13.8249 460.112 13.0442 465.068 13 470 c 0
 12.8921 482.033 16.7412 493.718 20.5452 505.134 c 0
 24.3491 516.55 27.9356 528.085 33 539 c 0
  Spiro
    33 539 o
    74 565 [
    344 565 ]
    390 533 o
    373 468 o
    332 437 [
    52 436 ]
    13 470 o
    0 0 z
  EndSpiro
EndSplineSet
EndChar
StartChar: afii57841
Encoding: 1471 1471 2504
Width: 0
VWidth: 0
Flags: W
HStem: 662 35<-401.494 -212.506>
VStem: -401.5 189<662 697>
AnchorPoint: "Top" 258 628 mark 0
LayerCount: 2
Fore
SplineSet
334 697 m 2
 343.66 697 351.5 689.16 351.5 679.5 c 0
 351.5 669.84 343.66 662 334 662 c 2
 180 662 l 2
 170.339 662 162.5 669.84 162.5 679.5 c 0
 162.5 689.16 170.339 697 180 697 c 2
 334 697 l 2
EndSplineSet
EndChar
StartChar: afii57842
Encoding: 1472 1472 2505
Width: 172
Flags: W
VStem: 68.5 35<-152.994 789.994>
LayerCount: 2
Fore
SplineSet
103.5 -135.5 m 2
 103.5 -145.16 95.6602 -153 86 -153 c 0
 76.3398 -153 68.5 -145.16 68.5 -135.5 c 2
 68.5 772.5 l 2
 68.5 782.16 76.3398 790 86 790 c 0
 95.6602 790 103.5 782.16 103.5 772.5 c 2
 103.5 -135.5 l 2
EndSplineSet
EndChar
StartChar: uni05C4
Encoding: 1476 1476 2509
Width: 0
VWidth: 0
Flags: W
HStem: 665.869 107.547<250.309 308.406>
VStem: 225.584 107.547<690.594 748.691>
AnchorPoint: "Top" 281 628 mark 0
LayerCount: 2
Fore
SplineSet
231.715 706 m 2
 227.627 710.087 225.584 715.115 225.584 720.143 c 0
 225.584 725.17 227.627 730.198 231.715 734.285 c 2
 264.715 767.285 l 2
 268.802 771.373 273.83 773.416 278.857 773.416 c 0
 283.885 773.416 288.913 771.373 293 767.285 c 2
 327 733.285 l 2
 331.087 729.198 333.131 724.17 333.131 719.143 c 0
 333.131 714.115 331.087 709.087 327 705 c 2
 294 672 l 2
 289.913 667.913 284.885 665.869 279.857 665.869 c 0
 274.83 665.869 269.802 667.913 265.715 672 c 2
 231.715 706 l 2
EndSplineSet
EndChar
StartChar: uni05C6
Encoding: 1478 1478 2511
Width: 299
VWidth: 0
Flags: W
HStem: 0 147<123.477 262.397>
VStem: 52.2786 214.857<18.5098 146.081>
AnchorPoint: "Top" 174.714 627 basechar 0
LayerCount: 2
Fore
SplineSet
135 0 m 2
 70.7113 7.87285e-015 52.2786 35.0203 52.2786 72.1541 c 0
 52.2786 77.438 52.5956 82.7433 53 88 c 2
 54 101 l 2
 56.4394 132.713 64.1181 173.396 98.428 287 c 2
 106.428 313 l 2
 121.975 362.604 152.493 356.705 159.79 389.803 c 0
 162.851 403.673 157.106 414.452 143.428 418 c 2
 128 422 l 2
 95.0818 430.536 62.3075 441.156 47 494 c 0
 43.1212 507.39 40.8755 521.302 40.8755 535.236 c 0
 40.8755 552.9 58.2309 630.024 81.427 630.024 c 0
 105.969 630.024 83.1234 594.102 104.87 578.504 c 0
 110.31 574.602 116.739 572.369 123 570 c 2
 149.428 560 l 2
 191.848 543.95 241.168 531.929 232 472 c 0
 219.257 388.729 165.321 372.488 145.142 307 c 0
 133.096 267.905 112.849 180.591 124.351 159.837 c 0
 131.517 146.911 144.007 147 152 147 c 2
 239 147 l 2
 249.881 147 267.136 145.559 267.136 119.571 c 0
 267.136 117.714 267.069 115.854 267 114 c 2
 264 33 l 2
 262.837 1.54281 244.223 -6.47043e-010 227 0 c 2
 135 0 l 2
  Spiro
    47 494 o
    50.428 583 o
    66.428 620 o
    86.428 629 o
    94.428 595 o
    123 570 [
    149.428 560 ]
    203.428 537 o
    226 515 o
    232 472 o
    193.714 385 o
    145.142 307 [
    131 252 o
    122.866 202.466 ]
    121 170 o
    152 147 [
    239 147 ]
    267 114 [
    264 33 ]
    227 0 [
    135 0 ]
    77 16 o
    53 88 [
    54 101 ]
    73.134 197.534 [
    98.428 287 o
    106.428 313 ]
    152.428 374 o
    158.428 407 o
    143.428 418 [
    128 422 ]
    63.428 459 o
    0 0 z
  EndSpiro
EndSplineSet
EndChar
StartChar: afii57664
Encoding: 1488 1488 2513
Width: 530
VWidth: 0
Flags: W
HStem: 0 21G<51.5543 149 450 479.406> 458 20G<374.433 426>
VStem: 28.9915 195.173<24.0166 137.005> 83 22<590.768 606> 120.184 47.9261<171.342 277.378> 284 50<571.957 609.325> 450 47.2803<-8 62.5468 362 460.494> 450 25<-8 23.9695 362 392.111>
AnchorPoint: "TopRight" 466 582 basechar 0
AnchorPoint: "Top" 261.474 627 basechar 0
LayerCount: 2
Fore
SplineSet
193 290 m 1xcc
 175.115441007 267.941153603 168.110059073 248.631639781 168.110059073 231.003052039 c 3xcc
 168.110059073 178.902683427 224.165 144.770203787 224.165 87.2999 c 0
 224.165 61.7852 211.171 -7.61350016235e-015 149 0 c 2
 60 0 l 2
 43.1087 0 28.9915 5.81096 28.9915 29.0548 c 0xe4
 28.9915 29.0848 37.8616146628 115.74693553 47 132 c 0
 68.9904 171.111 120.313937965 132.848223614 127.445 166.714 c 0
 130.079 179.223 120.184 184.585 120.184 212.632 c 0
 120.184 227.16449456 123.39749469 266.322585914 170.078125 310.890625 c 1
 193 290 l 1xcc
149 0 m 2
 60 0 l 2
 43.1087 0 28.9915 5.81096 28.9915 29.0548 c 0xe4
 28.9915 29.0848 37.8616146627 115.74693553 47 132 c 0
 68.9904 171.111 120.313937965 132.848223614 127.445 166.714 c 0
 130.079 179.223 120.184 184.585 120.184 212.632 c 0
 120.184 227.16449456 123.39749469 266.322585914 170.078125 310.890625 c 1025
385 478 m 1
 426 470 l 1
 396.792803911 399.446294054 360.40005275 349.712568933 324 300 c 1
 297 324 l 1
 331.720484135 367.999351942 363.866315353 415.503795403 385 478 c 1
105 606 m 1xd6
 111 560 61 544 129 488 c 0
 254.50482633 384.643084199 337 352 437 236 c 0
 476.98871967 189.613085183 497.280273438 142.618904646 497.280273438 90.494140625 c 3xd6
 497.280273438 51.882921233 483.811083034 11.789811376 475 -12 c 1xc5
 450 -8 l 1
 449.234856183 44.0798232262 406.4531673 99.9049313269 375 132 c 0
 326 182 177 264 99 370 c 0
 73.6650935368 404.42948827 55 448.547716098 55 520 c 3
 55 541.060666021 63.8677296454 579.821363616 83 610 c 1
 105 606 l 1xd6
334 620 m 1
 337.92537457 568.566473551 354.460794493 568.317417413 398 564 c 0
 476.98498168 556.167722601 498.280273438 509.525767519 498.280273438 460.494140625 c 3
 498.280273438 421.882921233 484.811083034 381.789811376 476 358 c 1
 454 362 l 1
 453.489904122 379.486791484 432.115090728 410.069898339 404 414 c 0
 329.088410012 424.471606409 284 434.461787753 284 534 c 3
 284 555.060666021 293.817843536 593.821363616 315 624 c 1
 334 620 l 1
EndSplineSet
EndChar
StartChar: afii57665
Encoding: 1489 1489 2511
Width: 474
Flags: HW
HStem: -10.4404 21G<397.263 413.542> 0.206055 124.429<85.9199 375.085>
LayerCount: 2
Fore
SplineSet
144.280273438 570.719726562 m 1x40
 156.41955821 568.814453125 280.147558342 562.512856274 301.080078125 551 c 0
 370.125 513.025390625 398.952546947 318.7334433 414.201171875 183.280273438 c 0
 418.073242188 148.884765625 434.126953125 139.9375 451.879882812 120.639648438 c 1
 406.639648438 -10.4404296875 l 1x80
 387.88671875 -3.9384765625 384.076180596 0.200761980812 356.759765625 0.2060546875 c 0
 250.916016961 0.2265625 85.7998046875 0 85.7998046875 0 c 1
 34.759765625 -22.0400390625 l 1
 18.5595703125 -12.759765625 l 1
 35.9599609375 95.7197265625 l 1
 99.1694702327 132.803710938 105.91742704 124.763671875 375.663085938 124.634765625 c 1
 367.852167074 266.148287459 338.805423776 407.625705485 277.799804688 431.759765625 c 0
 214.545566203 453.726471758 90.7138279656 422.253236185 59 479.440429688 c 1
 91.6396484375 602.040039062 l 1
 110.639648438 596.240234375 l 1
 144.280273438 570.719726562 l 1x40
EndSplineSet
EndChar
StartChar: afii57666
Encoding: 1490 1490 2515
Width: 336
VWidth: 0
Flags: W
HStem: -18.8888 21G<31.2493 38.2496 259.691 281.053>
VStem: 57.9175 214.411<447.275 527.096> 216.69 36.4567<180.626 392.286> 229.01 78.6608<0.922723 92.0892>
AnchorPoint: "Top" 174.714 627 basechar 0
LayerCount: 2
Fore
SplineSet
35.2057 -18.8888 m 0x90
 27.293 -18.8888 22.0178 -14.1572 22.0178 -7.05967 c 0
 22.0178 -4.30401 22.9239 -1.59099 23.4248 0 c 2
 57.4248 108 l 2
 70.2079 148.605 73.2624 125.377 136.714 146 c 0
 182.916 161.017 214.467 187.79 216.69 188.859 c 1xa0
 216.69 189.301 l 2
 216.69 228.212 219.111 267.136 221.424 306 c 2
 224.714 362 l 2
 225.408 374.119 224.315 399.909 189.428 408 c 2
 142 419 l 2
 103.312 427.974 73.3419 431.054 63.4248 487 c 0
 59.1409 511.167 57.9175 526.067 57.9175 535.834 c 0xc0
 57.9175 562.286 76.2508 621.096 94.8467 622.125 c 1
 95.5331 622.125 l 2
 119.668 622.125 96.654 585.411 120.073 573.195 c 0
 125.525 570.351 131.687 569.237 137.71 568 c 2
 196.138 556 l 2
 217.311 551.651 272.328 537.287 272.328 462.433 c 0
 272.328 419.256 256.338 400.983 254.424 339 c 0
 253.769 317.772 253.146 243.418 253.146 232.797 c 0xa0
 253.146 89.1452 307.671 98.546 307.671 27.9804 c 0
 307.671 -0.569577 287.707 -9.78659 274.399 -9.78659 c 0
 244.983 -9.78659 241.448 16.8298 229.01 60.2119 c 0
 225.065 73.9745 221.443 95.8418 218.745 131.736 c 1
 195.424 54 l 2
 194.291 50.224 201.98 37.6053 98.7139 0 c 0
 73.8557 -9.05231 41.2935 -18.8888 35.2057 -18.8888 c 0x90
  Spiro
    35.2057 -18.8888 o
    28.2757 -17.4021 o
    23.6753 -13.2757 o
    22.0178 -7.05967 o
    22.2708 -4.36081 o
    22.838 -1.9228 o
    23.4248 0 [
    57.4248 108 ]
    69.5482 131.306 o
    90.8285 136.009 o
    136.714 146 o
    177.454 163.53 o
    205.255 180.623 o
    216.69 188.859 v
    216.69 189.301 ]
    217.402 228.175 o
    219.171 267.158 o
    221.424 306 [
    224.714 362 ]
    223.631 377.496 o
    214.22 395.188 o
    189.428 408 [
    142 419 ]
    106.669 428.174 o
    79.5844 446.527 o
    63.4248 487 o
    60.0955 508.213 o
    58.3923 524.217 o
    57.9175 535.834 o
    63.3491 569.696 o
    77.024 605.204 o
    94.8467 622.125 v
    95.5331 622.125 ]
    107.415 612.172 o
    108.669 591.288 o
    120.073 573.195 o
    125.724 570.861 o
    131.678 569.263 o
    137.71 568 [
    196.138 556 ]
    225.267 546.46 o
    257.307 518.953 o
    272.328 462.433 o
    268.119 425.05 o
    259.908 388.914 o
    254.424 339 o
    253.802 304.435 o
    253.331 260.294 o
    253.146 232.797 o
    267.258 131.6 o
    293.559 80.4777 o
    307.671 27.9804 o
    302.013 5.51687 o
    288.925 -6.34685 o
    274.399 -9.78659 o
    252.338 -1.29594 o
    239.758 22.8143 o
    229.01 60.2119 o
    225.199 76.8756 o
    221.725 100.325 o
    218.745 131.736 v
    195.424 54 ]
    192.804 46.69 o
    169.389 29.8516 o
    98.7139 0 o
    72.5798 -8.91195 o
    48.8325 -16.0087 o
    0 0 z
  EndSpiro
EndSplineSet
EndChar
StartChar: afii57667
Encoding: 1491 1491 2516
Width: 538
VWidth: 0
Flags: W
HStem: -10.0244 21G<437.051 462.66> 434 140<72.1025 442 476 490> 434 20<442 476>
VStem: 420.843 69.627<0.460569 256.955> 442 34<259.801 454>
AnchorPoint: "Top" 246.714 627 basechar 0
LayerCount: 2
Fore
SplineSet
476 454 m 5xa8
 476.153539424 216.585081746 490.469726562 135.78539598 490.469726562 91.3740234375 c 7
 490.469726562 38.2225801316 483.585882086 -10.0244140625 441.734375 -10.0244140625 c 7
 432.367665571 -10.0244140625 420.842773438 4.87945778947 420.842773438 22.9970703125 c 7xb0
 420.842773438 87.2217391967 442 205.719331149 442 454 c 5
 476 454 l 5xa8
52 621 m 1
 70 615 l 1
 72.2799242325 583.615717274 75 574 98 574 c 3
 251.218274112 574 490 574 490 574 c 1
 504 559 l 1
 490 434 l 1
 94 434 l 3xc0
 41.8050036956 434 21 449.691477321 21 506 c 3
 21 548.635763504 35.53125 595.725274726 52 621 c 1
EndSplineSet
EndChar
StartChar: afii57668
Encoding: 1492 1492 2517
Width: 546
VWidth: 0
Flags: W
HStem: -10.0244 21G<445.051 470.66> -10 21G<73.9977 98.728> 434 20<450 484> 434 140<80.1025 450 484 498>
VStem: 428.843 69.627<0.460569 256.955> 450 34<259.801 454>
AnchorPoint: "Top" 264.714 627 basechar 0
LayerCount: 2
Fore
SplineSet
120 370 m 1x40
 146 355 l 1
 134.084241698 337.445002337 126.154075522 312.241090937 126.154075522 283.363536134 c 3
 126.154075522 226.21304924 139.12890625 154.882102462 139.12890625 99.2998046875 c 3
 139.12890625 28.7252306562 118.456011072 -10 79 -10 c 3
 68.9954119373 -10 55.1584787394 -1.38431023834 52 24 c 1
 108.492291794 144.880343467 56 322 120 370 c 1x40
EndSplineSet
Refer: 2516 1491 N 1 0 0 1 8 0 2
EndChar
StartChar: afii57669
Encoding: 1493 1493 2518
Width: 272
VWidth: 0
Flags: W
HStem: -9.10751 21G<191.123 213.391>
VStem: 20.925 213.91<445.551 527.04> 164.992 68.6429<-4.85382 273.208> 184 32.8204<124.355 400.567>
AnchorPoint: "Top" 149 627 basechar 0
LayerCount: 2
Fore
SplineSet
197.656 -9.10751 m 0xa0
 184.59 -9.10751 164.992 -1.34932 164.992 43.7823 c 0xa0
 164.992 102.341 172.418 43.2763 184 296 c 0x90
 186.734 355.655 201.215 395.751 152.714 407 c 2
 105.286 418 l 2
 54.5351 429.771 25.8514 428.469 21.0605 531.232 c 0
 20.9705 533.164 20.925 535.098 20.925 537.031 c 0
 20.925 563.644 38.9038 621.086 57.4236 622.12 c 1
 58.1171 622.12 l 2
 82.1805 622.12 59.288 585.378 82.6479 573.194 c 0
 88.1008 570.351 94.2621 569.237 100.286 568 c 2
 158.714 556 l 2
 180.453 551.534 234.835 537.272 234.835 462.36 c 0xc0
 234.835 413.288 216.82 402.671 216.82 322.84 c 0x90
 216.82 232.46 233.635 70.8375 233.635 61.0583 c 0
 233.635 35.1336 229.126 -9.10751 197.656 -9.10751 c 0xa0
EndSplineSet
EndChar
StartChar: afii57670
Encoding: 1494 1494 2519
Width: 328
VWidth: 0
Flags: W
HStem: -10.0244 21G<140.051 165.66>
VStem: 26 50<570.232 606.325> 123.843 69.627<0.460569 257.678> 135.833 37.8477<120.621 407.292> 257 44.2803<329 376.094>
AnchorPoint: "Top" 176.714 628 basechar 0
LayerCount: 2
Fore
SplineSet
194 454 m 1xd8
 178.613677996 411.573728619 173.680664062 361.948936434 173.680664062 325 c 3xd8
 173.680664062 184.467842313 193.469726562 126.539605665 193.469726562 91.3740234375 c 3
 193.469726562 38.2225801316 186.585882086 -10.0244140625 144.734375 -10.0244140625 c 3
 135.367665571 -10.0244140625 123.842773438 4.87945778947 123.842773438 22.9970703125 c 3xe8
 123.842773438 74.4839127693 135.833007812 160.759599071 135.833007812 321 c 3
 135.833007812 360.643417935 141.999696839 414.757923395 160 454 c 1
 194 454 l 1xd8
76 617 m 1
 79.92537457 563.729561892 97.721162585 570.672925863 140 559 c 0
 279 521.569263404 301.280273438 492.789611337 301.280273438 427.494140625 c 3
 301.280273438 388.882921233 287.811083034 348.789811376 279 325 c 1
 257 329 l 1
 255.867587151 356.575325032 251 389 146 411 c 0
 71.9676232434 426.511545606 26 431.461787753 26 531 c 3
 26 552.060666021 35.817843536 590.821363616 57 621 c 1
 76 617 l 1
EndSplineSet
EndChar
StartChar: afii57671
Encoding: 1495 1495 2520
Width: 538
VWidth: 0
Flags: W
HStem: -10.0244 21G<79.051 104.66> -10.0244 21G<437.051 462.66> 434 20<442 476> 434 140<72.1025 442 476 490>
VStem: 62.8428 69.627<0.460569 257.678> 81.8334 37.847<120.621 439.847> 420.843 69.627<0.460569 256.955> 442 34<259.801 454>
AnchorPoint: "Top" 257.714 627 basechar 0
LayerCount: 2
Fore
SplineSet
140 454 m 5xa4
 124.613480611 411.573728619 119.680403394 361.948936434 119.680403394 325 c 7xa4
 119.680403394 184.467842313 132.469726562 126.539605665 132.469726562 91.3740234375 c 7
 132.469726562 38.2225801316 125.585882086 -10.0244140625 83.734375 -10.0244140625 c 7
 74.3676655712 -10.0244140625 62.8427734375 4.87945778947 62.8427734375 22.9970703125 c 7xa8
 62.8427734375 74.4839127693 81.8334148332 160.759599071 81.8334148332 321 c 7
 81.8334148332 360.643417935 88 414.757923395 106 454 c 5
 140 454 l 5xa4
EndSplineSet
Refer: 2516 1491 N 1 0 0 1 0 0 2
EndChar
StartChar: afii57672
Encoding: 1496 1496 2521
Width: 564
VWidth: 0
Flags: W
HStem: 0 152<110.951 325.271> 477.142 126.39<329.496 452.587>
VStem: 24.2324 180.059<455.124 542.777> 54.3331 42.6499<169.274 398.662> 496.596 37.0883<274.712 426.072>
AnchorPoint: "Top" 264 627 basechar 0
LayerCount: 2
Fore
SplineSet
384.839 603.532 m 0xd8
 474.146 603.532 533.685 511.268 533.685 393.368 c 0
 533.685 282.518 480.434 153.911 418 88 c 0
 327.419 -7.62307 228.644 0 210 0 c 2
 142 0 l 2
 66.1141 0 54.3331 34.3648 54.3331 190.427 c 0xd8
 54.3331 273.377 63.4865 360.062 77.0633 434.318 c 1
 40.418 445.298 33.3163 476.856 29.2861 497 c 0
 26.3923 511.464 24.2344 526.132 24.2324 540.889 c 0xe8
 24.2324 559.436 41.4169 630.187 62.7021 631.201 c 1
 63.2848 631.201 l 2
 87.135 631.201 63.9237 595.068 88.2266 582.625 c 0
 93.6484 579.849 99.6769 578.528 105.572 577 c 2
 128.714 571 l 2
 151.787 565.018 204.292 552.628 204.292 479.141 c 0
 204.292 450.412 192.418 392.295 188.363 384.477 c 0
 180.452 369.223 165.29 373.041 158.266 384.979 c 0
 158.262 384.986 146.089 416.094 107.114 427.257 c 1
 100.374 382.364 96.983 336.967 96.983 291.571 c 2
 96.983 286 l 2
 97.675 172.673 104.738 152 168 152 c 2
 274.122 152 l 2
 359.158 152 445.372 157.662 484 279 c 0
 493.196 307.887 496.596 331.841 496.596 354.525 c 0
 496.596 440.8 440.175 477.142 392.981 477.142 c 0
 293.623 477.142 243.646 336.723 235.036 326.15 c 0
 225.189 314.059 205.377 324.488 213.553 345.046 c 0
 217.929 356.048 238.473 378.448 254 433 c 0
 267.647 480.952 278.762 603.532 384.839 603.532 c 0xd8
EndSplineSet
EndChar
StartChar: afii57673
Encoding: 1497 1497 2522
Width: 277
VWidth: 0
Flags: W
VStem: 31 50<569.976 609.325> 175.188 70.0928<354.428 484.536>
AnchorPoint: "Top" 152 627 basechar 0
LayerCount: 2
Fore
SplineSet
81 620 m 1
 84.92537457 566.729561892 94.449079537 569.351888609 145 562 c 0
 223.531391676 550.578762985 245.280273438 508.578350103 245.280273438 460.494140625 c 3
 245.280273438 379.690689116 205.648216685 282 123 246 c 1
 102 271 l 1
 131.452813197 282.754717116 175.1875 324.192291308 175.1875 371 c 3
 175.1875 387.49440412 169 412 137 416 c 0
 70.5488553392 424.306393083 31 436.120757957 31 534 c 3
 31 555.060666021 40.817843536 593.821363616 62 624 c 1
 81 620 l 1
EndSplineSet
EndChar
StartChar: afii57674
Encoding: 1498 1498 2523
Width: 543
VWidth: 0
Flags: W
HStem: 433 141<73.7859 442.142>
VStem: 22.9522 487.523<448.701 564.899> 423.436 70.2976<-276.497 19.3374> 435.714 42.2093<228.611 433>
AnchorPoint: "Top" 260.714 627 basechar 0
LayerCount: 2
Fore
SplineSet
458.531 -280.096 m 0xa0
 428.208 -280.096 423.436 -243.305 423.436 -212.466 c 0xa0
 423.436 -180.137 432.206 -83.1495 435.714 111 c 0x90
 437.652 218.219 438.165 326.739 442.142 433 c 1
 100.272 433 l 2
 54.1706 433 35.5023 443.965 28 488 c 0
 23.9892 511.542 22.9522 526.1 22.9522 535.625 c 0xc0
 22.9522 560.372 41.6243 622.283 60.6167 622.283 c 0
 84.2614 622.283 61.0879 584.048 86.0547 575.721 c 0
 91.465 573.917 97.2969 574 103 574 c 2
 462 574 l 2
 489.517 574 500.452 562.774 507.861 509.2 c 0
 509.156 499.829 510.475 490.262 510.475 480.818 c 0
 510.475 439.158 484.443 434.516 477.923 433.597 c 1x90
 478.164 148.944 493.733 -195.083 493.733 -214.338 c 0
 493.733 -270.588 472.612 -280.096 458.531 -280.096 c 0xa0
EndSplineSet
EndChar
StartChar: afii57675
Encoding: 1499 1499 2524
Width: 540
VWidth: 0
Flags: W
HStem: 0 141<38.5497 377.989> 432.932 141.068<95.8496 375.242>
VStem: 48.876 46.9736<574.31 609.034> 466 40.712<180 347.231>
AnchorPoint: "Top" 256.303 627 basechar 0
LayerCount: 2
Fore
SplineSet
26.328125 42.275390625 m 3
 26.328125 136.780000647 55.0547253822 141 71 141 c 3
 150.139009108 141 229.252147407 139.995 308.406 139.995 c 3
 424.214412652 139.995 466 172.279703479 466 241 c 3
 466 398.320706356 383.706929982 433 242.384 433 c 3
 201.142759585 433 159.744616571 432.932 118.614 432.932 c 3
 66.2768251774 432.932 48.8759765625 446.095256178 48.8759765625 493.999023438 c 3
 48.8759765625 551.403653627 67.2395554793 622.492 83.595 622.492 c 0
 99.0337 622.492 95.8483147628 599.877999788 95.8496 595.974 c 0
 95.8566 574.711 113.006 574 126.286 574 c 2
 232 574 l 2
 305.509 574 444.236130046 582.184512134 489 396 c 0
 500.654 347.528 506.712 297.603 506.712 247.724 c 3
 506.712 114.451605281 424 0 284.303 0 c 3
 210.17925072 0 136.055501441 0 61.931640625 0 c 3
 25.7422806536 0 26.328125 16.782599735 26.328125 42.275390625 c 3
EndSplineSet
EndChar
StartChar: afii57676
Encoding: 1500 1500 2525
Width: 529
VWidth: 0
Flags: W
HStem: -9.59094 21G<165.871 199.455> 433 141<76.9411 411.7>
VStem: 34 123.029<693.132 763.638> 137.942 84.0748<-2.77708 92.9958> 430.397 67.3124<312.992 431.651>
AnchorPoint: "Top" 286.134 627 basechar 0
LayerCount: 2
Fore
SplineSet
430.397 359.934 m 0xd8
 430.397 381.239 420.63 433 355.017 433 c 2
 112 433 l 2
 107.05 433 102.082 432.885 97.1233 432.885 c 0
 47.7438 432.885 41.0227 451.307 35.0166 486 c 0
 32.7663 499.009 29.957 512.056 29.957 525.228 c 0
 29.957 545.137 32.1467 535.118 34 575 c 0
 37.4825 649.941 85.0428 661.5 61.3506 688.071 c 0
 51.8136 698.767 23.5029 693.511 31.9131 731.398 c 0
 41.4006 774.237 51.5487 803.191 71.8336 803.191 c 0
 80.1362 803.191 157.029 766.458 157.029 720.966 c 0xe8
 157.029 665.8 78.8453 664.968 75.0166 606 c 0
 73.2057 578.017 89.7 574 107 574 c 2
 355.017 574 l 2
 388.061 574 469.166 573.724 492.419 472.788 c 0
 496.152 456.586 497.71 439.974 497.71 423.329 c 0
 497.71 365.488 481.019 293.71 432.034 247 c 0
 365.223 183.294 235.345 176.121 222.017 58 c 0
 220.534 44.8561 221.07 -9.59094 177.841 -9.59094 c 0
 153.902 -9.59094 137.942 11.502 137.942 35.6604 c 0
 137.942 75.7962 179.378 123.867 191.017 136 c 0
 267.954 216.202 377.961 214.267 421.017 317 c 0
 426.715 330.595 430.397 345.242 430.397 359.934 c 0xd8
EndSplineSet
EndChar
StartChar: afii57677
Encoding: 1501 1501 2526
Width: 562
VWidth: 0
Flags: W
HStem: -0.0608093 141.061<87.996 471.712> 433 141<111.054 459.483>
VStem: 41.0475 41.5406<143.475 386.317 574.831 614.757> 480.086 36.9046<148.262 408.16>
AnchorPoint: "Top" 273.117 627 basechar 0
LayerCount: 2
Fore
SplineSet
41.0475 232.631 m 0
 41.0475 293.866 43.9614 366.64 82.947 434.788 c 1
 51.8746 441.236 44.0631 460.642 39.1172 528.5 c 0
 38.8394 532.313 38.6956 536.139 38.6956 539.963 c 0
 38.6956 577.088 57.1221 622.353 73.41 622.489 c 0
 88.8491 622.489 85.666 599.874 85.666 595.974 c 0
 85.666 573.734 105.153 574 116.101 574 c 2
 401 574 l 2
 495.757 574 519.446 511.954 519.446 422.587 c 0
 519.446 395.416 516.99 354.659 516.99 286.731 c 2
 516.99 279 l 2
 517.296 159.342 523.528 99.526 523.528 79.5862 c 0
 523.528 9.69345 500.641 0 475 0 c 2
 106 0 l 2
 102.079 0 98.1529 -0.0608093 94.2297 -0.0608093 c 0
 25.0939 -0.0608093 41.5966 33.1852 41.5966 137.361 c 0
 41.5966 175.469 41.0475 213.577 41.0475 232.631 c 0
124.113 432.994 m 1
 95.7849 392.738 82.5881 347.644 82.5881 267.692 c 0
 82.5881 159.597 82.5121 141.124 121 141 c 2
 432 140 l 2
 478.833 139.849 480.086 172.903 480.086 262.054 c 0
 480.086 423.742 461.076 433 396 433 c 2
 126.1 433 l 1
 124.113 432.994 l 1
EndSplineSet
EndChar
StartChar: afii57678
Encoding: 1502 1502 2527
Width: 560
VWidth: 0
Flags: W
HStem: 0 139.984<170.064 410.876> 432 141.419<266.521 400.058>
VStem: 26.1399 154.923<447.326 533.889> 48.9989 66.3053<-3.49351 229.118> 491.017 36.2601<182.318 337.97>
AnchorPoint: "Top" 234 627 basechar 0
LayerCount: 2
Fore
SplineSet
81.6736 -6.00209 m 0xd8
 68.6037 -6.00209 48.9989 2.47432 48.9989 45.3145 c 0xd8
 48.9989 77.8897 59.1023 107.452 66 178 c 0
 78.102 301.778 77.2755 331.132 105.946 372.81 c 0
 129.41 406.92 121.331 418.655 93 426 c 2
 77.5723 430 l 2
 54.9424 435.867 41.1076 445.226 31.7139 486 c 0
 28.2693 500.955 26.1399 515.782 26.1399 531.375 c 0xe8
 26.1399 557.039 41.5385 620.723 64.6365 620.723 c 0
 92.4053 620.723 62.8926 581.096 89.5723 571 c 2
 116 561 l 2
 127.11 556.796 181.063 533.334 181.063 491.834 c 0
 181.063 475.728 171.29 434.214 162.143 411.304 c 1
 226.937 451.868 219.914 573.419 329.928 573.419 c 0
 428.185 573.419 527.278 452.37 527.278 258.848 c 0
 527.278 119.788 485.49 56.1963 408 20 c 0
 378.927 6.41972 355.133 0 304 0 c 2
 216 0 l 2
 188.091 0 157.371 -2.81443 156.088 31.9766 c 0
 155.877 37.6914 167.695 111.34 168.189 113.044 c 0
 176.571 141.976 199.286 141.066 207 141 c 2
 326 139.984 l 1
 329.606 139.984 l 2
 360.044 139.984 426.451 149.985 447 160 c 0
 474.774 173.536 491.017 202.12 491.017 245.991 c 0
 491.017 271.193 484.935 334.145 454.697 372 c 0
 420.131 415.27 352.818 432 307.974 432 c 2
 304.983 432 l 1
 235.109 430.95 130.709 386.326 115.219 325.192 c 0
 109.755 303.627 108.823 228.836 108.823 205.675 c 0
 108.823 118.819 115.304 89.8666 115.304 60.9145 c 0
 115.304 23.5496 108.578 -6.00209 81.6736 -6.00209 c 0xd8
EndSplineSet
EndChar
StartChar: afii57679
Encoding: 1503 1503 2528
Width: 276
VWidth: 0
Flags: W
VStem: 26.0553 214.765<449.507 527.036> 172.977 66.0714<-276.467 2.01676> 194.157 28.6397<178.116 396.925>
AnchorPoint: "Top" 149 627 basechar 0
LayerCount: 2
Fore
SplineSet
204.483 -280.049 m 0x40
 179.043 -280.049 173.239 -253.247 172.977 -225 c 2
 172.977 -219.977 l 2x40
 172.977 -112.561 194.176 372.15 194.157 372.39 c 0x20
 193.268 383.779 183.729 403.198 158.714 409 c 2
 111.286 420 l 2
 63.2826 431.134 42.1722 438.892 32 487 c 0
 27.0497 510.412 26.0553 525.16 26.0553 534.7 c 0x80
 26.0553 559.491 44.2309 621.069 63.4219 622.13 c 1
 64.0971 622.13 l 2
 88.1714 622.13 65.2858 585.385 88.6494 573.196 c 0
 94.1016 570.352 100.263 569.237 106.286 568 c 2
 164.714 556 l 2
 186.451 551.535 240.82 537.269 240.82 462.346 c 0
 240.82 413.281 222.797 404.285 222.797 319.288 c 0x20
 222.797 315.67 228.608 47.7121 238 -183 c 0
 238.425 -193.446 239.048 -203.924 239.048 -214.375 c 0
 239.048 -269.763 218.309 -280.049 204.483 -280.049 c 0x40
EndSplineSet
EndChar
StartChar: afii57680
Encoding: 1504 1504 2529
Width: 336
VWidth: 0
Flags: W
HStem: 0 147<56.8774 212.709>
VStem: 57.9173 214.421<447.971 527.08> 213.866 39.1922<149.987 405.029>
AnchorPoint: "Top" 174.714 627 basechar 0
LayerCount: 2
Fore
SplineSet
170 147 m 2xa0
 218.689 147 213.466 164.003 213.866 201.466 c 0xa0
 215.209 327.21 250.682 393.792 189.428 408 c 2
 142 419 l 2
 103.312 427.974 73.3423 431.054 63.4243 487 c 0
 59.1403 511.165 57.9173 526.064 57.9173 535.83 c 0xc0
 57.9173 562.284 76.2505 621.097 94.8471 622.125 c 1
 95.5334 622.125 l 2
 119.668 622.125 96.6544 585.411 120.073 573.195 c 0
 125.525 570.351 131.686 569.237 137.71 568 c 2
 196.138 556 l 2
 217.617 551.589 272.339 537.288 272.339 462.441 c 0
 272.339 404.372 253.058 424.654 253.058 275.332 c 0
 253.058 161.16 273.718 153.005 273.718 112.23 c 0
 273.718 104.454 272.783 25.9925 225.139 5.81267 c 0
 212.902 0.629654 199.289 0 186 0 c 2
 74 0 l 2
 61.8703 0 41.9868 1.3591 41.9868 33.8066 c 0
 41.9868 33.8124 47.4575 124.112 64.8001 139.985 c 0
 71.2491 145.885 78.72 147 88 147 c 2
 170 147 l 2xa0
EndSplineSet
EndChar
StartChar: afii57681
Encoding: 1505 1505 2530
Width: 546
VWidth: 0
Flags: W
HStem: 0 139.933<137.833 395.991> 433 141<81.7321 96.6731 123.081 383.43>
VStem: 31.3564 38.0567<190.627 361.561> 34.5736 46.9733<574.237 613.515> 473.905 40.5052<177.166 343.599>
AnchorPoint: "Top" 254 627 basechar 0
LayerCount: 2
Fore
SplineSet
31.3564 241.318 m 0xe8
 31.3564 360.752 70.3296 409.656 96.6731 433.036 c 1
 53.0088 434.407 40.9857 447.067 35 528.5 c 0
 34.719 532.325 34.5736 536.163 34.5736 540 c 0
 34.5736 575.094 52.234 622.346 69.2964 622.491 c 0
 84.7316 622.491 81.5469 600.016 81.5469 595.974 c 0xd8
 81.5469 573.639 101.069 574 111.983 574 c 2
 239.697 574 l 2
 313.116 574 451.936 582.182 496.697 396 c 0
 508.351 347.527 514.41 297.6 514.41 247.721 c 0
 514.41 147.964 492.691 65.3014 396 20 c 0
 366.945 6.38779 343.14 0 292 0 c 2
 248 0 l 2
 199.116 0 114.681 2.85021 64 92 c 0
 38.3222 137.168 31.3564 190.18 31.3564 241.318 c 0xe8
324.668 139.933 m 0
 410.82 139.933 473.905 152.266 473.905 247.066 c 0
 473.905 303.728 455.931 391.12 367.697 420 c 0
 330.307 432.238 290.435 433 250.927 433 c 2
 147.147 433 l 1
 96.3384 398.291 69.4132 337.646 69.4132 274.077 c 0
 69.4132 133.368 170.198 141.713 230 141 c 2
 314 140 l 2
 317.555 139.958 321.111 139.933 324.668 139.933 c 0
EndSplineSet
EndChar
StartChar: afii57682
Encoding: 1506 1506 2531
Width: 465
VWidth: 0
Flags: W
VStem: 24 50<571.957 609.325> 194 44.2803<362 460.494> 260.592 176.506<425.788 512.958>
AnchorPoint: "Top" 225 627 basechar 0
LayerCount: 2
Fore
SplineSet
128.016601562 419.967773438 m 1
 139.676631687 305.311523934 205.963802942 219.330525758 282.238 123.903 c 1
 347.166 182.627 359.837 206.473 374.286 270 c 0
 398.289 375.53 360.64 386.058 333.286 397 c 2
 313.286 405 l 2
 281.596 417.676 260.592 439.483 260.592 499.811 c 0
 260.592 510.022 277.175 622.406 305.857 606 c 0
 321.672 596.953 300.212 572.713 326.544 560.112 c 0
 331.896 557.553 337.484 555.515 342.857 553 c 2
 392 530 l 2
 396.976 527.671 437.098 516.337 437.098 442.164 c 0
 437.098 388.93 417.36 366.926 413.994 353.441 c 1
 390.38 68.9027 340.805 19.4549 123.286 -155 c 0
 116.473 -160.463 107.802 -168.029 97.4795 -168.029 c 0
 72.1288 -168.029 14.9516 -81.8353 41.3975 -65.0098 c 0
 114.452 -18.5307 181.562 35.5466 245.703 91.5412 c 1
 123.999279041 260.638917369 105.69432101 355.90224848 99.865234375 424.545898438 c 1
 98.0003829192 459.000839187 123.999706127 471.001166841 128.016601562 419.967773438 c 1
74 620 m 1
 77.9253745695 568.566473551 94.4607944929 568.317417413 138 564 c 0
 216.98498168 556.167722601 238.280273438 509.525767519 238.280273438 460.494140625 c 3
 238.280273438 421.882921233 224.811083034 381.789811376 216 358 c 1
 194 362 l 1
 193.489904122 379.486791484 172.115090728 410.069898339 144 414 c 0
 69.0884100121 424.471606409 24 434.461787753 24 534 c 3
 24 555.060666021 33.817843536 593.821363616 55 624 c 1
 74 620 l 1
EndSplineSet
EndChar
StartChar: afii57683
Encoding: 1507 1507 2532
Width: 526
VWidth: 0
Flags: W
HStem: 234 148.976<134.553 210.566> 433 141<74.8792 100.007 125.795 353.073>
VStem: 95.9954 29.7993<371.637 433> 426.774 68.6389<-276.37 -88.5823> 444.515 39.0886<-106.608 335.702>
AnchorPoint: "Top" 250 627 basechar 0
LayerCount: 2
Fore
SplineSet
179.123 382.976 m 0xe8
 224.406 382.976 228.813 360.491 224 328 c 2
 216 274 l 2
 213.096 254.401 207.995 235.973 148 234 c 0
 124.063 233.213 116.891 243.293 114 250 c 1
 73.1384 223.209 83.5834 190.607 64.9033 195.803 c 0
 41.4508 202.341 84.5451 306.192 100 336 c 1
 97.3362 351.972 95.9954 368.164 95.9954 384.357 c 0
 95.9954 400.91 97.3372 417.095 100.007 433 c 1
 54.7935 433.037 29.0255 440.313 24.7305 531.248 c 0
 24.6428 533.107 24.5986 534.968 24.5986 536.829 c 0
 24.5986 561.034 42.849 622.28 61.9094 622.28 c 0
 85.4569 622.28 62.4549 584.018 87.3408 575.72 c 0
 92.751 573.916 98.583 574 104.286 574 c 2
 210 574 l 2
 282.497 574 424.519 582.269 467 396 c 0
 486.48 310.583 483.603 188.033 483.603 132.247 c 2
 483.603 97.5014 l 2xe8
 483.603 -133.541 495.413 -172.016 495.413 -211.237 c 0
 495.413 -269.945 474.082 -280.091 459.862 -280.091 c 0
 446.627 -280.091 426.774 -268.868 426.774 -232.25 c 0xf0
 426.774 -219.056 430.129 -196.886 431 -179 c 2
 438 -34 l 2
 441.2 34.1998 444.515 102.445 444.515 170.707 c 0
 444.515 291.688 443.851 384.514 344 419 c 0
 306.247 432.039 265.767 433.032 225.612 433.032 c 0
 218.391 433.032 211.182 433 204 433 c 2
 126.689 433 l 1
 126.094 427.835 125.795 422.637 125.795 417.438 c 0
 125.795 403.506 127.641 388.454 134 371 c 1
 145.749 377.72 161.074 382.976 179.123 382.976 c 0xe8
EndSplineSet
EndChar
StartChar: afii57684
Encoding: 1508 1508 2533
Width: 538
VWidth: 0
Flags: W
HStem: 0 139.995<34.8255 388.294> 234 148.976<140.856 216.873> 433 141<97.1706 106.358 132.098 375.905>
VStem: 48.876 46.9736<574.31 613.792> 102.298 29.7994<371.636 433> 466.514 40.1982<180.263 343.064>
AnchorPoint: "Top" 246 627 basechar 0
LayerCount: 2
Fore
SplineSet
63.5391 207.449 m 0
 63.5391 221.451 78.8231 282.997 106.303 336 c 1
 103.639 351.971 102.298 368.162 102.298 384.354 c 0
 102.298 401.006 103.656 417.285 106.358 433.282 c 1
 64.7464 435.935 54.7188 454.833 49.3027 528.5 c 0
 49.0215 532.325 48.876 536.162 48.876 539.999 c 0
 48.876 576.853 67.2412 622.354 83.5947 622.491 c 0
 99.0332 622.491 95.8484 599.879 95.8496 595.974 c 0
 95.8564 574.711 113.006 574 126.286 574 c 2
 232 574 l 2
 305.509 574 444.234 582.184 489 396 c 0
 500.654 347.528 506.712 297.603 506.712 247.724 c 0
 506.712 147.967 484.996 65.3018 388.303 20 c 0
 359.248 6.3877 335.443 0 284.303 0 c 0
 217.846 0 151.389 0 84.9316 0 c 0
 39.1758 0 30.4434 15.2246 28.3027 56 c 0
 27.6504 68.4268 26.3281 80.834 26.3281 93.2754 c 0
 26.3281 138.96 55.0547 141.066 71 141 c 2
 306.303 139.995 l 1
 308.406 139.995 l 2
 339.476 139.995 400.321 149.004 422.303 160 c 0
 464.184 180.951 466.514 228.857 466.514 246.072 c 0
 466.514 282.547 456.038 337.459 430 372 c 0
 389.91 425.182 323.347 433 242.384 433 c 2
 132.992 433 l 1
 132.397 427.835 132.098 422.637 132.098 417.438 c 0
 132.098 403.506 133.944 388.454 140.303 371 c 1
 152.052 377.72 167.377 382.976 185.426 382.976 c 0
 219.577 382.976 232.194 368.445 232.194 346.65 c 0
 232.194 340.058 230.955 332.398 230.303 328 c 2
 222.303 274 l 2
 219.399 254.401 214.298 235.973 154.303 234 c 0
 130.366 233.213 123.194 243.293 120.303 250 c 1
 82.2839 225.073 89.8176 195.457 73.7704 195.457 c 0
 69.6779 195.457 63.5391 198.878 63.5391 207.449 c 0
EndSplineSet
EndChar
StartChar: afii57685
Encoding: 1509 1509 2534
Width: 494
VWidth: 0
Flags: W
VStem: 23.0256 50.1853<574.065 611.257> 115.052 42.948<-59.6206 167.92 211.163 344.226> 152.589 60.843<390.993 417.204> 258 50<571.957 609.325> 428 44.2803<362 460.494>
AnchorPoint: "Top" 248 627 basechar 0
LayerCount: 2
Fore
SplineSet
375.45703125 417.116210938 m 5xb8
 313.270888431 303.544862695 232.0616415 222.578058582 156.928 167.92 c 5
 158 149 l 6
 165.193 16.4651 156.351 -50.8743 168 -183 c 4
 168.832 -192.442 169.42 -201.933 169.42 -211.406 c 4
 169.42 -268.954 148.391 -280.056 134.371 -280.056 c 4
 94.6998 -280.056 101.195 -200.753 104 -179 c 4
 112.974 -109.416 115.052 -39.2971 115.052 30.9024 c 4xd8
 115.052 84.6922 113.864 138.482 113.864 165.377 c 4
 113.864 356.598 153.022 358.098 152.589 390.891 c 4
 152.288 413.676 127.966 417.972 124 419 c 6
 108.572 423 l 6
 61.469 435.212 39.7489 440.496 29.2861 490 c 4
 26.9021 501.28 23.0256 521.117 23.0256 538.182 c 4
 23.0256 555.118 39.7931 624.96 61.1123 625.337 c 4
 77.0756 625.337 73.2109 601.417 73.2109 599.02 c 4
 73.2109 578.763 89.4784 576.334 103.572 571 c 6
 130 561 l 6
 165.655 547.508 213.432 536.946 213.432 486.763 c 4
 213.432 390.993 160.906 360.584 155.714 295 c 4
 154.462 279.185 153.851 263.782 153.851 247.189 c 4
 153.851 235.177 154.17 223.169 154.662 211.163 c 5
 217.872064106 255.841898298 279.697885038 321.971698821 336.2890625 423.595703125 c 5
 378.000029221 484.994891131 406.000006881 476.99551806 375.45703125 417.116210938 c 5xb8
308 620 m 1
 311.92537457 568.566473551 328.460794493 568.317417413 372 564 c 0
 450.98498168 556.167722601 472.280273438 509.525767519 472.280273438 460.494140625 c 3
 472.280273438 421.882921233 458.811083034 381.789811376 450 358 c 1
 428 362 l 1
 427.489904122 379.486791484 406.115090728 410.069898339 378 414 c 0
 303.088410012 424.471606409 258 434.461787753 258 534 c 3
 258 555.060666021 267.817843536 593.821363616 289 624 c 1
 308 620 l 1
EndSplineSet
EndChar
StartChar: afii57686
Encoding: 1510 1510 2535
Width: 502
VWidth: 0
Flags: W
HStem: 0 139<34.7105 332.245>
VStem: 262 50<571.957 609.325> 432 44.2803<362 460.494>
AnchorPoint: "Top" 252 627 basechar 0
LayerCount: 2
Fore
SplineSet
381.08984375 417.497070312 m 1
 373.627009884 401.890181201 349.095454548 349.40896814 274.241 275.578 c 1
 322.932 241.907 351.011 226.223 388.308 200 c 2
 418.308 178 l 2
 449.764 153.929 459.906 137.003 454.308 95 c 2
 452.308 80 l 2
 442.019 2.83412 372.14 0 318 0 c 2
 68.3086 0 l 2
 43.6341 0 22.6374 7.50989 22.6374 37.5494 c 0
 22.6374 43.0484 23.4539 48.5513 24.3086 54 c 2
 32.3086 105 l 2
 35.9173 128.006 39.9532 139 62.3086 139 c 2
 314.308 139 l 2
 339.175 139 338.182 159.035 325.36 169.404 c 0
 315.549 177.338 252.593 211.383 178.308 278 c 0
 123.217 327.408 180.621 396.48 140.568 414.931 c 0
 136.562 416.775 132.268 417.893 128 419 c 2
 112.572 423 l 2
 65.5839 435.183 43.9027 440.042 34 490 c 0
 29.1207 514.615 27.5543 529.86 27.5543 539.825 c 0
 27.5543 559.52 44.8089 624.968 65.1206 625.333 c 0
 88.2168 625.333 64.9788 590.198 90.8281 577.502 c 0
 96.2051 574.861 101.97 573.12 107.572 571 c 2
 134 561 l 2
 196.964 537.175 220.36 530.436 216.572 473 c 0
 207.878 341.319 135.151 380.829 245.877 296.297 c 1
 314.840308644 362.788232432 333.478139787 394.664295073 345.657226562 423.540039062 c 1
 370.999952761 473.99977812 414.999477392 465.99981949 381.08984375 417.497070312 c 1
312 620 m 1
 315.92537457 568.566473551 332.460794493 568.317417413 376 564 c 0
 454.98498168 556.167722601 476.280273438 509.525767519 476.280273438 460.494140625 c 3
 476.280273438 421.882921233 462.811083034 381.789811376 454 358 c 1
 432 362 l 1
 431.489904122 379.486791484 410.115090728 410.069898339 382 414 c 0
 307.088410012 424.471606409 262 434.461787753 262 534 c 3
 262 555.060666021 271.817843536 593.821363616 293 624 c 1
 312 620 l 1
EndSplineSet
EndChar
StartChar: afii57687
Encoding: 1511 1511 2536
Width: 521
VWidth: 0
Flags: W
HStem: 433 141<72.1478 404.867>
VStem: 60.7836 70.0804<-276.624 12.053> 72.9824 41.7667<118.116 317.026> 425.407 67.0823<309.859 499.179>
AnchorPoint: "Top" 232 627 basechar 0
LayerCount: 2
Fore
SplineSet
114.749 318.209 m 0xb0
 114.749 182.311 130.864 -107.311 130.864 -216.06 c 0
 130.864 -270.426 109.828 -280.097 95.8045 -280.097 c 0
 66.016 -280.097 60.7836 -244.679 60.7836 -213.898 c 0xd0
 60.7836 -181.43 65.4575 -148.983 72.9824 111 c 0
 80.6393 375.523 77.6719 379.541 96.4301 379.541 c 2
 96.9326 379.541 l 2
 120.362 378.722 114.749 349.16 114.749 318.209 c 0xb0
97.4276 433 m 2
 47.3714 433 24.9128 442.768 24.9128 535.601 c 0
 24.9128 584.036 44.1328 622.31 59.6005 622.31 c 0
 83.2759 622.31 60.0209 584.111 85.0479 575.732 c 0
 90.4541 573.923 96.2822 574 101.983 574 c 2
 350 574 l 2
 379.124 574 492.489 576.232 492.489 422.126 c 0
 492.489 172.549 272.176 231.534 257 76 c 0
 254.993 55.4323 255.835 25.2709 228.514 14.5898 c 0
 203.868 4.95428 175.922 24.1519 175.922 58.2654 c 0
 175.922 90.6539 200.934 130.289 226 154 c 0
 278.734 203.882 378.066 228.456 416 317 c 0
 421.771 330.47 425.407 345.042 425.407 359.65 c 0
 425.407 380.772 415.913 433 350 433 c 2
 97.4276 433 l 2
EndSplineSet
EndChar
StartChar: afii57688
Encoding: 1512 1512 2537
Width: 521
VWidth: 0
Flags: W
HStem: -9.10785 21G<448.406 470.696> 433 141<70.9191 347.891>
VStem: 422.282 68.6635<-4.83268 232.034>
AnchorPoint: "Top" 246 627 basechar 0
LayerCount: 2
Fore
SplineSet
422.282 44.301 m 0
 422.385 87.6972 438.127 140.745 438.127 236.491 c 0
 438.127 314.264 426.491 388.934 340 419 c 0
 302.607 431.998 262.498 433.038 222.686 433.038 c 0
 215.107 433.038 207.537 433 200 433 c 2
 96.5094 433 l 2
 50.246 433 25.0033 440.789 20.731 531.248 c 0
 20.6431 533.108 20.5989 534.971 20.5989 536.833 c 0
 20.5989 561.037 38.8494 622.28 57.9093 622.28 c 0
 81.3201 622.28 58.2194 584.096 83.3406 575.72 c 0
 88.7511 573.916 94.5825 574 100.286 574 c 2
 206 574 l 2
 273.43 574 422.874 582.424 463 396 c 0
 482.405 305.844 470.918 241.141 489.286 88 c 0
 490.354 79.095 490.946 70.1274 490.946 61.1666 c 0
 490.946 35.3756 486.455 -9.10785 454.937 -9.10785 c 0
 441.875 -9.10785 422.282 -1.66604 422.282 44.301 c 0
EndSplineSet
EndChar
